<?xml version="1.0" encoding="UTF-8"?>
<!DOCTYPE svg PUBLIC "-//W3C//DTD SVG 1.1//EN" "http://www.w3.org/Graphics/SVG/1.1/DTD/svg11.dtd">
<!-- Creator: CorelDRAW X7 -->
<svg xmlns="http://www.w3.org/2000/svg" xml:space="preserve" width="33.3506mm" height="15.009mm" version="1.1" style="shape-rendering:geometricPrecision; text-rendering:geometricPrecision; image-rendering:optimizeQuality; fill-rule:evenodd; clip-rule:evenodd"
viewBox="0 0 3238 1457"
 xmlns:xlink="http://www.w3.org/1999/xlink">
 <defs>
  <style type="text/css">
   <![CDATA[
    .fil0 {fill:black;fill-rule:nonzero}
   ]]>
  </style>
 </defs>
 <g id="Слой_x0020_1">
  <metadata id="CorelCorpID_0Corel-Layer"/>
  <path class="fil0" d="M370 285c0,52 -20,58 -78,58l-117 0c-58,0 -78,-12 -78,-78l0 -103c0,-65 14,-78 78,-78l117 0c58,0 78,19 78,64l97 0c0,-122 -58,-148 -156,-148l-155 0c-117,0 -156,32 -156,156l0 123c0,116 39,149 144,149l181 0c117,0 142,-33 142,-143l-97 0zm155 143l339 0 0 -85 -241 0 0 -343 -98 0 0 428 0 0zm514 -428l-98 0 0 428 98 0 0 -428zm84 0l0 428 91 0 0 -338 13 0 137 338 136 0 136 -338 12 0 0 338 91 0 0 -428 -175 0 -130 343 -6 0 -130 -343 -175 0 0 0 0 0zm778 84l195 0c27,0 39,13 39,39 0,33 -12,52 -39,52l-195 0 0 -91zm-90 344l304 0c91,0 130,-33 130,-124 0,-64 -25,-84 -64,-97 32,-12 51,-26 51,-98 0,-77 -51,-109 -136,-109l-285 0 0 428 0 0 0 0zm90 -175l195 0c52,0 58,12 58,45 0,39 -6,52 -58,52l-195 0 0 -97zm416 175l409 0 0 -78 -312 0 0 -97 298 0 0 -78 -298 0 0 -91 312 0 0 -84 -409 0 0 428 0 0 0 0zm565 -338l200 0c39,0 53,19 53,66 0,45 -14,64 -53,64l-200 0 0 -130 0 0 0 0zm356 338l0 -85c0,-45 -26,-64 -65,-78 26,-19 59,-45 59,-109 0,-124 -59,-156 -142,-156l-300 0 0 428 92 0 0 -124 188 0c51,0 71,20 71,58l0 66 97 0 0 0zm-1933 253l110 0c13,0 19,6 19,26 0,13 -6,25 -19,25l-110 0 0 -51zm-52 195l169 0c51,0 78,-20 78,-72 0,-39 -14,-45 -39,-58 19,-6 25,-14 25,-53 0,-45 -25,-58 -71,-58l-162 0 0 241 0 0zm52 -105l110 0c26,0 32,14 32,33 0,19 -6,26 -32,26l-110 0 0 -59zm234 105l51 0 0 -59 -51 0 0 59zm298 -85c0,26 -14,32 -45,32l-66 0c-32,0 -45,-6 -45,-38l0 -59c0,-39 6,-45 45,-45l66 0c31,0 45,12 45,32l52 0c0,-65 -33,-78 -85,-78l-90 0c-66,0 -85,19 -85,85l0 71c0,65 19,85 85,85l97 0c65,0 78,-20 78,-85l-52 0 0 0zm91 85l51 0 0 -59 -51 0 0 59z"/>
  <path class="fil0" d="M679 1198c12,0 19,6 25,6 14,0 14,14 14,20 0,39 -14,149 -14,181 -6,19 -6,27 -19,33 -6,0 -14,0 -20,0 0,6 0,13 0,13 6,0 26,0 53,0 19,0 39,0 45,0 0,0 0,-7 0,-13 -14,0 -20,0 -26,0 -13,-6 -13,-14 -13,-33 0,-32 6,-129 6,-168 0,0 0,0 7,0 12,39 71,181 78,214 6,0 12,0 12,0 14,-39 78,-188 91,-214 0,0 0,0 0,0 0,39 6,148 6,181 0,6 -6,14 -12,20 -7,0 -13,0 -19,0 -7,6 -7,13 0,13 6,0 25,0 51,0 19,0 39,0 52,0 0,0 0,-7 0,-13 -13,0 -19,0 -25,0 -8,-6 -14,-14 -14,-26 0,-33 -6,-169 -6,-194 0,-8 6,-14 12,-14 8,-6 14,-6 27,-6 0,0 0,-13 0,-13 -19,0 -33,0 -72,0 0,6 0,13 -6,25 -13,39 -71,163 -78,175 0,0 0,0 0,0 -7,-12 -52,-116 -71,-175 -6,-6 -6,-12 -14,-25 -39,0 -58,0 -70,0 0,0 0,13 0,13l0 0zm415 0c13,0 19,0 25,6 7,0 13,6 13,20 0,19 0,45 0,84 0,52 0,97 0,110 -6,6 -6,14 -19,20 0,0 -6,0 -19,0 0,6 0,13 0,13 13,0 32,0 58,0 19,0 39,0 52,0 0,0 0,-7 0,-13 -13,0 -19,0 -27,0 -12,-6 -12,-14 -12,-26 0,-13 0,-58 0,-97 0,-39 0,-72 0,-91 0,-14 6,-20 12,-20 8,-6 14,-6 20,-6 0,0 0,-13 0,-13 -12,0 -26,0 -51,0 -20,0 -39,0 -52,0 0,0 0,13 0,13l0 0zm214 0c7,0 13,0 19,6 13,0 13,6 13,20 0,13 0,39 0,84 0,58 0,97 0,110 0,14 0,14 -13,20 -6,0 -12,0 -25,0 0,6 0,13 0,13 6,0 38,0 58,0 19,0 91,0 111,0 12,0 19,0 19,0 6,-13 20,-58 20,-78 0,0 -8,0 -14,0 -6,20 -13,32 -19,45 -14,14 -20,14 -26,14 -19,6 -58,6 -66,0 -6,0 -6,-8 -6,-14 -6,-19 -6,-52 -6,-103 6,-46 6,-78 6,-97 0,-8 0,-14 6,-14 8,-6 14,-6 20,-6 7,0 7,-13 0,-13 -6,0 -20,0 -45,0 -27,0 -39,0 -52,0 0,0 0,13 0,13l0 0zm279 240c0,6 0,13 0,13 6,0 20,0 45,0 20,0 39,0 45,0 8,0 8,-7 8,-13 -14,0 -20,0 -20,0 -13,-6 -13,-6 -13,-20 0,-6 13,-45 19,-64 0,-7 0,-7 6,-7l66 0c6,0 6,0 6,7 6,19 20,51 26,70 0,8 0,8 -6,14 -6,0 -14,0 -20,0 -6,6 -6,13 0,13 6,0 33,0 52,0 13,0 39,0 45,0 0,0 7,-7 0,-13 -25,0 -32,-6 -38,-33 -14,-39 -59,-168 -65,-195 -7,-6 -7,-19 -7,-25 -6,0 -6,0 -12,0 -14,0 -14,0 -20,0 0,6 0,19 -7,25 -6,27 -45,137 -65,189 -13,33 -19,39 -45,39l0 0zm123 -208c6,19 26,65 33,91 0,6 0,6 0,6 -7,0 -19,0 -33,0 -13,0 -25,0 -25,0 -8,0 -8,0 -8,0 8,-26 27,-71 33,-97 0,0 0,0 0,0zm220 -32c14,0 20,6 33,6 6,6 6,20 6,26 0,91 0,155 0,182 -6,12 -6,20 -19,26 -6,0 -12,0 -20,0 0,6 0,13 0,13 8,0 27,0 47,0 25,0 45,0 51,0 0,0 0,-7 0,-13 -6,0 -20,0 -26,0 -6,-6 -13,-14 -13,-26 0,-27 0,-124 0,-169 0,0 0,0 0,0 27,33 136,175 155,208 8,0 20,0 27,0 0,-13 0,-39 0,-58 0,-78 0,-137 0,-169 6,-14 6,-20 20,-20 0,-6 6,-6 12,-6 0,0 0,-13 0,-13 -6,0 -26,0 -39,0 -26,0 -45,0 -51,0 -7,0 -7,13 0,13 6,0 19,0 25,6 14,0 14,6 14,20 0,32 0,110 0,175 0,0 0,0 0,0 -20,-26 -98,-136 -144,-189 -6,-12 -12,-19 -12,-25 0,0 -7,0 -19,0 -20,0 -39,0 -47,0 -6,0 -6,13 0,13zm514 259c39,0 78,-19 103,-52 13,-26 26,-51 26,-90 0,-72 -45,-136 -123,-136 -39,0 -84,25 -104,58 -19,19 -26,45 -26,78 0,39 7,78 32,103 20,26 53,39 92,39l0 0 0 0zm12 -19c-20,0 -32,0 -51,-14 -33,-25 -46,-70 -46,-116 0,-45 13,-84 38,-104 14,-6 27,-6 39,-6 20,0 39,6 53,12 33,27 45,72 45,117 0,39 -12,78 -32,97 -13,8 -27,14 -46,14l0 0z"/>
 </g>
</svg>
