<?xml version="1.0" encoding="UTF-8"?>
<!DOCTYPE svg PUBLIC "-//W3C//DTD SVG 1.1//EN" "http://www.w3.org/Graphics/SVG/1.1/DTD/svg11.dtd">
<!-- Creator: CorelDRAW X7 -->
<svg xmlns="http://www.w3.org/2000/svg" xml:space="preserve" width="42.7937mm" height="15.878mm" version="1.1" style="shape-rendering:geometricPrecision; text-rendering:geometricPrecision; image-rendering:optimizeQuality; fill-rule:evenodd; clip-rule:evenodd"
viewBox="0 0 7582 2813"
 xmlns:xlink="http://www.w3.org/1999/xlink">
 <defs>
  <style type="text/css">
   <![CDATA[
    .str0 {stroke:#FEFEFE;stroke-width:44.2951}
    .fil0 {fill:none;fill-rule:nonzero}
    .fil1 {fill:#2B2A29;fill-rule:nonzero}
   ]]>
  </style>
 </defs>
 <g id="Слой_x0020_1">
  <metadata id="CorelCorpID_0Corel-Layer"/>
  <g>
   <path class="fil0 str0" d="M1765 147l-61 497 140 0 61 -497 145 0 16 -125 -431 0 -15 125 145 0zm381 -125l-76 622 138 0 24 -203 59 0c159,0 248,-100 248,-247 0,-100 -51,-172 -175,-172l-218 0zm152 295l-50 0 21 -171 59 0c36,0 65,19 65,64 0,64 -36,107 -95,107zm776 447l38 -245 -88 0 61 -497 -140 0 -62 497 -158 0 62 -497 -141 0 -77 622 401 0 -10 120 114 0zm808 0l39 -245 -89 0 62 -497 -384 0c-13,103 -28,190 -52,273 -22,78 -52,150 -96,224l-70 0 -28 245 115 0 22 -120 378 0 -10 120 113 0zm-254 -616l111 0 -45 371 -179 0c26,-50 49,-106 67,-166 21,-66 35,-136 46,-205zm720 178c1,-80 -77,-118 -146,-118 -145,0 -235,119 -235,265 -1,111 71,179 179,179 84,0 141,-31 187,-94l-99 -57c-23,31 -49,43 -78,43 -25,0 -53,-16 -61,-55 126,-13 252,-54 253,-163zm-126 19c-1,42 -59,58 -123,65 15,-59 54,-93 92,-93 20,0 32,10 31,28zm213 -129l-53 428 131 0 20 -158c14,-107 70,-161 109,-161 28,0 33,28 26,87l-31 232 130 0 34 -262c16,-120 -17,-174 -99,-174 -55,0 -103,24 -141,68l-2 -1 7 -59 -131 0zm610 436c164,0 238,-122 238,-261 0,-116 -72,-183 -183,-183 -151,0 -236,123 -236,260 0,118 72,184 181,184zm10 -117c-28,0 -58,-23 -58,-74 0,-66 35,-136 93,-136 23,0 60,13 60,75 0,70 -38,135 -95,135zm328 -319l-52 428 131 0 20 -167c13,-100 70,-152 98,-152 30,0 32,28 24,87l-31 232 131 0 21 -157c14,-109 70,-162 100,-162 27,0 31,28 24,87l-31 232 130 0 34 -256c16,-124 -15,-180 -99,-180 -60,0 -107,22 -144,65l-4 0c-13,-45 -44,-65 -93,-65 -50,0 -95,22 -131,62l-3 -1 7 -53 -132 0zm-5304 1558l103 -48c-28,-74 -42,-158 -42,-249 0,-160 46,-331 128,-463l-87 -38c-105,138 -159,335 -159,517 0,107 19,202 57,281zm488 -370l0 -2c43,-15 82,-45 82,-96 0,-75 -77,-111 -161,-111 -157,0 -242,122 -242,264 0,113 60,180 194,180 107,0 199,-49 199,-142 0,-41 -25,-78 -72,-93zm-130 -24l-62 13c16,-58 59,-95 99,-95 22,0 38,12 38,32 0,28 -38,42 -75,50zm9 154c-40,0 -69,-18 -75,-69l52 -8c49,-9 86,-6 86,32 0,36 -39,45 -63,45zm673 -332l-131 0 -24 196c-7,61 -59,123 -97,123 -31,0 -37,-22 -28,-92l32 -227 -131 0 -37 267c-18,127 29,170 110,170 53,0 95,-27 127,-70l3 1 0 1c-16,113 -60,134 -119,134 -35,0 -71,-10 -107,-34l-41 99c50,31 104,42 155,42 109,0 219,-45 242,-239l46 -371zm469 0l-188 0c-86,0 -136,49 -152,128 -6,35 -13,65 -18,90 -14,62 -35,104 -67,104 -5,0 -14,-1 -22,-3l-21 106c17,7 40,10 59,10 79,0 136,-49 162,-151 13,-50 23,-94 32,-131 6,-28 19,-44 52,-44l19 0 -39 320 130 0 53 -429zm119 439c48,0 79,-34 79,-79 0,-43 -29,-75 -76,-75 -47,0 -78,33 -78,77 0,44 29,77 75,77zm402 -632l-76 622 141 0 62 -497 232 0 15 -125 -374 0zm507 630c164,0 238,-122 238,-261 0,-117 -72,-183 -183,-183 -151,0 -236,122 -236,260 0,117 72,184 181,184zm10 -118c-28,0 -58,-22 -58,-73 0,-66 35,-136 93,-136 23,0 60,13 60,74 0,71 -38,135 -95,135zm696 -319l-188 0c-86,0 -136,49 -152,128 -6,35 -13,65 -18,90 -14,62 -34,104 -67,104 -5,0 -14,-1 -22,-3l-21 106c17,7 40,10 59,10 79,0 136,-49 162,-151 13,-50 23,-94 32,-131 7,-28 19,-44 52,-44l19 0 -39 320 131 0 52 -429zm228 437c164,0 238,-122 238,-261 0,-117 -72,-183 -183,-183 -151,0 -236,122 -236,260 0,117 72,184 181,184zm10 -118c-28,0 -58,-22 -58,-73 0,-66 35,-136 93,-136 23,0 60,13 60,74 0,71 -38,135 -95,135zm596 -117l0 -2c43,-15 82,-45 82,-96 0,-75 -76,-111 -160,-111 -158,0 -242,122 -242,264 0,113 59,180 193,180 107,0 199,-49 199,-142 0,-41 -25,-78 -72,-93zm-130 -24l-62 13c16,-58 59,-95 99,-95 22,0 38,12 38,32 0,28 -38,42 -75,50zm9 154c-40,0 -69,-18 -75,-69l52 -8c49,-9 87,-6 87,32 0,36 -40,45 -64,45zm681 -332l-131 0 -20 166 -119 1 20 -167 -132 0 -52 429 131 0 19 -156 120 0 -20 156 132 0 52 -429zm184 437c49,0 91,-26 123,-72l3 1 -8 63 132 0 53 -429 -133 0 -3 30 -3 0c-23,-23 -56,-37 -101,-37 -112,0 -202,116 -202,269 0,99 47,175 139,175zm42 -117c-29,0 -49,-27 -49,-68 0,-64 35,-142 93,-142 27,0 52,11 71,31l-2 12c-14,108 -67,167 -113,167zm308 -8l-52 234 93 0 89 -234 -130 0zm348 28l-8 89 362 0 16 -124 -177 0 0 -1 96 -99c70,-73 117,-141 117,-232 0,-97 -74,-154 -160,-154 -89,0 -162,49 -201,112l92 74c24,-39 60,-60 87,-60 28,0 42,19 42,47 0,56 -47,111 -87,154l-179 194zm621 97c140,0 225,-103 225,-242 0,-103 -62,-153 -133,-153 -34,0 -69,11 -101,30l-1 -1c37,-67 101,-116 196,-153l-22 -109c-209,44 -339,231 -339,433 0,126 73,195 175,195zm11 -120c-39,0 -60,-39 -60,-90 0,-12 1,-23 3,-36 22,-25 55,-42 81,-42 41,0 59,23 59,63 0,57 -37,105 -83,105zm461 -366l188 0 15 -124 -305 0 -57 322 70 28c20,-15 49,-31 82,-31 31,0 53,20 53,62 0,56 -32,106 -93,106 -30,0 -56,-18 -71,-51l-104 76c40,68 105,98 180,98 132,0 226,-96 226,-237 0,-102 -57,-161 -142,-161 -15,0 -37,3 -59,9l17 -97zm380 486c48,0 91,-26 123,-72l2 1 -8 63 133 0 52 -429 -132 0 -4 30 -2 0c-23,-23 -56,-37 -101,-37 -112,0 -202,116 -202,269 0,99 47,175 139,175zm42 -117c-30,0 -49,-27 -49,-68 0,-64 35,-142 93,-142 27,0 51,11 71,31l-2 12c-15,108 -68,167 -113,167zm307 -8l-51 234 93 0 88 -234 -130 0zm-5032 502l-109 0 -188 132 56 104 82 -61 -52 427 137 0 74 -602zm248 173l-53 429 131 0 20 -159c14,-107 70,-160 109,-160 28,0 33,27 26,86l-31 233 130 0 34 -262c16,-120 -17,-175 -99,-175 -55,0 -103,24 -141,69l-2 -1 7 -60 -131 0zm610 437c164,0 238,-122 238,-262 0,-116 -72,-183 -183,-183 -151,0 -236,123 -236,260 0,118 72,185 181,185zm10 -118c-28,0 -58,-23 -58,-74 0,-65 35,-135 93,-135 23,0 60,13 60,74 0,70 -38,135 -95,135zm596 -117l0 -2c43,-15 82,-46 82,-96 0,-75 -76,-112 -161,-112 -157,0 -241,123 -241,265 0,113 59,180 193,180 107,0 199,-50 199,-142 0,-42 -25,-78 -72,-93zm-130 -24l-62 13c16,-59 59,-95 99,-95 22,0 38,12 38,31 0,28 -38,42 -75,51zm9 153c-40,0 -69,-17 -75,-68l52 -9c49,-9 86,-5 86,33 0,36 -39,44 -63,44zm628 -220c1,-81 -77,-119 -147,-119 -144,0 -234,119 -234,265 -1,111 71,180 178,180 84,0 141,-32 187,-94l-98 -58c-24,31 -49,43 -78,43 -26,0 -54,-16 -61,-54 126,-14 251,-55 253,-163zm-126 18c-1,42 -59,59 -123,66 15,-60 53,-93 91,-93 20,0 32,9 32,27zm213 -129l-75 602 131 0 24 -194 4 0c26,20 59,29 100,29 114,0 205,-117 205,-269 0,-98 -47,-176 -136,-176 -55,0 -97,28 -129,74l-1 -2 8 -64 -131 0zm149 320c-23,0 -45,-9 -58,-26l1 -12c15,-112 69,-173 117,-173 30,0 48,30 48,72 0,71 -38,139 -108,139zm391 -114l-156 223 142 0 74 -108 2 0 45 108 140 0 -103 -216 155 -213 -149 0 -64 104 -1 0 -39 -104 -146 0 100 206zm272 323l87 38c106,-143 158,-335 158,-518 0,-107 -18,-203 -58,-279l-101 46c27,74 41,159 41,250 0,158 -45,328 -127,463z"/>
   <path id="1" class="fil1" d="M1765 147l-61 497 140 0 61 -497 145 0 16 -125 -431 0 -15 125 145 0zm381 -125l-76 622 138 0 24 -203 59 0c159,0 248,-100 248,-247 0,-100 -51,-172 -175,-172l-218 0zm152 295l-50 0 21 -171 59 0c36,0 65,19 65,64 0,64 -36,107 -95,107zm776 447l38 -245 -88 0 61 -497 -140 0 -62 497 -158 0 62 -497 -141 0 -77 622 401 0 -10 120 114 0zm808 0l39 -245 -89 0 62 -497 -384 0c-13,103 -28,190 -52,273 -22,78 -52,150 -96,224l-70 0 -28 245 115 0 22 -120 378 0 -10 120 113 0zm-254 -616l111 0 -45 371 -179 0c26,-50 49,-106 67,-166 21,-66 35,-136 46,-205zm720 178c1,-80 -77,-118 -146,-118 -145,0 -235,119 -235,265 -1,111 71,179 179,179 84,0 141,-31 187,-94l-99 -57c-23,31 -49,43 -78,43 -25,0 -53,-16 -61,-55 126,-13 252,-54 253,-163zm-126 19c-1,42 -59,58 -123,65 15,-59 54,-93 92,-93 20,0 32,10 31,28zm213 -129l-53 428 131 0 20 -158c14,-107 70,-161 109,-161 28,0 33,28 26,87l-31 232 130 0 34 -262c16,-120 -17,-174 -99,-174 -55,0 -103,24 -141,68l-2 -1 7 -59 -131 0zm610 436c164,0 238,-122 238,-261 0,-116 -72,-183 -183,-183 -151,0 -236,123 -236,260 0,118 72,184 181,184zm10 -117c-28,0 -58,-23 -58,-74 0,-66 35,-136 93,-136 23,0 60,13 60,75 0,70 -38,135 -95,135zm328 -319l-52 428 131 0 20 -167c13,-100 70,-152 98,-152 30,0 32,28 24,87l-31 232 131 0 21 -157c14,-109 70,-162 100,-162 27,0 31,28 24,87l-31 232 130 0 34 -256c16,-124 -15,-180 -99,-180 -60,0 -107,22 -144,65l-4 0c-13,-45 -44,-65 -93,-65 -50,0 -95,22 -131,62l-3 -1 7 -53 -132 0zm-5304 1558l103 -48c-28,-74 -42,-158 -42,-249 0,-160 46,-331 128,-463l-87 -38c-105,138 -159,335 -159,517 0,107 19,202 57,281zm488 -370l0 -2c43,-15 82,-45 82,-96 0,-75 -77,-111 -161,-111 -157,0 -242,122 -242,264 0,113 60,180 194,180 107,0 199,-49 199,-142 0,-41 -25,-78 -72,-93zm-130 -24l-62 13c16,-58 59,-95 99,-95 22,0 38,12 38,32 0,28 -38,42 -75,50zm9 154c-40,0 -69,-18 -75,-69l52 -8c49,-9 86,-6 86,32 0,36 -39,45 -63,45zm673 -332l-131 0 -24 196c-7,61 -59,123 -97,123 -31,0 -37,-22 -28,-92l32 -227 -131 0 -37 267c-18,127 29,170 110,170 53,0 95,-27 127,-70l3 1 0 1c-16,113 -60,134 -119,134 -35,0 -71,-10 -107,-34l-41 99c50,31 104,42 155,42 109,0 219,-45 242,-239l46 -371zm469 0l-188 0c-86,0 -136,49 -152,128 -6,35 -13,65 -18,90 -14,62 -35,104 -67,104 -5,0 -14,-1 -22,-3l-21 106c17,7 40,10 59,10 79,0 136,-49 162,-151 13,-50 23,-94 32,-131 6,-28 19,-44 52,-44l19 0 -39 320 130 0 53 -429zm119 439c48,0 79,-34 79,-79 0,-43 -29,-75 -76,-75 -47,0 -78,33 -78,77 0,44 29,77 75,77zm402 -632l-76 622 141 0 62 -497 232 0 15 -125 -374 0zm507 630c164,0 238,-122 238,-261 0,-117 -72,-183 -183,-183 -151,0 -236,122 -236,260 0,117 72,184 181,184zm10 -118c-28,0 -58,-22 -58,-73 0,-66 35,-136 93,-136 23,0 60,13 60,74 0,71 -38,135 -95,135zm696 -319l-188 0c-86,0 -136,49 -152,128 -6,35 -13,65 -18,90 -14,62 -34,104 -67,104 -5,0 -14,-1 -22,-3l-21 106c17,7 40,10 59,10 79,0 136,-49 162,-151 13,-50 23,-94 32,-131 7,-28 19,-44 52,-44l19 0 -39 320 131 0 52 -429zm228 437c164,0 238,-122 238,-261 0,-117 -72,-183 -183,-183 -151,0 -236,122 -236,260 0,117 72,184 181,184zm10 -118c-28,0 -58,-22 -58,-73 0,-66 35,-136 93,-136 23,0 60,13 60,74 0,71 -38,135 -95,135zm596 -117l0 -2c43,-15 82,-45 82,-96 0,-75 -76,-111 -160,-111 -158,0 -242,122 -242,264 0,113 59,180 193,180 107,0 199,-49 199,-142 0,-41 -25,-78 -72,-93zm-130 -24l-62 13c16,-58 59,-95 99,-95 22,0 38,12 38,32 0,28 -38,42 -75,50zm9 154c-40,0 -69,-18 -75,-69l52 -8c49,-9 87,-6 87,32 0,36 -40,45 -64,45zm681 -332l-131 0 -20 166 -119 1 20 -167 -132 0 -52 429 131 0 19 -156 120 0 -20 156 132 0 52 -429zm184 437c49,0 91,-26 123,-72l3 1 -8 63 132 0 53 -429 -133 0 -3 30 -3 0c-23,-23 -56,-37 -101,-37 -112,0 -202,116 -202,269 0,99 47,175 139,175zm42 -117c-29,0 -49,-27 -49,-68 0,-64 35,-142 93,-142 27,0 52,11 71,31l-2 12c-14,108 -67,167 -113,167zm308 -8l-52 234 93 0 89 -234 -130 0zm348 28l-8 89 362 0 16 -124 -177 0 0 -1 96 -99c70,-73 117,-141 117,-232 0,-97 -74,-154 -160,-154 -89,0 -162,49 -201,112l92 74c24,-39 60,-60 87,-60 28,0 42,19 42,47 0,56 -47,111 -87,154l-179 194zm621 97c140,0 225,-103 225,-242 0,-103 -62,-153 -133,-153 -34,0 -69,11 -101,30l-1 -1c37,-67 101,-116 196,-153l-22 -109c-209,44 -339,231 -339,433 0,126 73,195 175,195zm11 -120c-39,0 -60,-39 -60,-90 0,-12 1,-23 3,-36 22,-25 55,-42 81,-42 41,0 59,23 59,63 0,57 -37,105 -83,105zm461 -366l188 0 15 -124 -305 0 -57 322 70 28c20,-15 49,-31 82,-31 31,0 53,20 53,62 0,56 -32,106 -93,106 -30,0 -56,-18 -71,-51l-104 76c40,68 105,98 180,98 132,0 226,-96 226,-237 0,-102 -57,-161 -142,-161 -15,0 -37,3 -59,9l17 -97zm380 486c48,0 91,-26 123,-72l2 1 -8 63 133 0 52 -429 -132 0 -4 30 -2 0c-23,-23 -56,-37 -101,-37 -112,0 -202,116 -202,269 0,99 47,175 139,175zm42 -117c-30,0 -49,-27 -49,-68 0,-64 35,-142 93,-142 27,0 51,11 71,31l-2 12c-15,108 -68,167 -113,167zm307 -8l-51 234 93 0 88 -234 -130 0zm-5032 502l-109 0 -188 132 56 104 82 -61 -52 427 137 0 74 -602zm248 173l-53 429 131 0 20 -159c14,-107 70,-160 109,-160 28,0 33,27 26,86l-31 233 130 0 34 -262c16,-120 -17,-175 -99,-175 -55,0 -103,24 -141,69l-2 -1 7 -60 -131 0zm610 437c164,0 238,-122 238,-262 0,-116 -72,-183 -183,-183 -151,0 -236,123 -236,260 0,118 72,185 181,185zm10 -118c-28,0 -58,-23 -58,-74 0,-65 35,-135 93,-135 23,0 60,13 60,74 0,70 -38,135 -95,135zm596 -117l0 -2c43,-15 82,-46 82,-96 0,-75 -76,-112 -161,-112 -157,0 -241,123 -241,265 0,113 59,180 193,180 107,0 199,-50 199,-142 0,-42 -25,-78 -72,-93zm-130 -24l-62 13c16,-59 59,-95 99,-95 22,0 38,12 38,31 0,28 -38,42 -75,51zm9 153c-40,0 -69,-17 -75,-68l52 -9c49,-9 86,-5 86,33 0,36 -39,44 -63,44zm628 -220c1,-81 -77,-119 -147,-119 -144,0 -234,119 -234,265 -1,111 71,180 178,180 84,0 141,-32 187,-94l-98 -58c-24,31 -49,43 -78,43 -26,0 -54,-16 -61,-54 126,-14 251,-55 253,-163zm-126 18c-1,42 -59,59 -123,66 15,-60 53,-93 91,-93 20,0 32,9 32,27zm213 -129l-75 602 131 0 24 -194 4 0c26,20 59,29 100,29 114,0 205,-117 205,-269 0,-98 -47,-176 -136,-176 -55,0 -97,28 -129,74l-1 -2 8 -64 -131 0zm149 320c-23,0 -45,-9 -58,-26l1 -12c15,-112 69,-173 117,-173 30,0 48,30 48,72 0,71 -38,139 -108,139zm391 -114l-156 223 142 0 74 -108 2 0 45 108 140 0 -103 -216 155 -213 -149 0 -64 104 -1 0 -39 -104 -146 0 100 206zm272 323l87 38c106,-143 158,-335 158,-518 0,-107 -18,-203 -58,-279l-101 46c27,74 41,159 41,250 0,158 -45,328 -127,463z"/>
  </g>
 </g>
</svg>
