<?xml version="1.0" encoding="UTF-8"?>
<!DOCTYPE svg PUBLIC "-//W3C//DTD SVG 1.1//EN" "http://www.w3.org/Graphics/SVG/1.1/DTD/svg11.dtd">
<!-- Creator: CorelDRAW X7 -->
<svg xmlns="http://www.w3.org/2000/svg" xml:space="preserve" width="41.977mm" height="15.878mm" version="1.1" style="shape-rendering:geometricPrecision; text-rendering:geometricPrecision; image-rendering:optimizeQuality; fill-rule:evenodd; clip-rule:evenodd"
viewBox="0 0 8233 3114"
 xmlns:xlink="http://www.w3.org/1999/xlink">
 <defs>
  <style type="text/css">
   <![CDATA[
    .str0 {stroke:#FEFEFE;stroke-width:49.0312}
    .fil0 {fill:none;fill-rule:nonzero}
    .fil1 {fill:#2B2A29;fill-rule:nonzero}
   ]]>
  </style>
 </defs>
 <g id="Слой_x0020_1">
  <metadata id="CorelCorpID_0Corel-Layer"/>
  <g>
   <path class="fil0 str0" d="M2901 25l-84 688 152 0 27 -225 65 0c177,0 275,-110 275,-273 0,-111 -56,-190 -194,-190l-241 0zm168 326l-55 0 23 -190 65 0c40,0 73,22 73,71 0,71 -41,119 -106,119zm426 371c59,0 105,-31 140,-79l2 0 -6 70 143 0 58 -474 -145 0 -27 217c-8,70 -66,136 -106,136 -34,0 -42,-25 -31,-102l36 -251 -145 0 -41 295c-20,140 33,188 122,188zm866 -483l-145 0 -23 183 -132 1 23 -184 -146 0 -58 474 146 0 21 -172 132 -1 -21 173 145 0 58 -474zm251 483c182,0 264,-135 264,-289 0,-129 -80,-203 -202,-203 -167,0 -262,136 -262,288 0,130 80,204 200,204zm11 -130c-31,0 -64,-25 -64,-82 0,-72 39,-150 103,-150 26,0 67,15 67,83 0,77 -42,149 -106,149zm363 -353l-58 474 142 0 15 -126c20,-9 40,-19 58,-31l10 30c25,80 60,136 134,136 23,0 33,-1 43,-2l33 -118c-43,-3 -68,-15 -89,-83l-15 -42c66,-63 116,-142 134,-238l-150 0c-20,77 -56,147 -135,204l-2 -1 25 -203 -145 0zm-3792 1327l74 195 134 0 -74 -195 124 -199 -133 0 -125 199zm200 0l75 195 133 0 -75 -195 126 -199 -133 0 -126 199zm903 372l42 -271 -98 0 68 -550 -425 0c-14,113 -31,210 -57,301 -24,87 -57,166 -106,249l-77 0 -31 271 127 0 24 -133 418 0 -10 133 125 0zm-282 -682l124 0 -51 411 -198 0c29,-56 55,-118 74,-184 23,-73 40,-151 51,-227zm576 558c182,0 264,-135 264,-289 0,-129 -80,-203 -202,-203 -167,0 -262,136 -262,288 0,130 80,204 200,204zm11 -130c-31,0 -64,-25 -64,-81 0,-73 39,-151 103,-151 26,0 67,15 67,83 0,77 -42,149 -106,149zm520 130c181,0 263,-135 263,-289 0,-116 -75,-190 -175,-190 -63,0 -112,39 -141,77l-2 -1c23,-101 69,-151 150,-163 67,-11 125,-13 182,-53l-26 -120c-50,27 -119,34 -175,43 -191,32 -277,219 -277,444 0,148 66,252 201,252zm12 -130c-33,0 -67,-26 -67,-95 0,-65 41,-123 101,-123 25,0 69,12 69,82 0,74 -43,136 -103,136zm360 -353l-83 666 146 0 26 -214 4 -1c29,22 66,32 110,32 127,0 227,-129 227,-298 0,-107 -51,-194 -150,-194 -60,0 -108,31 -143,82l-1 -2 9 -71 -145 0zm164 354c-25,0 -49,-10 -64,-29l1 -13c18,-124 77,-192 130,-192 33,0 54,34 54,80 0,78 -42,154 -121,154zm521 129c182,0 264,-135 264,-289 0,-129 -80,-203 -203,-203 -166,0 -261,136 -261,288 0,130 80,204 200,204zm11 -130c-31,0 -64,-25 -64,-81 0,-73 39,-151 103,-151 26,0 67,15 67,83 0,77 -42,149 -106,149zm520 130c181,0 263,-135 263,-289 0,-116 -75,-190 -175,-190 -63,0 -112,39 -141,77l-2 -1c23,-101 68,-151 150,-163 67,-11 125,-13 181,-53l-25 -120c-50,27 -119,34 -175,43 -192,32 -277,219 -277,444 0,148 66,252 201,252zm12 -130c-33,0 -67,-26 -67,-95 0,-65 41,-123 100,-123 26,0 70,12 70,82 0,74 -43,136 -103,136zm772 -353l-144 0 -28 216c-7,68 -65,137 -106,137 -35,0 -42,-25 -31,-102l35 -251 -145 0 -41 295c-20,141 32,188 122,188 59,0 105,-30 140,-78l3 1 0 1c-17,127 -66,149 -131,149 -39,0 -78,-11 -118,-37l-46 110c56,34 115,46 172,46 120,0 242,-50 268,-265l50 -410zm105 0l-58 474 146 0 22 -185c14,-110 77,-168 109,-168 33,0 35,30 26,96l-34 257 144 0 24 -174c15,-121 77,-179 110,-179 30,0 35,30 27,96l-34 257 144 0 37 -284c18,-137 -16,-199 -110,-199 -66,0 -118,25 -159,72l-5 0c-13,-49 -48,-72 -102,-72 -56,0 -105,25 -145,69l-4 -1 8 -59 -146 0zm820 235l-124 195 136 0 122 -195 -76 -199 -135 0 77 199zm204 0l-125 195 135 0 123 -195 -76 -199 -134 0 77 199zm195 109l-58 259 103 0 98 -259 -143 0zm-6593 1231c91,0 156,-36 206,-104l-113 -71c-28,34 -55,45 -82,45 -40,0 -65,-31 -65,-82 0,-80 45,-151 110,-151 27,0 51,12 67,42l111 -83c-39,-56 -98,-88 -182,-88 -164,0 -252,140 -252,286 0,134 77,206 200,206zm680 -361c1,-89 -85,-131 -162,-131 -160,0 -260,132 -260,293 -1,124 79,199 198,199 93,0 156,-35 207,-104l-109 -64c-26,35 -54,48 -86,48 -28,0 -59,-18 -68,-60 140,-15 278,-60 280,-181zm-139 21c-1,46 -65,65 -136,73 16,-66 59,-103 101,-103 22,0 36,10 35,30zm234 -143l-58 475 143 0 14 -127c21,-8 40,-19 58,-31l10 30c25,80 60,136 134,136 23,0 33,-1 44,-2l33 -118c-43,-3 -68,-15 -90,-82l-14 -42c66,-63 115,-143 134,-239l-151 0c-19,78 -56,148 -134,204l-2 -1 25 -203 -146 0zm521 485c54,0 87,-37 87,-87 0,-48 -32,-83 -84,-83 -52,0 -86,36 -86,86 0,48 32,84 83,84zm526 -2c131,0 233,-83 233,-217 0,-64 -27,-110 -75,-135l0 -1c58,-37 94,-100 94,-176 0,-101 -72,-154 -177,-154 -89,0 -170,46 -207,123l114 68c18,-33 42,-57 78,-57 26,0 47,20 47,51 0,43 -28,89 -80,89l-39 0 -13 119 44 0c43,0 60,24 60,56 0,57 -32,100 -81,100 -36,0 -59,-22 -64,-69l-138 48c19,87 90,155 204,155zm298 -138l-58 259 103 0 98 -259 -143 0zm456 -345l-83 667 146 0 26 -215 4 -1c29,23 66,32 110,32 127,0 227,-129 227,-298 0,-107 -51,-194 -150,-194 -60,0 -108,32 -143,82l-1 -2 9 -71 -145 0zm164 354c-25,0 -49,-9 -64,-29l1 -12c18,-125 77,-193 130,-193 33,0 54,34 54,80 0,79 -42,154 -121,154zm752 -354l-204 0c-125,1 -215,55 -215,174 0,36 17,82 59,108l-1 2c-36,63 -56,76 -98,79l3 118c10,1 32,2 50,2 77,0 119,-49 162,-136l12 -27 50 0 -20 155 144 0 58 -475zm-171 224l-41 1c-36,0 -62,-12 -62,-47 0,-41 33,-59 74,-59l42 0 -13 105zm425 259c181,0 267,-165 270,-390 2,-160 -50,-339 -318,-342l-28 121c31,2 64,5 92,14 71,20 100,60 106,151l0 2c-31,-24 -64,-34 -101,-34 -120,0 -224,115 -224,269 0,127 75,209 203,209zm7 -129c-29,0 -64,-22 -64,-86 0,-69 44,-140 109,-140 22,0 48,7 69,27 -10,114 -54,199 -114,199zm1069 -546l-375 0 -17 136 209 0 -237 519 149 27 259 -584 12 -98zm-45 537l-57 259 103 0 98 -259 -144 0zm454 -345l-58 475 140 0 31 -251 2 0 49 168 94 0 91 -165 2 0 -32 248 141 0 59 -475 -150 0 -137 256 -2 0 -79 -256 -151 0zm722 483c53,0 101,-29 136,-79l3 1 -9 70 146 0 59 -475 -147 0 -4 33 -3 0c-25,-26 -62,-42 -111,-42 -124,0 -224,129 -224,298 0,110 52,194 154,194zm46 -129c-32,0 -54,-30 -54,-75 0,-71 39,-158 103,-158 30,0 57,12 79,34l-2 14c-17,119 -75,185 -126,185zm481 129c92,0 158,-28 210,-87l-107 -79c-24,29 -58,49 -90,49 -15,0 -31,-6 -31,-22 0,-15 12,-26 50,-45l69 -37c63,-32 118,-71 118,-150 0,-84 -76,-121 -161,-121 -61,0 -138,27 -177,59l77 100c29,-26 58,-39 82,-39 20,0 33,5 33,19 0,20 -13,27 -52,47l-55 29c-83,42 -132,87 -131,161 1,74 59,116 165,116zm344 2c53,0 87,-37 87,-87 0,-48 -32,-83 -84,-83 -53,0 -86,36 -86,86 0,48 32,84 83,84zm693 -677l-121 0 -207 147 62 115 91 -68 -58 473 152 0 81 -667zm463 0l-375 0 -17 136 209 0 -237 519 150 27 258 -584 12 -98z"/>
   <path id="1" class="fil1" d="M2901 25l-84 688 152 0 27 -225 65 0c177,0 275,-110 275,-273 0,-111 -56,-190 -194,-190l-241 0zm168 326l-55 0 23 -190 65 0c40,0 73,22 73,71 0,71 -41,119 -106,119zm426 371c59,0 105,-31 140,-79l2 0 -6 70 143 0 58 -474 -145 0 -27 217c-8,70 -66,136 -106,136 -34,0 -42,-25 -31,-102l36 -251 -145 0 -41 295c-20,140 33,188 122,188zm866 -483l-145 0 -23 183 -132 1 23 -184 -146 0 -58 474 146 0 21 -172 132 -1 -21 173 145 0 58 -474zm251 483c182,0 264,-135 264,-289 0,-129 -80,-203 -202,-203 -167,0 -262,136 -262,288 0,130 80,204 200,204zm11 -130c-31,0 -64,-25 -64,-82 0,-72 39,-150 103,-150 26,0 67,15 67,83 0,77 -42,149 -106,149zm363 -353l-58 474 142 0 15 -126c20,-9 40,-19 58,-31l10 30c25,80 60,136 134,136 23,0 33,-1 43,-2l33 -118c-43,-3 -68,-15 -89,-83l-15 -42c66,-63 116,-142 134,-238l-150 0c-20,77 -56,147 -135,204l-2 -1 25 -203 -145 0zm-3792 1327l74 195 134 0 -74 -195 124 -199 -133 0 -125 199zm200 0l75 195 133 0 -75 -195 126 -199 -133 0 -126 199zm903 372l42 -271 -98 0 68 -550 -425 0c-14,113 -31,210 -57,301 -24,87 -57,166 -106,249l-77 0 -31 271 127 0 24 -133 418 0 -10 133 125 0zm-282 -682l124 0 -51 411 -198 0c29,-56 55,-118 74,-184 23,-73 40,-151 51,-227zm576 558c182,0 264,-135 264,-289 0,-129 -80,-203 -202,-203 -167,0 -262,136 -262,288 0,130 80,204 200,204zm11 -130c-31,0 -64,-25 -64,-81 0,-73 39,-151 103,-151 26,0 67,15 67,83 0,77 -42,149 -106,149zm520 130c181,0 263,-135 263,-289 0,-116 -75,-190 -175,-190 -63,0 -112,39 -141,77l-2 -1c23,-101 69,-151 150,-163 67,-11 125,-13 182,-53l-26 -120c-50,27 -119,34 -175,43 -191,32 -277,219 -277,444 0,148 66,252 201,252zm12 -130c-33,0 -67,-26 -67,-95 0,-65 41,-123 101,-123 25,0 69,12 69,82 0,74 -43,136 -103,136zm360 -353l-83 666 146 0 26 -214 4 -1c29,22 66,32 110,32 127,0 227,-129 227,-298 0,-107 -51,-194 -150,-194 -60,0 -108,31 -143,82l-1 -2 9 -71 -145 0zm164 354c-25,0 -49,-10 -64,-29l1 -13c18,-124 77,-192 130,-192 33,0 54,34 54,80 0,78 -42,154 -121,154zm521 129c182,0 264,-135 264,-289 0,-129 -80,-203 -203,-203 -166,0 -261,136 -261,288 0,130 80,204 200,204zm11 -130c-31,0 -64,-25 -64,-81 0,-73 39,-151 103,-151 26,0 67,15 67,83 0,77 -42,149 -106,149zm520 130c181,0 263,-135 263,-289 0,-116 -75,-190 -175,-190 -63,0 -112,39 -141,77l-2 -1c23,-101 68,-151 150,-163 67,-11 125,-13 181,-53l-25 -120c-50,27 -119,34 -175,43 -192,32 -277,219 -277,444 0,148 66,252 201,252zm12 -130c-33,0 -67,-26 -67,-95 0,-65 41,-123 100,-123 26,0 70,12 70,82 0,74 -43,136 -103,136zm772 -353l-144 0 -28 216c-7,68 -65,137 -106,137 -35,0 -42,-25 -31,-102l35 -251 -145 0 -41 295c-20,141 32,188 122,188 59,0 105,-30 140,-78l3 1 0 1c-17,127 -66,149 -131,149 -39,0 -78,-11 -118,-37l-46 110c56,34 115,46 172,46 120,0 242,-50 268,-265l50 -410zm105 0l-58 474 146 0 22 -185c14,-110 77,-168 109,-168 33,0 35,30 26,96l-34 257 144 0 24 -174c15,-121 77,-179 110,-179 30,0 35,30 27,96l-34 257 144 0 37 -284c18,-137 -16,-199 -110,-199 -66,0 -118,25 -159,72l-5 0c-13,-49 -48,-72 -102,-72 -56,0 -105,25 -145,69l-4 -1 8 -59 -146 0zm820 235l-124 195 136 0 122 -195 -76 -199 -135 0 77 199zm204 0l-125 195 135 0 123 -195 -76 -199 -134 0 77 199zm195 109l-58 259 103 0 98 -259 -143 0zm-6593 1231c91,0 156,-36 206,-104l-113 -71c-28,34 -55,45 -82,45 -40,0 -65,-31 -65,-82 0,-80 45,-151 110,-151 27,0 51,12 67,42l111 -83c-39,-56 -98,-88 -182,-88 -164,0 -252,140 -252,286 0,134 77,206 200,206zm680 -361c1,-89 -85,-131 -162,-131 -160,0 -260,132 -260,293 -1,124 79,199 198,199 93,0 156,-35 207,-104l-109 -64c-26,35 -54,48 -86,48 -28,0 -59,-18 -68,-60 140,-15 278,-60 280,-181zm-139 21c-1,46 -65,65 -136,73 16,-66 59,-103 101,-103 22,0 36,10 35,30zm234 -143l-58 475 143 0 14 -127c21,-8 40,-19 58,-31l10 30c25,80 60,136 134,136 23,0 33,-1 44,-2l33 -118c-43,-3 -68,-15 -90,-82l-14 -42c66,-63 115,-143 134,-239l-151 0c-19,78 -56,148 -134,204l-2 -1 25 -203 -146 0zm521 485c54,0 87,-37 87,-87 0,-48 -32,-83 -84,-83 -52,0 -86,36 -86,86 0,48 32,84 83,84zm526 -2c131,0 233,-83 233,-217 0,-64 -27,-110 -75,-135l0 -1c58,-37 94,-100 94,-176 0,-101 -72,-154 -177,-154 -89,0 -170,46 -207,123l114 68c18,-33 42,-57 78,-57 26,0 47,20 47,51 0,43 -28,89 -80,89l-39 0 -13 119 44 0c43,0 60,24 60,56 0,57 -32,100 -81,100 -36,0 -59,-22 -64,-69l-138 48c19,87 90,155 204,155zm298 -138l-58 259 103 0 98 -259 -143 0zm456 -345l-83 667 146 0 26 -215 4 -1c29,23 66,32 110,32 127,0 227,-129 227,-298 0,-107 -51,-194 -150,-194 -60,0 -108,32 -143,82l-1 -2 9 -71 -145 0zm164 354c-25,0 -49,-9 -64,-29l1 -12c18,-125 77,-193 130,-193 33,0 54,34 54,80 0,79 -42,154 -121,154zm752 -354l-204 0c-125,1 -215,55 -215,174 0,36 17,82 59,108l-1 2c-36,63 -56,76 -98,79l3 118c10,1 32,2 50,2 77,0 119,-49 162,-136l12 -27 50 0 -20 155 144 0 58 -475zm-171 224l-41 1c-36,0 -62,-12 -62,-47 0,-41 33,-59 74,-59l42 0 -13 105zm425 259c181,0 267,-165 270,-390 2,-160 -50,-339 -318,-342l-28 121c31,2 64,5 92,14 71,20 100,60 106,151l0 2c-31,-24 -64,-34 -101,-34 -120,0 -224,115 -224,269 0,127 75,209 203,209zm7 -129c-29,0 -64,-22 -64,-86 0,-69 44,-140 109,-140 22,0 48,7 69,27 -10,114 -54,199 -114,199zm1069 -546l-375 0 -17 136 209 0 -237 519 149 27 259 -584 12 -98zm-45 537l-57 259 103 0 98 -259 -144 0zm454 -345l-58 475 140 0 31 -251 2 0 49 168 94 0 91 -165 2 0 -32 248 141 0 59 -475 -150 0 -137 256 -2 0 -79 -256 -151 0zm722 483c53,0 101,-29 136,-79l3 1 -9 70 146 0 59 -475 -147 0 -4 33 -3 0c-25,-26 -62,-42 -111,-42 -124,0 -224,129 -224,298 0,110 52,194 154,194zm46 -129c-32,0 -54,-30 -54,-75 0,-71 39,-158 103,-158 30,0 57,12 79,34l-2 14c-17,119 -75,185 -126,185zm481 129c92,0 158,-28 210,-87l-107 -79c-24,29 -58,49 -90,49 -15,0 -31,-6 -31,-22 0,-15 12,-26 50,-45l69 -37c63,-32 118,-71 118,-150 0,-84 -76,-121 -161,-121 -61,0 -138,27 -177,59l77 100c29,-26 58,-39 82,-39 20,0 33,5 33,19 0,20 -13,27 -52,47l-55 29c-83,42 -132,87 -131,161 1,74 59,116 165,116zm344 2c53,0 87,-37 87,-87 0,-48 -32,-83 -84,-83 -53,0 -86,36 -86,86 0,48 32,84 83,84zm693 -677l-121 0 -207 147 62 115 91 -68 -58 473 152 0 81 -667zm463 0l-375 0 -17 136 209 0 -237 519 150 27 258 -584 12 -98z"/>
  </g>
 </g>
</svg>
