<?xml version="1.0" encoding="UTF-8"?>
<!DOCTYPE svg PUBLIC "-//W3C//DTD SVG 1.1//EN" "http://www.w3.org/Graphics/SVG/1.1/DTD/svg11.dtd">
<!-- Creator: CorelDRAW X7 -->
<svg xmlns="http://www.w3.org/2000/svg" xml:space="preserve" width="37.7313mm" height="7.4155mm" version="1.1" style="shape-rendering:geometricPrecision; text-rendering:geometricPrecision; image-rendering:optimizeQuality; fill-rule:evenodd; clip-rule:evenodd"
viewBox="0 0 1644 323"
 xmlns:xlink="http://www.w3.org/1999/xlink">
 <defs>
  <style type="text/css">
   <![CDATA[
    .str0 {stroke:#FEFEFE;stroke-width:10.8933}
    .fil0 {fill:none;fill-rule:nonzero}
    .fil4 {fill:#0A050E}
    .fil3 {fill:#0B0511}
    .fil2 {fill:#EEEDED}
    .fil1 {fill:#2B2A29;fill-rule:nonzero}
   ]]>
  </style>
 </defs>
 <g id="Слой_x0020_1">
  <metadata id="CorelCorpID_0Corel-Layer"/>
  <g>
   <path class="fil0 str0" d="M487 97l-69 153 36 0 11 -28 46 0 4 28 36 0 -31 -153 -33 0zm19 96l-30 0 21 -54 0 0 9 54zm93 59c12,0 22,-6 30,-17l1 0 -2 15 32 0 20 -158 -33 0 -7 60 -1 0c-6,-6 -14,-9 -25,-9 -27,0 -50,29 -50,66 0,24 12,43 35,43zm10 -28c-7,0 -12,-7 -12,-17 0,-16 9,-35 23,-35 7,0 13,2 18,7l-1 3c-4,27 -17,42 -28,42zm86 -79l-13 105 33 0 4 -40c4,-25 17,-37 33,-31l4 -36c-11,0 -22,6 -30,16l0 0 2 -14 -33 0zm155 27c0,-20 -19,-29 -36,-29 -35,0 -58,29 -58,65 0,27 18,44 44,44 21,0 35,-8 46,-23l-24 -14c-6,8 -12,10 -19,10 -6,0 -13,-3 -15,-13 31,-3 62,-13 62,-40zm-31 5c0,10 -14,14 -30,16 4,-15 13,-23 22,-23 5,0 8,2 8,7zm74 75c26,0 42,-13 42,-34 0,-17 -11,-24 -27,-32 -10,-5 -15,-9 -15,-12 0,-4 4,-6 8,-6 5,0 12,2 18,10l20 -18c-10,-12 -24,-17 -38,-17 -22,0 -39,14 -39,35 0,16 10,24 26,32 12,6 16,8 16,12 0,4 -4,6 -10,6 -8,0 -17,-5 -24,-13l-18 19c10,12 26,18 41,18zm86 0c13,0 23,-7 31,-17l0 0 -1 15 32 0 13 -105 -33 0 -5 48c-2,16 -15,30 -24,30 -8,0 -9,-5 -7,-22l8 -56 -32 0 -9 65c-5,32 7,42 27,42zm174 0l7 -27c-9,0 -15,-3 -19,-18l-3 -9c14,-14 25,-32 30,-53l-34 0c-4,17 -12,33 -30,45l0 0 12 -98 -32 0 -20 158 32 0 3 -28c5,-2 9,-4 13,-6l2 6c6,18 13,30 30,30 5,0 7,0 9,0zm35 -107l-13 105 32 0 5 -40c4,-25 17,-37 32,-31l5 -36c-12,0 -22,6 -30,16l-1 0 2 -14 -32 0zm96 107c12,0 23,-6 30,-17l1 0 -2 15 33 0 12 -105 -32 0 -1 7 -1 0c-5,-6 -13,-9 -24,-9 -28,0 -50,29 -50,66 0,24 12,43 34,43zm10 -28c-7,0 -12,-7 -12,-17 0,-16 9,-35 23,-35 7,0 13,2 18,7l-1 3c-3,27 -16,42 -28,42zm108 -93c12,0 20,-8 20,-19 0,-10 -7,-18 -19,-18 -12,0 -20,8 -20,19 0,10 8,18 19,18zm-20 14l-13 105 33 0 13 -105 -33 0zm58 0l-14 105 33 0 5 -39c3,-26 17,-39 26,-39 7,0 9,7 7,21l-8 57 32 0 9 -64c3,-30 -5,-43 -25,-43 -13,0 -25,6 -35,17l0 0 2 -15 -32 0zm199 27c0,-20 -19,-29 -36,-29 -36,0 -58,29 -58,65 0,27 17,44 44,44 21,0 35,-8 46,-23l-24 -14c-6,8 -12,10 -20,10 -6,0 -13,-3 -15,-13 31,-3 62,-13 63,-40zm-31 5c-1,10 -15,14 -31,16 4,-15 14,-23 23,-23 5,0 8,2 8,7z"/>
   <path id="1" class="fil1" d="M487 97l-69 153 36 0 11 -28 46 0 4 28 36 0 -31 -153 -33 0zm19 96l-30 0 21 -54 0 0 9 54zm93 59c12,0 22,-6 30,-17l1 0 -2 15 32 0 20 -158 -33 0 -7 60 -1 0c-6,-6 -14,-9 -25,-9 -27,0 -50,29 -50,66 0,24 12,43 35,43zm10 -28c-7,0 -12,-7 -12,-17 0,-16 9,-35 23,-35 7,0 13,2 18,7l-1 3c-4,27 -17,42 -28,42zm86 -79l-13 105 33 0 4 -40c4,-25 17,-37 33,-31l4 -36c-11,0 -22,6 -30,16l0 0 2 -14 -33 0zm155 27c0,-20 -19,-29 -36,-29 -35,0 -58,29 -58,65 0,27 18,44 44,44 21,0 35,-8 46,-23l-24 -14c-6,8 -12,10 -19,10 -6,0 -13,-3 -15,-13 31,-3 62,-13 62,-40zm-31 5c0,10 -14,14 -30,16 4,-15 13,-23 22,-23 5,0 8,2 8,7zm74 75c26,0 42,-13 42,-34 0,-17 -11,-24 -27,-32 -10,-5 -15,-9 -15,-12 0,-4 4,-6 8,-6 5,0 12,2 18,10l20 -18c-10,-12 -24,-17 -38,-17 -22,0 -39,14 -39,35 0,16 10,24 26,32 12,6 16,8 16,12 0,4 -4,6 -10,6 -8,0 -17,-5 -24,-13l-18 19c10,12 26,18 41,18zm86 0c13,0 23,-7 31,-17l0 0 -1 15 32 0 13 -105 -33 0 -5 48c-2,16 -15,30 -24,30 -8,0 -9,-5 -7,-22l8 -56 -32 0 -9 65c-5,32 7,42 27,42zm174 0l7 -27c-9,0 -15,-3 -19,-18l-3 -9c14,-14 25,-32 30,-53l-34 0c-4,17 -12,33 -30,45l0 0 12 -98 -32 0 -20 158 32 0 3 -28c5,-2 9,-4 13,-6l2 6c6,18 13,30 30,30 5,0 7,0 9,0zm35 -107l-13 105 32 0 5 -40c4,-25 17,-37 32,-31l5 -36c-12,0 -22,6 -30,16l-1 0 2 -14 -32 0zm96 107c12,0 23,-6 30,-17l1 0 -2 15 33 0 12 -105 -32 0 -1 7 -1 0c-5,-6 -13,-9 -24,-9 -28,0 -50,29 -50,66 0,24 12,43 34,43zm10 -28c-7,0 -12,-7 -12,-17 0,-16 9,-35 23,-35 7,0 13,2 18,7l-1 3c-3,27 -16,42 -28,42zm108 -93c12,0 20,-8 20,-19 0,-10 -7,-18 -19,-18 -12,0 -20,8 -20,19 0,10 8,18 19,18zm-20 14l-13 105 33 0 13 -105 -33 0zm58 0l-14 105 33 0 5 -39c3,-26 17,-39 26,-39 7,0 9,7 7,21l-8 57 32 0 9 -64c3,-30 -5,-43 -25,-43 -13,0 -25,6 -35,17l0 0 2 -15 -32 0zm199 27c0,-20 -19,-29 -36,-29 -36,0 -58,29 -58,65 0,27 17,44 44,44 21,0 35,-8 46,-23l-24 -14c-6,8 -12,10 -20,10 -6,0 -13,-3 -15,-13 31,-3 62,-13 63,-40zm-31 5c-1,10 -15,14 -31,16 4,-15 14,-23 23,-23 5,0 8,2 8,7z"/>
  </g>
  <path class="fil2" d="M143 84c101,-30 142,124 46,154 -104,33 -157,-121 -46,-154zm123 7c-50,0 -40,-34 -21,-39 30,-8 28,22 21,39zm27 160c8,-20 6,-107 5,-136 -1,-109 -84,-90 -177,-90 -111,0 -98,66 -96,183 1,49 13,76 53,86 26,7 99,4 130,4 44,0 71,-13 85,-47z"/>
  <path class="fil3" d="M293 251c-14,34 -41,47 -85,47 -31,0 -104,3 -130,-4 -40,-10 -52,-37 -53,-86 -2,-117 -15,-183 96,-183 93,0 176,-19 177,90 1,29 3,116 -5,136zm-212 -247c-45,10 -74,37 -79,87 -3,26 -3,135 3,159 10,38 43,68 87,72 27,2 137,2 159,-3 39,-11 67,-41 71,-88 3,-25 3,-133 -2,-154 -10,-42 -38,-69 -84,-75 -24,-3 -134,-3 -155,2z"/>
  <path class="fil4" d="M214 183c-23,65 -134,32 -103,-46 23,-55 130,-29 103,46zm-71 -99c-111,33 -58,187 46,154 96,-30 55,-184 -46,-154z"/>
  <path class="fil2" d="M214 183c27,-75 -80,-101 -103,-46 -31,78 80,111 103,46z"/>
  <path class="fil3" d="M266 91c7,-17 9,-47 -21,-39 -19,5 -29,39 21,39z"/>
 </g>
</svg>
