<?xml version="1.0" encoding="UTF-8"?>
<!DOCTYPE svg PUBLIC "-//W3C//DTD SVG 1.1//EN" "http://www.w3.org/Graphics/SVG/1.1/DTD/svg11.dtd">
<!-- Creator: CorelDRAW X7 -->
<svg xmlns="http://www.w3.org/2000/svg" xml:space="preserve" width="75.5826mm" height="46.0708mm" version="1.1" style="shape-rendering:geometricPrecision; text-rendering:geometricPrecision; image-rendering:optimizeQuality; fill-rule:evenodd; clip-rule:evenodd"
viewBox="0 0 3192 1946"
 xmlns:xlink="http://www.w3.org/1999/xlink">
 <defs>
  <style type="text/css">
   <![CDATA[
    .fil0 {fill:#2B2A29;fill-rule:nonzero}
    .fil1 {fill:#E31E24;fill-rule:nonzero}
   ]]>
  </style>
 </defs>
 <g id="Слой_x0020_1">
  <metadata id="CorelCorpID_0Corel-Layer"/>
  <g id="_781558480">
   <path class="fil0" d="M827 248l120 0c59,0 84,-22 84,-75 0,-28 -15,-42 -38,-50 20,-9 33,-21 33,-53 0,-50 -26,-70 -92,-70l-101 0c-60,0 -84,22 -84,70l59 0c1,-15 5,-23 30,-23l100 0c17,0 29,7 29,26 0,22 -12,29 -29,29l-116 0 0 43 109 0c34,0 40,11 40,28 0,20 -12,28 -38,28l-99 0c-17,0 -30,-11 -30,-23l-59 0c0,48 19,70 82,70zm300 -176l-60 0 0 176 60 0 0 -76 118 0 0 76 60 0 0 -176 -60 0 0 59 -118 0 0 -59zm217 176l86 0 88 -136 8 0 0 136 53 0 0 -176 -85 0 -90 135 -6 0 0 -135 -54 0 0 176zm408 0l53 0 0 -76 22 0 55 76 70 0 -85 -95 78 -81 -67 0 -51 63 -22 0 0 -63 -53 0 0 63 -22 0 -52 -63 -67 0 78 81 -85 95 71 0 55 -76 22 0 0 76zm284 -176l-59 0 0 176 59 0 0 -76 22 0 63 76 71 0 -90 -95 83 -81 -67 0 -60 63 -22 0 0 -63zm174 176l86 0 87 -136 8 0 0 136 53 0 0 -176 -84 0 -90 135 -7 0 0 -135 -53 0 0 176zm-2151 888l-59 0 0 176 59 0 0 -76 119 0 0 76 59 0 0 -176 -59 0 0 59 -119 0 0 -59zm277 51l0 -6c0,-7 4,-9 23,-9l63 0c22,0 32,4 32,22l0 22c-6,-11 -15,-17 -32,-17l-72 0c-56,0 -72,17 -72,47l0 21c0,31 23,45 60,45l79 0c21,0 27,-7 37,-20l0 20 60 0 0 -114c0,-35 -19,-62 -75,-62l-88 0c-56,0 -71,22 -71,51l56 0zm28 49l61 0c22,0 29,5 29,20 0,14 -7,19 -29,19l-61 0c-21,0 -28,-5 -28,-19 0,-16 8,-20 28,-20zm312 -100l0 176 60 0 0 -136 118 0 0 136 59 0 0 -176 -237 0zm354 -1c-52,0 -77,32 -77,71l0 37c0,40 27,69 77,69l83 0c51,0 77,-28 77,-69l0 -37c0,-40 -25,-71 -77,-71l-83 0zm101 75l0 29c0,23 -12,32 -38,32l-41 0c-27,0 -40,-10 -40,-32l0 -29c0,-23 13,-34 40,-34l41 0c26,0 38,14 38,34zm97 -74l0 176 59 0 0 -136 119 0 0 136 59 0 0 -176 -237 0zm440 68l-118 0c0,-17 7,-32 30,-32l55 0c26,0 33,15 33,32zm57 33l0 -30c0,-36 -17,-72 -76,-72l-84 0c-53,0 -74,34 -74,65l0 45c0,38 23,67 73,67l87 0c60,0 74,-27 74,-58l-57 0c0,14 -6,21 -21,21l-68 0c-25,0 -29,-16 -29,-31l0 -7 175 0zm87 -101l-59 0 0 248 59 0 0 -96c7,10 26,24 52,24l53 0c53,0 77,-31 77,-69l0 -39c0,-45 -27,-68 -77,-68l-53 0c-28,0 -42,11 -52,21l0 -21zm123 102c0,23 -13,33 -41,33l-43 0c-26,0 -39,-11 -39,-33l0 -28c0,-21 13,-34 39,-34l43 0c28,0 41,12 41,34l0 28zm256 -34l-118 0c0,-17 7,-32 30,-32l55 0c25,0 33,15 33,32zm57 33l0 -30c0,-36 -18,-72 -76,-72l-84 0c-53,0 -74,34 -74,65l0 45c0,38 23,67 73,67l87 0c59,0 74,-27 74,-58l-57 0c0,14 -7,21 -21,21l-69 0c-24,0 -28,-16 -28,-31l0 -7 175 0zm39 34l-21 0 0 95 55 0 0 -54 164 0 0 54 55 0 0 -95 -26 0 0 -135 -203 0 0 69c0,28 -8,49 -24,66l0 0zm167 0l-104 0c12,-17 18,-38 18,-61l0 -34 86 0 0 95zm170 -135l-60 0 0 176 60 0 0 -76 118 0 0 76 59 0 0 -176 -59 0 0 59 -118 0 0 -59zm278 0l-60 0 0 176 60 0 0 -74 52 0c0,44 28,74 78,74l83 0c50,0 77,-31 77,-69l0 -38c0,-40 -25,-69 -77,-69l-83 0c-51,0 -78,29 -78,61l-52 0 0 -61zm231 74l0 28c0,23 -12,33 -39,33l-40 0c-28,0 -40,-10 -40,-32l0 -29c0,-23 12,-34 40,-34l40 0c26,0 39,13 39,34zm-2484 325l-59 0 0 176 59 0 0 -76 22 0 63 76 71 0 -90 -94 83 -82 -67 0 -60 63 -22 0 0 -63zm251 -1c-52,0 -77,32 -77,71l0 37c0,40 28,69 77,69l83 0c51,0 78,-28 78,-69l0 -37c0,-40 -26,-71 -78,-71l-83 0zm101 75l0 29c0,23 -12,33 -38,33l-40 0c-28,0 -41,-11 -41,-33l0 -29c0,-23 13,-34 41,-34l40 0c26,0 38,14 38,34zm118 -74l0 94c0,36 -5,42 -36,42l0 40 25 0c44,0 68,-25 68,-74l0 -62 91 0 0 136 60 0 0 -176 -208 0zm414 68l-118 0c0,-17 7,-32 30,-32l55 0c25,0 33,15 33,32zm57 33l0 -30c0,-36 -17,-72 -76,-72l-84 0c-53,0 -74,34 -74,65l0 45c0,38 23,67 73,67l87 0c59,0 74,-27 74,-58l-57 0c0,14 -7,21 -21,21l-69 0c-24,0 -28,-16 -28,-31l0 -7 175 0zm87 -101l-60 0 0 176 60 0 0 -76 21 0 64 76 71 0 -91 -94 83 -82 -67 0 -60 63 -21 0 0 -63zm232 136l0 -136 -59 0 0 176 208 0 0 54 54 0 0 -94 -25 0 0 -136 -59 0 0 136 -119 0zm300 -136l-59 0 0 176 59 0 0 -176zm-59 -72l0 49 59 0 0 -49 -59 0zm160 72l-59 0 0 176 59 0 0 -74 53 0c0,44 28,74 78,74l83 0c50,0 77,-31 77,-69l0 -38c0,-40 -26,-69 -78,-69l-83 0c-50,0 -77,29 -77,61l-53 0 0 -61zm231 74l0 28c0,24 -12,34 -38,34l-40 0c-28,0 -41,-11 -41,-33l0 -29c0,-23 13,-34 41,-34l40 0c26,0 38,13 38,34zm-2074 314l13 -26 61 0 13 26 29 0 -54 -103 -37 0 -54 103 29 0zm23 -45l20 -39 2 0 19 39 -41 0zm125 -28l-25 0 0 73 25 0 0 -31 9 0 26 31 30 0 -38 -39 34 -34 -27 0 -25 26 -9 0 0 -26zm97 56l0 -56 -25 0 0 73 86 0 0 23 23 0 0 -40 -10 0 0 -56 -25 0 0 56 -49 0zm124 -56l-24 0 0 73 24 0 0 -73zm-24 -30l0 21 24 0 0 -21 -24 0zm116 77l0 26 24 0 0 -73 -73 0c-15,0 -25,6 -25,18l0 10c0,11 9,19 24,19l-26 26 30 0 24 -26 22 0zm0 -15l-38 0c-9,0 -12,-2 -12,-9 0,-6 3,-8 12,-8l38 0 0 17zm96 24l-8 0 0 40 22 0 0 -23 69 0 0 23 23 0 0 -40 -11 0 0 -56 -85 0 0 29c0,12 -3,20 -10,27l0 0zm70 0l-44 0c6,-7 8,-15 8,-25l0 -14 36 0 0 39zm73 -56l-24 0 0 73 24 0 0 -73zm-24 -30l0 21 24 0 0 -21 -24 0zm135 55l0 -1c0,-18 -10,-24 -33,-24l-33 0c-20,0 -30,11 -30,28l0 18c0,15 10,27 29,27l36 0c26,0 32,-9 32,-24l0 -2 -24 0 0 3c0,6 -2,8 -11,8l-24 0c-8,0 -13,-5 -13,-13l0 -3 40 0 0 -14 -40 0c0,-9 5,-13 13,-13l23 0c8,0 11,2 11,7l0 3 24 0zm70 31l-9 0 0 40 23 0 0 -23 69 0 0 23 22 0 0 -40 -11 0 0 -56 -84 0 0 29c0,12 -3,20 -10,27l0 0zm70 0l-44 0c5,-7 8,-15 8,-25l0 -14 36 0 0 39zm78 -56c-22,0 -32,13 -32,29l0 15c0,17 11,29 32,29l34 0c21,0 33,-11 33,-28l0 -16c0,-16 -11,-29 -33,-29l-34 0zm42 31l0 12c0,10 -5,13 -16,13l-17 0c-11,0 -17,-4 -17,-13l0 -12c0,-10 6,-14 17,-14l17 0c11,0 16,5 16,14zm204 -27c0,-26 -8,-34 -37,-34l-37 0c-34,0 -38,16 -38,38l25 0c0,-15 1,-18 25,-18l17 0c17,0 20,3 20,12 0,10 -3,13 -16,14l-33 2c-32,2 -38,16 -38,32l0 23 112 0 0 -19 -87 0 0 -6c0,-6 3,-9 18,-9l32 -2c22,-2 37,-11 37,-33zm61 25l26 0c15,0 19,5 19,13 0,8 -4,13 -19,13l-26 0c-14,0 -19,-5 -19,-13 0,-8 5,-13 19,-13zm0 -41l26 0c15,0 18,3 18,12 0,8 -3,11 -18,11l-26 0c-14,0 -17,-3 -17,-11 0,-8 1,-12 17,-12l0 0zm32 -18l-38 0c-27,0 -35,7 -35,27 0,14 9,20 18,23 -8,1 -20,7 -20,25 0,19 12,28 37,28l38 0c25,0 38,-9 38,-29 0,-16 -11,-23 -20,-24 8,-3 18,-8 18,-23 0,-20 -10,-27 -36,-27zm55 103l25 0 0 -24 -25 0 0 24zm68 -37l0 -28c0,-15 4,-19 20,-19l31 0c15,0 20,4 20,19l0 27c0,14 -3,18 -19,18l-33 0c-15,0 -19,-4 -19,-17zm96 2l0 -32c0,-29 -12,-37 -37,-37l-46 0c-28,0 -38,8 -38,37l0 32c0,25 10,35 38,35l46 0c28,0 37,-9 37,-35zm127 -34c0,-26 -8,-34 -37,-34l-38 0c-33,0 -37,16 -37,38l25 0c0,-15 1,-18 25,-18l17 0c17,0 20,3 20,12 0,10 -3,13 -16,14l-33 2c-32,2 -38,16 -38,32l0 23 112 0 0 -19 -87 0 0 -6c0,-6 3,-9 18,-9l32 -2c22,-2 37,-11 37,-33zm19 69l25 0 0 -24 -25 0 0 24zm155 -69c0,-26 -8,-34 -37,-34l-37 0c-34,0 -38,16 -38,38l25 0c0,-15 1,-18 25,-18l17 0c17,0 20,3 20,12 0,10 -3,13 -16,14l-33 2c-32,2 -38,16 -38,32l0 23 112 0 0 -19 -87 0 0 -6c0,-6 3,-9 18,-9l32 -2c22,-2 37,-11 37,-33zm42 32l0 -28c0,-15 4,-19 19,-19l32 0c15,0 20,4 20,19l0 27c0,14 -3,18 -19,18l-33 0c-15,0 -19,-4 -19,-17zm96 2l0 -32c0,-29 -12,-37 -38,-37l-45 0c-28,0 -38,8 -38,37l0 32c0,25 10,35 38,35l45 0c29,0 38,-9 38,-35zm127 -34c0,-26 -8,-34 -37,-34l-38 0c-33,0 -37,16 -37,38l25 0c0,-15 1,-18 25,-18l17 0c17,0 20,3 20,12 0,10 -3,13 -16,14l-33 2c-32,2 -38,16 -38,32l0 23 112 0 0 -19 -87 0 0 -6c0,-6 3,-9 18,-9l32 -2c22,-2 37,-11 37,-33zm32 10l28 -22 8 0 0 81 24 0 0 -103 -41 0 -32 25 13 19z"/>
   <path class="fil1" d="M501 722c0,-94 -31,-140 -153,-140l-85 0c-72,0 -90,17 -107,33l0 -90 334 0 0 -78 -433 0 0 262 99 0c5,-34 20,-48 81,-48l113 0c37,0 52,20 52,62 0,39 -15,60 -52,60l-139 0c-34,0 -62,-7 -62,-40l-99 0c0,80 50,118 150,118l148 0c116,0 153,-44 153,-139zm159 -13l0 -110c0,-59 18,-74 80,-74l127 0c59,0 79,13 79,74l0 110c0,56 -14,70 -77,70l-131 0c-60,0 -78,-15 -78,-70zm385 11l0 -130c0,-117 -47,-148 -149,-148l-182 0c-113,0 -153,34 -153,148l0 130c0,100 42,141 153,141l182 0c115,0 149,-38 149,-141zm69 -93l0 82 244 0 0 -82 -244 0zm313 -180l0 82 324 0 -264 332 124 0 273 -345 0 -69 -457 0zm613 262l0 -110c0,-59 17,-74 79,-74l128 0c59,0 79,13 79,74l0 110c0,56 -14,70 -78,70l-131 0c-60,0 -77,-15 -77,-70zm385 11l0 -130c0,-117 -47,-148 -150,-148l-181 0c-113,0 -153,34 -153,148l0 130c0,100 42,141 153,141l181 0c116,0 150,-38 150,-141zm271 -179l0 53c0,34 -9,40 -45,40l-68 0c-38,0 -47,-10 -47,-41l0 -53c0,-33 9,-44 47,-44l68 0c36,0 45,9 45,45zm60 64l0 -76c0,-66 -24,-88 -91,-88l-97 0c-72,0 -91,22 -91,88l0 76c0,68 23,84 92,84l97 0c66,0 90,-14 90,-84zm149 -182l-61 0 -122 454 60 0 123 -454zm184 290l0 52c0,34 -9,41 -45,41l-68 0c-38,0 -46,-10 -46,-42l0 -52c0,-34 8,-44 46,-44l68 0c36,0 45,9 45,45l0 0zm60 64l0 -76c0,-66 -23,-88 -91,-88l-96 0c-72,0 -92,21 -92,88l0 76c0,68 23,84 92,84l97 0c67,0 90,-15 90,-84z"/>
  </g>
 </g>
</svg>
