<?xml version="1.0" encoding="UTF-8"?>
<!DOCTYPE svg PUBLIC "-//W3C//DTD SVG 1.1//EN" "http://www.w3.org/Graphics/SVG/1.1/DTD/svg11.dtd">
<!-- Creator: CorelDRAW X7 -->
<svg xmlns="http://www.w3.org/2000/svg" xml:space="preserve" width="39.3304mm" height="17.1929mm" version="1.1" style="shape-rendering:geometricPrecision; text-rendering:geometricPrecision; image-rendering:optimizeQuality; fill-rule:evenodd; clip-rule:evenodd"
viewBox="0 0 4056 1773"
 xmlns:xlink="http://www.w3.org/1999/xlink">
 <defs>
  <style type="text/css">
   <![CDATA[
    .str0 {stroke:#FEFEFE;stroke-width:25.7827}
    .fil0 {fill:none;fill-rule:nonzero}
    .fil1 {fill:#2B2A29;fill-rule:nonzero}
    .fil2 {fill:#E31E24;fill-rule:nonzero}
   ]]>
  </style>
 </defs>
 <g id="Слой_x0020_1">
  <metadata id="CorelCorpID_0Corel-Layer"/>
  <g id="_787441632">
   <g>
    <path class="fil0 str0" d="M1388 342c3,27 14,31 25,31 10,0 26,-2 36,-7 -8,-6 -11,-14 -14,-38l-35 -245c-3,-22 -7,-45 -13,-70l-3 0c-20,0 -37,0 -48,2 -7,29 -12,48 -22,75l-80 228 -89 -247c-6,-19 -16,-39 -27,-58 -23,0 -41,2 -50,5 -1,27 -3,49 -5,73 0,0 -37,252 -37,264 0,15 7,18 15,18 7,0 21,-2 32,-7 -4,-3 -6,-9 -6,-15 0,-6 0,-8 2,-23l32 -235 94 249c9,26 19,31 30,31 12,0 21,-1 31,-6 0,-6 4,-21 10,-39l86 -235 36 249zm261 0c0,27 9,31 20,31 9,0 24,-2 35,-7 -7,-6 -8,-18 -8,-38l0 -127c0,-45 -39,-77 -96,-77 -66,0 -100,32 -100,53 0,14 13,21 37,21 0,-23 24,-46 56,-46 33,0 56,21 56,51l0 21c-93,8 -157,33 -157,87 0,38 30,63 73,63 46,0 73,-31 84,-61l0 29zm0 -75c0,34 -29,78 -69,78 -24,0 -41,-15 -41,-38 0,-39 47,-54 110,-60l0 20zm261 -113c27,0 32,-5 32,-12 0,-6 -2,-12 -7,-20 -6,4 -19,5 -40,5l-65 0c-19,0 -39,1 -59,5 4,29 5,46 5,71l0 139c0,27 9,31 20,31 10,0 21,-1 31,-6 -3,-6 -4,-19 -4,-39l0 -145c0,-10 -1,-20 -2,-29 9,0 19,0 30,0l59 0zm215 188c0,27 9,31 20,31 10,0 25,-2 36,-7 -8,-6 -9,-18 -9,-38l0 -127c0,-45 -38,-77 -96,-77 -65,0 -100,32 -100,53 0,14 13,21 37,21 0,-23 24,-46 57,-46 32,0 55,21 55,51l0 21c-93,8 -156,33 -156,87 0,38 30,63 72,63 46,0 73,-31 84,-61l0 29zm0 -75c0,34 -29,78 -68,78 -24,0 -42,-15 -42,-38 0,-39 47,-54 110,-60l0 20zm118 -83c5,2 9,3 13,3 10,0 19,-35 63,-35 29,0 48,15 48,40 0,23 -17,40 -43,40l-15 0c-9,0 -19,0 -27,2 0,9 2,20 5,26 11,-2 18,-2 28,-2l12 0c29,0 50,20 50,46 0,26 -21,42 -52,42 -33,0 -51,-18 -60,-37 -17,0 -27,5 -27,16 0,17 30,49 91,49 58,0 98,-28 98,-70 0,-28 -19,-51 -49,-62 24,-11 37,-31 37,-56 0,-38 -36,-62 -90,-62 -39,0 -73,17 -90,54l8 6zm417 158c0,27 9,31 20,31 9,0 24,-2 35,-7 -7,-6 -9,-18 -9,-38l0 -133c0,-23 0,-49 -3,-70 -19,0 -37,2 -45,4l-120 189 0 -135c0,-19 -2,-39 -6,-58 -19,0 -37,2 -45,5 4,29 5,48 5,73l0 139c0,27 9,31 19,31 11,0 21,-1 31,-6l118 -184 0 159zm294 0c0,27 10,31 20,31 10,0 24,-2 36,-7 -8,-6 -9,-18 -9,-38l0 -133c0,-23 -1,-49 -3,-70 -20,0 -38,2 -47,4 2,28 3,49 3,74l0 28 -121 0 0 -48c0,-19 -2,-39 -6,-58 -19,0 -37,2 -45,5 4,29 5,48 5,73l0 139c0,27 8,31 19,31 11,0 21,-1 32,-6 -3,-6 -5,-19 -5,-39l0 -70 121 0 0 84zm-2888 463c0,-24 -1,-49 -4,-71 -19,0 -39,3 -48,5 4,29 5,48 5,73l0 22c0,39 29,68 71,68 43,0 74,-23 84,-44l0 93c0,27 9,32 20,32 9,0 24,-2 36,-7 -8,-6 -9,-19 -9,-39l0 -135c0,-23 -1,-47 -3,-68 -20,0 -38,2 -47,4 3,28 3,48 3,72l0 5c-1,27 -29,60 -62,60 -27,0 -46,-21 -46,-50l0 -20zm220 57c0,73 47,122 114,122 74,0 124,-53 124,-129 0,-72 -46,-121 -114,-121 -74,0 -124,52 -124,128zm50 -5c0,-57 27,-95 67,-95 42,0 71,39 71,98 0,57 -27,95 -67,95 -42,0 -71,-39 -71,-98zm270 -10c0,63 -13,110 -52,110 0,16 9,27 25,27 46,0 71,-60 71,-142l0 -37c0,-14 -1,-28 -2,-41 8,-1 17,-1 27,-1l64 0c1,17 1,32 1,50l0 138c0,27 9,32 20,32 9,0 24,-2 35,-7 -7,-6 -8,-19 -8,-39l0 -132c0,-24 -1,-47 -4,-69l-118 0c-19,0 -45,2 -64,5 4,29 5,46 5,72l0 34zm246 15c0,73 46,122 114,122 74,0 124,-53 124,-129 0,-72 -46,-121 -115,-121 -73,0 -123,52 -123,128zm50 -5c0,-57 27,-95 67,-95 42,0 71,39 71,98 0,57 -28,95 -68,95 -42,0 -70,-39 -70,-98zm358 124c56,0 94,-28 94,-69 0,-28 -18,-49 -48,-60 23,-11 36,-30 36,-54 0,-37 -33,-62 -82,-62l-65 0c-19,0 -37,3 -45,5 4,29 5,48 5,74l0 135c0,26 8,31 19,31l86 0zm-59 -46l0 -67 52 0c30,0 51,18 51,44 0,26 -20,43 -48,43l-54 0c-1,-6 -1,-12 -1,-20zm0 -141c0,-10 0,-21 -2,-32l49 0c28,0 47,16 47,40 0,24 -18,40 -44,40l-50 0 0 -48zm219 157c0,27 9,32 19,32 10,0 25,-2 36,-7 -7,-6 -9,-19 -9,-39l0 -132c0,-24 -1,-49 -3,-71 -20,0 -39,3 -48,5 4,29 5,48 5,74l0 138zm-6 -302c0,15 11,25 26,25 17,0 28,-11 28,-28 0,-15 -10,-26 -25,-26 -17,0 -29,13 -29,29zm179 156c0,-24 -1,-49 -3,-71 -20,0 -39,3 -48,5 4,29 5,48 5,73l0 22c0,39 29,68 70,68 44,0 75,-23 85,-44l0 93c0,27 9,32 19,32 10,0 25,-2 36,-7 -7,-6 -9,-19 -9,-39l0 -135c0,-23 -1,-47 -3,-68 -19,0 -37,2 -46,4 3,28 3,48 3,72l0 5c-1,27 -30,60 -63,60 -26,0 -46,-21 -46,-50l0 -20zm221 57c0,73 46,122 114,122 74,0 124,-53 124,-129 0,-72 -46,-121 -115,-121 -73,0 -123,52 -123,128zm50 -5c0,-57 27,-95 67,-95 42,0 70,39 70,98 0,57 -27,95 -67,95 -42,0 -70,-39 -70,-98zm387 -94c27,0 31,-5 31,-12 0,-5 -2,-12 -7,-19 -6,3 -19,4 -39,4l-66 0c-19,0 -39,2 -58,5 4,29 5,46 5,72l0 138c0,27 8,32 19,32 11,0 22,-1 32,-6 -3,-6 -5,-20 -5,-40l0 -145c0,-9 0,-19 -1,-28 9,-1 18,-1 29,-1l60 0zm55 99c0,73 46,122 114,122 74,0 124,-53 124,-129 0,-72 -46,-121 -115,-121 -73,0 -123,52 -123,128zm50 -5c0,-57 27,-95 67,-95 42,0 71,39 71,98 0,57 -27,95 -68,95 -42,0 -70,-39 -70,-98zm364 5c0,73 47,122 114,122 74,0 124,-53 124,-129 0,-72 -46,-121 -114,-121 -74,0 -124,52 -124,128zm50 -5c0,-57 27,-95 67,-95 42,0 71,39 71,98 0,57 -27,95 -68,95 -41,0 -70,-39 -70,-98zm280 -10c0,54 -9,96 -36,107l-26 2 0 72c0,27 8,32 17,32 8,0 21,-3 30,-8 -5,-6 -5,-18 -5,-38l0 -32c12,-1 24,-1 38,-1l167 0 0 47c0,27 8,32 18,32 8,0 22,-3 32,-8 -7,-6 -9,-18 -9,-38l0 -45c0,-5 -1,-13 -6,-19 -6,3 -17,4 -35,4 0,-5 0,-12 0,-19l0 -130c0,-24 -1,-47 -3,-69l-123 0c-19,0 -45,2 -64,5 4,29 5,46 5,72l0 34zm69 -84l67 0c2,17 2,32 2,50l0 141 -121 0c17,-24 27,-64 27,-112l0 -37c0,-14 -1,-28 -2,-41 9,-1 17,-1 27,-1l0 0zm350 188c0,27 10,32 20,32 11,0 22,-1 32,-6 -4,-6 -5,-20 -5,-40l0 -143c0,-19 -2,-39 -6,-58l-83 0c-61,0 -101,31 -101,75 0,35 24,60 63,68l-40 58c-13,20 -23,33 -33,39 7,5 20,7 29,7 10,0 24,-5 40,-31l45 -70 39 0 0 69zm0 -136l0 42 -38 0c-34,0 -57,-20 -57,-48 0,-28 22,-47 55,-47l38 0c2,19 2,34 2,53zm260 -52c28,0 32,-5 32,-12 0,-5 -2,-12 -7,-19 -6,3 -19,4 -40,4l-65 0c-19,0 -39,2 -59,5 4,29 5,46 5,72l0 138c0,27 9,32 20,32 10,0 21,-1 31,-6 -3,-6 -4,-20 -4,-40l0 -145c0,-9 -1,-19 -2,-28 9,-1 19,-1 30,-1l59 0zm166 244c-15,39 -41,64 -80,64 0,18 10,27 25,27 37,0 74,-34 97,-96l78 -197c9,-24 18,-48 24,-70 -16,0 -31,1 -42,3 -9,31 -15,50 -25,75l-48 122 -54 -142c-7,-19 -17,-40 -28,-58 -21,0 -38,2 -46,5 15,28 20,39 34,73l58 139c6,17 11,25 17,29l-10 26z"/>
    <path id="1" class="fil1" d="M1388 342c3,27 14,31 25,31 10,0 26,-2 36,-7 -8,-6 -11,-14 -14,-38l-35 -245c-3,-22 -7,-45 -13,-70l-3 0c-20,0 -37,0 -48,2 -7,29 -12,48 -22,75l-80 228 -89 -247c-6,-19 -16,-39 -27,-58 -23,0 -41,2 -50,5 -1,27 -3,49 -5,73 0,0 -37,252 -37,264 0,15 7,18 15,18 7,0 21,-2 32,-7 -4,-3 -6,-9 -6,-15 0,-6 0,-8 2,-23l32 -235 94 249c9,26 19,31 30,31 12,0 21,-1 31,-6 0,-6 4,-21 10,-39l86 -235 36 249zm261 0c0,27 9,31 20,31 9,0 24,-2 35,-7 -7,-6 -8,-18 -8,-38l0 -127c0,-45 -39,-77 -96,-77 -66,0 -100,32 -100,53 0,14 13,21 37,21 0,-23 24,-46 56,-46 33,0 56,21 56,51l0 21c-93,8 -157,33 -157,87 0,38 30,63 73,63 46,0 73,-31 84,-61l0 29zm0 -75c0,34 -29,78 -69,78 -24,0 -41,-15 -41,-38 0,-39 47,-54 110,-60l0 20zm261 -113c27,0 32,-5 32,-12 0,-6 -2,-12 -7,-20 -6,4 -19,5 -40,5l-65 0c-19,0 -39,1 -59,5 4,29 5,46 5,71l0 139c0,27 9,31 20,31 10,0 21,-1 31,-6 -3,-6 -4,-19 -4,-39l0 -145c0,-10 -1,-20 -2,-29 9,0 19,0 30,0l59 0zm215 188c0,27 9,31 20,31 10,0 25,-2 36,-7 -8,-6 -9,-18 -9,-38l0 -127c0,-45 -38,-77 -96,-77 -65,0 -100,32 -100,53 0,14 13,21 37,21 0,-23 24,-46 57,-46 32,0 55,21 55,51l0 21c-93,8 -156,33 -156,87 0,38 30,63 72,63 46,0 73,-31 84,-61l0 29zm0 -75c0,34 -29,78 -68,78 -24,0 -42,-15 -42,-38 0,-39 47,-54 110,-60l0 20zm118 -83c5,2 9,3 13,3 10,0 19,-35 63,-35 29,0 48,15 48,40 0,23 -17,40 -43,40l-15 0c-9,0 -19,0 -27,2 0,9 2,20 5,26 11,-2 18,-2 28,-2l12 0c29,0 50,20 50,46 0,26 -21,42 -52,42 -33,0 -51,-18 -60,-37 -17,0 -27,5 -27,16 0,17 30,49 91,49 58,0 98,-28 98,-70 0,-28 -19,-51 -49,-62 24,-11 37,-31 37,-56 0,-38 -36,-62 -90,-62 -39,0 -73,17 -90,54l8 6zm417 158c0,27 9,31 20,31 9,0 24,-2 35,-7 -7,-6 -9,-18 -9,-38l0 -133c0,-23 0,-49 -3,-70 -19,0 -37,2 -45,4l-120 189 0 -135c0,-19 -2,-39 -6,-58 -19,0 -37,2 -45,5 4,29 5,48 5,73l0 139c0,27 9,31 19,31 11,0 21,-1 31,-6l118 -184 0 159zm294 0c0,27 10,31 20,31 10,0 24,-2 36,-7 -8,-6 -9,-18 -9,-38l0 -133c0,-23 -1,-49 -3,-70 -20,0 -38,2 -47,4 2,28 3,49 3,74l0 28 -121 0 0 -48c0,-19 -2,-39 -6,-58 -19,0 -37,2 -45,5 4,29 5,48 5,73l0 139c0,27 8,31 19,31 11,0 21,-1 32,-6 -3,-6 -5,-19 -5,-39l0 -70 121 0 0 84zm-2888 463c0,-24 -1,-49 -4,-71 -19,0 -39,3 -48,5 4,29 5,48 5,73l0 22c0,39 29,68 71,68 43,0 74,-23 84,-44l0 93c0,27 9,32 20,32 9,0 24,-2 36,-7 -8,-6 -9,-19 -9,-39l0 -135c0,-23 -1,-47 -3,-68 -20,0 -38,2 -47,4 3,28 3,48 3,72l0 5c-1,27 -29,60 -62,60 -27,0 -46,-21 -46,-50l0 -20zm220 57c0,73 47,122 114,122 74,0 124,-53 124,-129 0,-72 -46,-121 -114,-121 -74,0 -124,52 -124,128zm50 -5c0,-57 27,-95 67,-95 42,0 71,39 71,98 0,57 -27,95 -67,95 -42,0 -71,-39 -71,-98zm270 -10c0,63 -13,110 -52,110 0,16 9,27 25,27 46,0 71,-60 71,-142l0 -37c0,-14 -1,-28 -2,-41 8,-1 17,-1 27,-1l64 0c1,17 1,32 1,50l0 138c0,27 9,32 20,32 9,0 24,-2 35,-7 -7,-6 -8,-19 -8,-39l0 -132c0,-24 -1,-47 -4,-69l-118 0c-19,0 -45,2 -64,5 4,29 5,46 5,72l0 34zm246 15c0,73 46,122 114,122 74,0 124,-53 124,-129 0,-72 -46,-121 -115,-121 -73,0 -123,52 -123,128zm50 -5c0,-57 27,-95 67,-95 42,0 71,39 71,98 0,57 -28,95 -68,95 -42,0 -70,-39 -70,-98zm358 124c56,0 94,-28 94,-69 0,-28 -18,-49 -48,-60 23,-11 36,-30 36,-54 0,-37 -33,-62 -82,-62l-65 0c-19,0 -37,3 -45,5 4,29 5,48 5,74l0 135c0,26 8,31 19,31l86 0zm-59 -46l0 -67 52 0c30,0 51,18 51,44 0,26 -20,43 -48,43l-54 0c-1,-6 -1,-12 -1,-20zm0 -141c0,-10 0,-21 -2,-32l49 0c28,0 47,16 47,40 0,24 -18,40 -44,40l-50 0 0 -48zm219 157c0,27 9,32 19,32 10,0 25,-2 36,-7 -7,-6 -9,-19 -9,-39l0 -132c0,-24 -1,-49 -3,-71 -20,0 -39,3 -48,5 4,29 5,48 5,74l0 138zm-6 -302c0,15 11,25 26,25 17,0 28,-11 28,-28 0,-15 -10,-26 -25,-26 -17,0 -29,13 -29,29zm179 156c0,-24 -1,-49 -3,-71 -20,0 -39,3 -48,5 4,29 5,48 5,73l0 22c0,39 29,68 70,68 44,0 75,-23 85,-44l0 93c0,27 9,32 19,32 10,0 25,-2 36,-7 -7,-6 -9,-19 -9,-39l0 -135c0,-23 -1,-47 -3,-68 -19,0 -37,2 -46,4 3,28 3,48 3,72l0 5c-1,27 -30,60 -63,60 -26,0 -46,-21 -46,-50l0 -20zm221 57c0,73 46,122 114,122 74,0 124,-53 124,-129 0,-72 -46,-121 -115,-121 -73,0 -123,52 -123,128zm50 -5c0,-57 27,-95 67,-95 42,0 70,39 70,98 0,57 -27,95 -67,95 -42,0 -70,-39 -70,-98zm387 -94c27,0 31,-5 31,-12 0,-5 -2,-12 -7,-19 -6,3 -19,4 -39,4l-66 0c-19,0 -39,2 -58,5 4,29 5,46 5,72l0 138c0,27 8,32 19,32 11,0 22,-1 32,-6 -3,-6 -5,-20 -5,-40l0 -145c0,-9 0,-19 -1,-28 9,-1 18,-1 29,-1l60 0zm55 99c0,73 46,122 114,122 74,0 124,-53 124,-129 0,-72 -46,-121 -115,-121 -73,0 -123,52 -123,128zm50 -5c0,-57 27,-95 67,-95 42,0 71,39 71,98 0,57 -27,95 -68,95 -42,0 -70,-39 -70,-98zm364 5c0,73 47,122 114,122 74,0 124,-53 124,-129 0,-72 -46,-121 -114,-121 -74,0 -124,52 -124,128zm50 -5c0,-57 27,-95 67,-95 42,0 71,39 71,98 0,57 -27,95 -68,95 -41,0 -70,-39 -70,-98zm280 -10c0,54 -9,96 -36,107l-26 2 0 72c0,27 8,32 17,32 8,0 21,-3 30,-8 -5,-6 -5,-18 -5,-38l0 -32c12,-1 24,-1 38,-1l167 0 0 47c0,27 8,32 18,32 8,0 22,-3 32,-8 -7,-6 -9,-18 -9,-38l0 -45c0,-5 -1,-13 -6,-19 -6,3 -17,4 -35,4 0,-5 0,-12 0,-19l0 -130c0,-24 -1,-47 -3,-69l-123 0c-19,0 -45,2 -64,5 4,29 5,46 5,72l0 34zm69 -84l67 0c2,17 2,32 2,50l0 141 -121 0c17,-24 27,-64 27,-112l0 -37c0,-14 -1,-28 -2,-41 9,-1 17,-1 27,-1l0 0zm350 188c0,27 10,32 20,32 11,0 22,-1 32,-6 -4,-6 -5,-20 -5,-40l0 -143c0,-19 -2,-39 -6,-58l-83 0c-61,0 -101,31 -101,75 0,35 24,60 63,68l-40 58c-13,20 -23,33 -33,39 7,5 20,7 29,7 10,0 24,-5 40,-31l45 -70 39 0 0 69zm0 -136l0 42 -38 0c-34,0 -57,-20 -57,-48 0,-28 22,-47 55,-47l38 0c2,19 2,34 2,53zm260 -52c28,0 32,-5 32,-12 0,-5 -2,-12 -7,-19 -6,3 -19,4 -40,4l-65 0c-19,0 -39,2 -59,5 4,29 5,46 5,72l0 138c0,27 9,32 20,32 10,0 21,-1 31,-6 -3,-6 -4,-20 -4,-40l0 -145c0,-9 -1,-19 -2,-28 9,-1 19,-1 30,-1l59 0zm166 244c-15,39 -41,64 -80,64 0,18 10,27 25,27 37,0 74,-34 97,-96l78 -197c9,-24 18,-48 24,-70 -16,0 -31,1 -42,3 -9,31 -15,50 -25,75l-48 122 -54 -142c-7,-19 -17,-40 -28,-58 -21,0 -38,2 -46,5 15,28 20,39 34,73l58 139c6,17 11,25 17,29l-10 26z"/>
   </g>
   <g>
    <path class="fil0 str0" d="M786 1760l65 -125 294 0 64 125 140 0 -262 -497 -176 0 -264 497 139 0zm113 -219l98 -185 6 0 94 185 -198 0zm851 219l119 0 0 -497 -119 0 0 197c-3,-6 -27,-54 -103,-54l-106 0c-97,0 -154,54 -154,141l0 74c0,82 48,139 154,139l106 0c66,0 103,-46 103,-46l0 46zm-82 -272c51,0 82,31 82,67l0 57c0,36 -31,66 -82,66l-80 0c-59,0 -82,-22 -82,-66l0 -56c0,-42 22,-68 82,-68l80 0zm389 -82l-119 0 0 354 119 0 0 -187c0,-48 34,-85 82,-85l43 0c57,0 65,31 72,62l119 0c0,-75 -27,-144 -155,-144l-59 0c-50,0 -73,15 -102,52l0 -52zm707 137l-237 0c0,-34 14,-65 61,-65l109 0c51,0 67,31 67,65zm114 66l0 -60c0,-71 -35,-144 -152,-144l-169 0c-106,0 -149,68 -149,130l0 90c0,77 47,135 147,135l174 0c120,0 149,-54 149,-116l-114 0c0,28 -14,42 -42,42l-138 0c-49,0 -57,-33 -57,-63l0 -14 351 0zm184 151l170 0c93,0 142,-36 142,-107l0 -23c0,-58 -38,-91 -145,-91l-161 0c-35,0 -41,-15 -41,-31 0,-16 10,-30 44,-30l135 0c39,0 61,9 61,38l107 0c0,-81 -36,-111 -145,-111l-159 0c-109,0 -140,41 -140,96l0 22c0,65 41,98 118,98l170 0c37,0 49,19 49,36 0,16 -10,29 -47,29l-146 0c-32,0 -47,-15 -47,-39l-99 0c0,77 38,113 134,113z"/>
    <path id="1" class="fil2" d="M786 1760l65 -125 294 0 64 125 140 0 -262 -497 -176 0 -264 497 139 0zm113 -219l98 -185 6 0 94 185 -198 0zm851 219l119 0 0 -497 -119 0 0 197c-3,-6 -27,-54 -103,-54l-106 0c-97,0 -154,54 -154,141l0 74c0,82 48,139 154,139l106 0c66,0 103,-46 103,-46l0 46zm-82 -272c51,0 82,31 82,67l0 57c0,36 -31,66 -82,66l-80 0c-59,0 -82,-22 -82,-66l0 -56c0,-42 22,-68 82,-68l80 0zm389 -82l-119 0 0 354 119 0 0 -187c0,-48 34,-85 82,-85l43 0c57,0 65,31 72,62l119 0c0,-75 -27,-144 -155,-144l-59 0c-50,0 -73,15 -102,52l0 -52zm707 137l-237 0c0,-34 14,-65 61,-65l109 0c51,0 67,31 67,65zm114 66l0 -60c0,-71 -35,-144 -152,-144l-169 0c-106,0 -149,68 -149,130l0 90c0,77 47,135 147,135l174 0c120,0 149,-54 149,-116l-114 0c0,28 -14,42 -42,42l-138 0c-49,0 -57,-33 -57,-63l0 -14 351 0zm184 151l170 0c93,0 142,-36 142,-107l0 -23c0,-58 -38,-91 -145,-91l-161 0c-35,0 -41,-15 -41,-31 0,-16 10,-30 44,-30l135 0c39,0 61,9 61,38l107 0c0,-81 -36,-111 -145,-111l-159 0c-109,0 -140,41 -140,96l0 22c0,65 41,98 118,98l170 0c37,0 49,19 49,36 0,16 -10,29 -47,29l-146 0c-32,0 -47,-15 -47,-39l-99 0c0,77 38,113 134,113z"/>
   </g>
  </g>
 </g>
</svg>
