<?xml version="1.0" encoding="UTF-8"?>
<!DOCTYPE svg PUBLIC "-//W3C//DTD SVG 1.1//EN" "http://www.w3.org/Graphics/SVG/1.1/DTD/svg11.dtd">
<!-- Creator: CorelDRAW X7 -->
<svg xmlns="http://www.w3.org/2000/svg" xml:space="preserve" width="36.0793mm" height="15.8948mm" version="1.1" style="shape-rendering:geometricPrecision; text-rendering:geometricPrecision; image-rendering:optimizeQuality; fill-rule:evenodd; clip-rule:evenodd"
viewBox="0 0 3608 1589"
 xmlns:xlink="http://www.w3.org/1999/xlink">
 <defs>
  <style type="text/css">
   <![CDATA[
    .str0 {stroke:#FEFEFE;stroke-width:24.9983}
    .fil0 {fill:#E31E24}
    .fil1 {fill:#E31E24;fill-rule:nonzero}
   ]]>
  </style>
 </defs>
 <g id="Слой_x0020_1">
  <metadata id="CorelCorpID_0Corel-Layer"/>
  <g id="_786458368">
   <path class="fil0 str0" d="M1156 499c0,40 14,47 30,47 14,0 37,-4 54,-11 -11,-8 -13,-27 -13,-57l0 -361c0,-35 -1,-72 -5,-104 -29,0 -58,4 -71,7 4,43 5,71 5,108l0 126 -264 0 0 -137c0,-35 -2,-72 -6,-104 -30,0 -60,4 -73,7 6,43 7,71 7,108l0 371c0,40 13,47 29,47 13,0 35,-4 51,-11 -8,-8 -8,-27 -8,-57l0 -183 264 0 0 204 0 0zm169 -214c0,155 96,261 237,261 148,0 247,-111 247,-273 0,-155 -96,-261 -237,-261 -146,0 -247,112 -247,273zm76 -7c0,-133 66,-223 165,-223 99,0 168,92 168,226 0,132 -67,222 -166,222 -99,0 -167,-91 -167,-225zm855 -133c0,-77 -59,-129 -148,-129l-136 0c-29,0 -59,4 -72,7 5,42 7,70 7,108l0 375c0,16 3,32 7,42 42,-5 70,-6 108,-6l90 0c100,0 168,-58 168,-144 0,-65 -40,-115 -102,-133 49,-22 78,-64 78,-120l0 0zm-278 333l0 -189 120 0c63,0 106,46 106,108 0,61 -41,104 -104,104l-89 0c-11,0 -22,0 -33,1 -1,-8 0,-15 0,-24l0 0zm108 -231l-108 0 0 -128c0,-19 -1,-41 -1,-61l108 0c56,0 95,39 95,96 0,56 -37,93 -94,93l0 0 0 0zm637 252c16,40 34,47 50,47 15,0 38,-4 52,-11 -14,-8 -23,-26 -35,-57l-142 -361c-14,-35 -30,-72 -46,-104 -30,0 -59,4 -71,7 -11,42 -24,80 -36,108l-146 371c-5,17 -8,28 -8,34 0,9 6,13 15,13 12,0 31,-4 48,-11 0,-12 5,-30 16,-57l33 -90 227 0 43 111 0 0 0 0zm-145 -371l85 219 -193 0 95 -250c5,10 9,20 13,31l0 0zm-2284 1270c33,41 56,48 76,48 15,0 37,-2 49,-11 -16,-9 -33,-24 -65,-59l-194 -210 143 -152c32,-34 60,-71 83,-101 -30,0 -55,1 -71,3 -40,50 -60,74 -92,108l-131 137 0 -163c0,-28 -3,-57 -9,-85 -29,0 -55,3 -69,7 5,43 7,69 7,107l0 372c0,40 14,47 30,47 16,0 32,-2 48,-10 -5,-9 -7,-29 -7,-58l0 -198 202 218 0 0 0 0zm152 -213c0,155 96,262 237,262 148,0 248,-112 248,-274 0,-155 -96,-261 -238,-261 -146,0 -247,111 -247,273zm76 -8c0,-132 67,-222 165,-222 99,0 168,91 168,225 0,133 -67,224 -166,224 -99,0 -167,-92 -167,-227l0 0zm554 -31c0,149 -33,263 -99,263 0,23 15,37 35,37 78,0 130,-129 130,-316l0 -110c0,-22 -1,-42 -2,-63l212 0c2,25 2,47 2,72l0 370c0,40 15,47 31,47 14,0 37,-3 54,-11 -12,-9 -13,-27 -13,-57l0 -358c0,-36 -1,-73 -5,-104l-280 0c-30,0 -61,1 -74,4 7,43 9,71 9,109l0 117 0 0 0 0zm754 46c40,0 47,-7 47,-17 0,-8 -2,-21 -11,-30 -9,4 -26,5 -57,5l-160 0c-11,0 -22,0 -32,1l0 -131c0,-22 -1,-42 -3,-62 13,-1 26,-1 40,-1l196 0c39,0 46,-7 46,-17 0,-9 -3,-22 -10,-31 -9,6 -28,7 -58,7l-185 0c-36,0 -74,1 -105,5 6,42 8,72 8,109l0 376c0,15 3,32 7,41 42,-3 70,-4 108,-4l196 0c40,0 47,-9 47,-19 0,-9 -3,-22 -12,-32 -8,7 -26,8 -56,8l-187 0c-11,0 -21,0 -32,1l0 -208c14,-1 29,-1 44,-1l169 0 0 0 0 0zm443 206c32,41 56,48 77,48 14,0 37,-2 49,-11 -17,-9 -34,-24 -66,-59l-194 -210 144 -152c32,-34 60,-71 82,-101 -30,0 -54,1 -70,3 -42,50 -61,74 -93,108l-130 137 0 -163c0,-28 -4,-57 -10,-85 -29,0 -55,3 -69,7 6,43 7,69 7,107l0 372c0,40 14,47 30,47 16,0 32,-2 48,-10 -6,-9 -6,-29 -6,-58l0 -198 201 218 0 0 0 0zm627 133c0,40 13,46 26,46 13,0 33,-2 47,-10 -10,-9 -12,-28 -12,-57l0 -86c0,-9 -3,-22 -11,-32 -9,7 -25,8 -56,8l-17 0c-1,-7 -1,-16 -1,-25l0 -358c0,-36 -1,-72 -4,-104 -30,0 -59,4 -72,7 5,43 6,71 6,109l0 371 -230 0c-12,0 -23,0 -33,1 -1,-6 0,-14 0,-23l0 -361c0,-36 -2,-72 -5,-104 -31,0 -61,4 -74,7 7,43 8,71 8,109l0 377c0,15 3,32 7,41 43,-3 71,-4 108,-4l313 0 0 88 0 0 0 0zm151 -132c0,40 13,47 29,47 14,0 37,-3 53,-11 -10,-9 -12,-27 -12,-57l0 -361c0,-36 -1,-73 -5,-104 -29,0 -60,3 -73,7 6,43 8,71 8,109l0 370 0 0 0 0zm452 0c0,40 13,47 29,47 14,0 38,-3 53,-11 -11,-9 -12,-27 -12,-57l0 -361c0,-36 -2,-73 -5,-104 -42,2 -71,3 -109,3l-43 0c-114,0 -192,63 -192,155 0,76 55,130 139,145l-106 160c-19,30 -34,50 -48,59 10,9 30,11 42,11 17,0 36,-7 60,-48l116 -179 76 0 0 180 0 0 0 0zm-94 -442l90 0c3,24 4,46 4,72l0 147 -92 0c-69,0 -114,-44 -114,-109 0,-66 45,-110 112,-110l0 0 0 0z"/>
   <path id="_1" class="fil1" d="M1156 499c0,40 14,47 30,47 14,0 37,-4 54,-11 -11,-8 -13,-27 -13,-57l0 -361c0,-35 -1,-72 -5,-104 -29,0 -58,4 -71,7 4,43 5,71 5,108l0 126 -264 0 0 -137c0,-35 -2,-72 -6,-104 -30,0 -60,4 -73,7 6,43 7,71 7,108l0 371c0,40 13,47 29,47 13,0 35,-4 51,-11 -8,-8 -8,-27 -8,-57l0 -183 264 0 0 204 0 0zm169 -214c0,155 96,261 237,261 148,0 247,-111 247,-273 0,-155 -96,-261 -237,-261 -146,0 -247,112 -247,273zm76 -7c0,-133 66,-223 165,-223 99,0 168,92 168,226 0,132 -67,222 -166,222 -99,0 -167,-91 -167,-225zm855 -133c0,-77 -59,-129 -148,-129l-136 0c-29,0 -59,4 -72,7 5,42 7,70 7,108l0 375c0,16 3,32 7,42 42,-5 70,-6 108,-6l90 0c100,0 168,-58 168,-144 0,-65 -40,-115 -102,-133 49,-22 78,-64 78,-120l0 0zm-278 333l0 -189 120 0c63,0 106,46 106,108 0,61 -41,104 -104,104l-89 0c-11,0 -22,0 -33,1 -1,-8 0,-15 0,-24l0 0zm108 -231l-108 0 0 -128c0,-19 -1,-41 -1,-61l108 0c56,0 95,39 95,96 0,56 -37,93 -94,93l0 0 0 0zm637 252c16,40 34,47 50,47 15,0 38,-4 52,-11 -14,-8 -23,-26 -35,-57l-142 -361c-14,-35 -30,-72 -46,-104 -30,0 -59,4 -71,7 -11,42 -24,80 -36,108l-146 371c-5,17 -8,28 -8,34 0,9 6,13 15,13 12,0 31,-4 48,-11 0,-12 5,-30 16,-57l33 -90 227 0 43 111 0 0 0 0zm-145 -371l85 219 -193 0 95 -250c5,10 9,20 13,31l0 0zm-2284 1270c33,41 56,48 76,48 15,0 37,-2 49,-11 -16,-9 -33,-24 -65,-59l-194 -210 143 -152c32,-34 60,-71 83,-101 -30,0 -55,1 -71,3 -40,50 -60,74 -92,108l-131 137 0 -163c0,-28 -3,-57 -9,-85 -29,0 -55,3 -69,7 5,43 7,69 7,107l0 372c0,40 14,47 30,47 16,0 32,-2 48,-10 -5,-9 -7,-29 -7,-58l0 -198 202 218 0 0 0 0zm152 -213c0,155 96,262 237,262 148,0 248,-112 248,-274 0,-155 -96,-261 -238,-261 -146,0 -247,111 -247,273zm76 -8c0,-132 67,-222 165,-222 99,0 168,91 168,225 0,133 -67,224 -166,224 -99,0 -167,-92 -167,-227l0 0zm554 -31c0,149 -33,263 -99,263 0,23 15,37 35,37 78,0 130,-129 130,-316l0 -110c0,-22 -1,-42 -2,-63l212 0c2,25 2,47 2,72l0 370c0,40 15,47 31,47 14,0 37,-3 54,-11 -12,-9 -13,-27 -13,-57l0 -358c0,-36 -1,-73 -5,-104l-280 0c-30,0 -61,1 -74,4 7,43 9,71 9,109l0 117 0 0 0 0zm754 46c40,0 47,-7 47,-17 0,-8 -2,-21 -11,-30 -9,4 -26,5 -57,5l-160 0c-11,0 -22,0 -32,1l0 -131c0,-22 -1,-42 -3,-62 13,-1 26,-1 40,-1l196 0c39,0 46,-7 46,-17 0,-9 -3,-22 -10,-31 -9,6 -28,7 -58,7l-185 0c-36,0 -74,1 -105,5 6,42 8,72 8,109l0 376c0,15 3,32 7,41 42,-3 70,-4 108,-4l196 0c40,0 47,-9 47,-19 0,-9 -3,-22 -12,-32 -8,7 -26,8 -56,8l-187 0c-11,0 -21,0 -32,1l0 -208c14,-1 29,-1 44,-1l169 0 0 0 0 0zm443 206c32,41 56,48 77,48 14,0 37,-2 49,-11 -17,-9 -34,-24 -66,-59l-194 -210 144 -152c32,-34 60,-71 82,-101 -30,0 -54,1 -70,3 -42,50 -61,74 -93,108l-130 137 0 -163c0,-28 -4,-57 -10,-85 -29,0 -55,3 -69,7 6,43 7,69 7,107l0 372c0,40 14,47 30,47 16,0 32,-2 48,-10 -6,-9 -6,-29 -6,-58l0 -198 201 218 0 0 0 0zm627 133c0,40 13,46 26,46 13,0 33,-2 47,-10 -10,-9 -12,-28 -12,-57l0 -86c0,-9 -3,-22 -11,-32 -9,7 -25,8 -56,8l-17 0c-1,-7 -1,-16 -1,-25l0 -358c0,-36 -1,-72 -4,-104 -30,0 -59,4 -72,7 5,43 6,71 6,109l0 371 -230 0c-12,0 -23,0 -33,1 -1,-6 0,-14 0,-23l0 -361c0,-36 -2,-72 -5,-104 -31,0 -61,4 -74,7 7,43 8,71 8,109l0 377c0,15 3,32 7,41 43,-3 71,-4 108,-4l313 0 0 88 0 0 0 0zm151 -132c0,40 13,47 29,47 14,0 37,-3 53,-11 -10,-9 -12,-27 -12,-57l0 -361c0,-36 -1,-73 -5,-104 -29,0 -60,3 -73,7 6,43 8,71 8,109l0 370 0 0 0 0zm452 0c0,40 13,47 29,47 14,0 38,-3 53,-11 -11,-9 -12,-27 -12,-57l0 -361c0,-36 -2,-73 -5,-104 -42,2 -71,3 -109,3l-43 0c-114,0 -192,63 -192,155 0,76 55,130 139,145l-106 160c-19,30 -34,50 -48,59 10,9 30,11 42,11 17,0 36,-7 60,-48l116 -179 76 0 0 180 0 0 0 0zm-94 -442l90 0c3,24 4,46 4,72l0 147 -92 0c-69,0 -114,-44 -114,-109 0,-66 45,-110 112,-110l0 0 0 0z"/>
  </g>
 </g>
</svg>
