<?xml version="1.0" encoding="UTF-8"?>
<!DOCTYPE svg PUBLIC "-//W3C//DTD SVG 1.1//EN" "http://www.w3.org/Graphics/SVG/1.1/DTD/svg11.dtd">
<!-- Creator: CorelDRAW X7 -->
<svg xmlns="http://www.w3.org/2000/svg" xml:space="preserve" width="27.8464mm" height="3.87mm" version="1.1" style="shape-rendering:geometricPrecision; text-rendering:geometricPrecision; image-rendering:optimizeQuality; fill-rule:evenodd; clip-rule:evenodd"
viewBox="0 0 2019328 280640"
 xmlns:xlink="http://www.w3.org/1999/xlink">
 <defs>
  <style type="text/css">
   <![CDATA[
    .str0 {stroke:#FEFEFE;stroke-width:18129.2}
    .fil0 {fill:none;fill-rule:nonzero}
    .fil1 {fill:#2B2A29;fill-rule:nonzero}
   ]]>
  </style>
 </defs>
 <g id="Слой_x0020_1">
  <metadata id="CorelCorpID_0Corel-Layer"/>
  <g>
   <path class="fil0 str0" d="M85809 267935c69217,0 104366,-76389 104366,-155288 0,-62763 -27614,-97194 -76389,-97194 -70291,0 -104721,76752 -104721,155295 0,63836 27969,97187 76744,97187zm2872 -52357c-14707,0 -22597,-15069 -22597,-40885 0,-41966 11480,-107238 44112,-107238 15425,0 22597,15062 22597,42321 0,41958 -11117,105802 -44112,105802zm195098 52357c57383,0 92176,-41959 92176,-98986 0,-42320 -25467,-62763 -54518,-62763 -13981,0 -28332,4663 -41240,12553l-362 -356c15069,-27614 41247,-47701 79978,-62763l-8963 -44830c-85359,18289 -138797,94685 -138797,177529 0,51283 30131,79616 71726,79616zm4308 -49130c-15780,0 -24387,-15780 -24387,-36585 0,-5018 355,-9681 1073,-14706 9325,-10399 22596,-17209 33358,-17209 16852,0 24024,9319 24024,25461 0,23314 -15061,43039 -34068,43039zm186846 49130c57383,0 92176,-41959 92176,-98986 0,-42320 -25468,-62763 -54518,-62763 -13981,0 -28332,4663 -41240,12553l-363 -356c15069,-27614 41248,-47701 79979,-62763l-8963 -44830c-85359,18289 -138797,94685 -138797,177529 0,51283 30131,79616 71726,79616zm4308 -49130c-15780,0 -24387,-15780 -24387,-36585 0,-5018 355,-9681 1073,-14706 9325,-10399 22596,-17209 33357,-17209 16853,0 24025,9319 24025,25461 0,23314 -15061,43039 -34068,43039zm258573 49130c69217,0 104366,-76389 104366,-155288 0,-62763 -27615,-97194 -76389,-97194 -70291,0 -104722,76752 -104722,155295 0,63836 27970,97187 76745,97187zm2871 -52357c-14706,0 -22596,-15069 -22596,-40885 0,-41966 11479,-107238 44112,-107238 15424,0 22596,15062 22596,42321 0,41958 -11117,105802 -44112,105802zm195099 52357c57383,0 92176,-41959 92176,-98986 0,-42320 -25468,-62763 -54518,-62763 -13981,0 -28332,4663 -41240,12553l-363 -356c15069,-27614 41248,-47701 79979,-62763l-8963 -44830c-85360,18289 -138797,94685 -138797,177529 0,51283 30131,79616 71726,79616zm4308 -49130c-15780,0 -24388,-15780 -24388,-36585 0,-5018 356,-9681 1073,-14706 9326,-10399 22597,-17209 33358,-17209 16853,0 24025,9319 24025,25461 0,23314 -15062,43039 -34068,43039zm221640 -200480l-44830 0 -76752 54155 22952 42676 33713 -25105 -21516 174657 56302 0 30131 -246383zm75308 210161l-3227 36222 148115 0 6454 -50566 -72444 0 0 -718 39449 -40530c28695,-29768 47702,-57382 47702,-94678 0,-39811 -30124,-63118 -65273,-63118 -36577,0 -66345,20080 -82125,45903l37296 30123c10043,-15779 24750,-24387 35866,-24387 11473,0 17216,7535 17216,19007 0,22958 -19369,45547 -35867,63125l-73162 79617zm254273 39449c57382,0 92175,-41959 92175,-98986 0,-42320 -25467,-62763 -54518,-62763 -13981,0 -28332,4663 -41240,12553l-362 -356c15069,-27614 41247,-47701 79978,-62763l-8963 -44830c-85359,18289 -138797,94685 -138797,177529 0,51283 30131,79616 71727,79616zm4307 -49130c-15780,0 -24387,-15780 -24387,-36585 0,-5018 355,-9681 1073,-14706 9326,-10399 22596,-17209 33358,-17209 16852,0 24024,9319 24024,25461 0,23314 -15061,43039 -34068,43039zm328870 -200480l-138797 0 -6091 50211 77107 0 -87513 191871 55236 10037 95751 -215897 4307 -36222zm81408 249610c69217,0 104366,-76389 104366,-155288 0,-62763 -27615,-97194 -76390,-97194 -70290,0 -104721,76752 -104721,155295 0,63836 27970,97187 76745,97187zm2871 -52357c-14706,0 -22596,-15069 -22596,-40885 0,-41966 11479,-107238 44112,-107238 15424,0 22596,15062 22596,42321 0,41958 -11117,105802 -44112,105802z"/>
   <path id="1" class="fil1" d="M85809 267935c69217,0 104366,-76389 104366,-155288 0,-62763 -27614,-97194 -76389,-97194 -70291,0 -104721,76752 -104721,155295 0,63836 27969,97187 76744,97187zm2872 -52357c-14707,0 -22597,-15069 -22597,-40885 0,-41966 11480,-107238 44112,-107238 15425,0 22597,15062 22597,42321 0,41958 -11117,105802 -44112,105802zm195098 52357c57383,0 92176,-41959 92176,-98986 0,-42320 -25467,-62763 -54518,-62763 -13981,0 -28332,4663 -41240,12553l-362 -356c15069,-27614 41247,-47701 79978,-62763l-8963 -44830c-85359,18289 -138797,94685 -138797,177529 0,51283 30131,79616 71726,79616zm4308 -49130c-15780,0 -24387,-15780 -24387,-36585 0,-5018 355,-9681 1073,-14706 9325,-10399 22596,-17209 33358,-17209 16852,0 24024,9319 24024,25461 0,23314 -15061,43039 -34068,43039zm186846 49130c57383,0 92176,-41959 92176,-98986 0,-42320 -25468,-62763 -54518,-62763 -13981,0 -28332,4663 -41240,12553l-363 -356c15069,-27614 41248,-47701 79979,-62763l-8963 -44830c-85359,18289 -138797,94685 -138797,177529 0,51283 30131,79616 71726,79616zm4308 -49130c-15780,0 -24387,-15780 -24387,-36585 0,-5018 355,-9681 1073,-14706 9325,-10399 22596,-17209 33357,-17209 16853,0 24025,9319 24025,25461 0,23314 -15061,43039 -34068,43039zm258573 49130c69217,0 104366,-76389 104366,-155288 0,-62763 -27615,-97194 -76389,-97194 -70291,0 -104722,76752 -104722,155295 0,63836 27970,97187 76745,97187zm2871 -52357c-14706,0 -22596,-15069 -22596,-40885 0,-41966 11479,-107238 44112,-107238 15424,0 22596,15062 22596,42321 0,41958 -11117,105802 -44112,105802zm195099 52357c57383,0 92176,-41959 92176,-98986 0,-42320 -25468,-62763 -54518,-62763 -13981,0 -28332,4663 -41240,12553l-363 -356c15069,-27614 41248,-47701 79979,-62763l-8963 -44830c-85360,18289 -138797,94685 -138797,177529 0,51283 30131,79616 71726,79616zm4308 -49130c-15780,0 -24388,-15780 -24388,-36585 0,-5018 356,-9681 1073,-14706 9326,-10399 22597,-17209 33358,-17209 16853,0 24025,9319 24025,25461 0,23314 -15062,43039 -34068,43039zm221640 -200480l-44830 0 -76752 54155 22952 42676 33713 -25105 -21516 174657 56302 0 30131 -246383zm75308 210161l-3227 36222 148115 0 6454 -50566 -72444 0 0 -718 39449 -40530c28695,-29768 47702,-57382 47702,-94678 0,-39811 -30124,-63118 -65273,-63118 -36577,0 -66345,20080 -82125,45903l37296 30123c10043,-15779 24750,-24387 35866,-24387 11473,0 17216,7535 17216,19007 0,22958 -19369,45547 -35867,63125l-73162 79617zm254273 39449c57382,0 92175,-41959 92175,-98986 0,-42320 -25467,-62763 -54518,-62763 -13981,0 -28332,4663 -41240,12553l-362 -356c15069,-27614 41247,-47701 79978,-62763l-8963 -44830c-85359,18289 -138797,94685 -138797,177529 0,51283 30131,79616 71727,79616zm4307 -49130c-15780,0 -24387,-15780 -24387,-36585 0,-5018 355,-9681 1073,-14706 9326,-10399 22596,-17209 33358,-17209 16852,0 24024,9319 24024,25461 0,23314 -15061,43039 -34068,43039zm328870 -200480l-138797 0 -6091 50211 77107 0 -87513 191871 55236 10037 95751 -215897 4307 -36222zm81408 249610c69217,0 104366,-76389 104366,-155288 0,-62763 -27615,-97194 -76390,-97194 -70290,0 -104721,76752 -104721,155295 0,63836 27970,97187 76745,97187zm2871 -52357c-14706,0 -22596,-15069 -22596,-40885 0,-41966 11479,-107238 44112,-107238 15424,0 22596,15062 22596,42321 0,41958 -11117,105802 -44112,105802z"/>
  </g>
 </g>
</svg>
