<?xml version="1.0" encoding="UTF-8"?>
<!DOCTYPE svg PUBLIC "-//W3C//DTD SVG 1.1//EN" "http://www.w3.org/Graphics/SVG/1.1/DTD/svg11.dtd">
<!-- Creator: CorelDRAW X7 -->
<svg xmlns="http://www.w3.org/2000/svg" xml:space="preserve" width="37.0626mm" height="72.4315mm" version="1.1" style="shape-rendering:geometricPrecision; text-rendering:geometricPrecision; image-rendering:optimizeQuality; fill-rule:evenodd; clip-rule:evenodd"
viewBox="0 0 3706 7243"
 xmlns:xlink="http://www.w3.org/1999/xlink">
 <defs>
  <style type="text/css">
   <![CDATA[
    .str0 {stroke:#2B2A29;stroke-width:20}
    .fil0 {fill:black}
    .fil1 {fill:#FEFEFE;fill-rule:nonzero}
    .fil3 {fill:#E31E24;fill-rule:nonzero}
    .fil2 {fill:#FEFEFE;fill-rule:nonzero}
   ]]>
  </style>
 </defs>
 <g id="Слой_x0020_1">
  <metadata id="CorelCorpID_0Corel-Layer"/>
  <rect class="fil0 str0" x="10" y="10" width="3686" height="7223"/>
  <path class="fil1" d="M1139 1395c9,0 18,-5 23,-14l61 -172 0 172c0,9 9,14 18,14l28 0c10,0 19,-5 19,-14l0 -219c0,-9 -9,-14 -14,-14l-75 0c-9,0 -18,5 -18,14l-52 149 -51 -149c-4,-9 -14,-14 -23,-14l-70 0c-9,0 -19,5 -19,14l0 219c0,9 10,14 19,14l33 0c9,0 14,-5 14,-14l0 -172 60 172c5,9 14,14 24,14l23 0zm275 -33c-19,0 -28,-9 -28,-23 0,-9 9,-19 23,-19l56 0 0 24c-14,9 -32,18 -51,18zm14 -121c23,0 37,9 37,37l-60 0c-47,0 -80,19 -80,61 0,42 33,61 80,61 28,0 51,-5 65,-19l0 5c0,9 4,9 9,9l37 0c5,0 10,0 10,-9l0 -108c0,-56 -42,-74 -93,-74 -56,0 -94,9 -94,46 0,10 5,14 10,14l28 0c4,0 14,-4 18,-9 5,-9 19,-14 33,-14l0 0zm280 5c9,0 14,-5 14,-10l0 -18c0,-10 -5,-14 -14,-14l-131 0c-5,0 -9,4 -9,14l0 168c0,9 4,9 9,9l42 0c5,0 9,0 9,-9l0 -140 80 0zm107 116c-19,0 -28,-9 -28,-23 0,-9 9,-19 28,-19l51 0 0 24c-9,9 -28,18 -51,18zm18 -121c24,0 33,9 33,37l-56 0c-47,0 -84,19 -84,61 0,42 37,61 84,61 28,0 47,-5 65,-19l0 5c0,9 5,9 10,9l32 0c5,0 10,0 10,-9l0 -108c0,-56 -38,-74 -89,-74 -61,0 -98,9 -98,46 0,10 5,14 9,14l28 0c10,0 14,-4 19,-9 9,-9 23,-14 37,-14zm206 121c-10,0 -24,-4 -28,-14 0,-4 -10,-9 -19,-9l-23 0c-10,0 -14,5 -14,9 0,33 37,52 84,52l37 0c56,0 84,-14 84,-56 0,-24 -14,-38 -33,-47 19,-9 28,-23 28,-42 0,-37 -33,-51 -79,-51l-37 0c-42,0 -80,18 -80,51 0,5 5,9 14,9l24 0c9,0 14,-4 18,-9 5,-9 14,-14 24,-14l32 0c14,0 23,9 23,19 0,14 -9,18 -23,18l-42 0c-4,0 -9,5 -9,14l0 19c0,5 5,9 9,9l47 0c14,0 23,10 23,19 0,14 -9,23 -23,23l-37 0 0 0zm209 -32l0 -112c0,-9 -4,-14 -9,-14l-37 0c-10,0 -14,5 -14,14l0 168c0,9 4,9 14,9l46 0c10,0 19,-5 24,-9l60 -112 0 112c0,9 5,9 10,9l37 0c4,0 9,0 9,-9l0 -168c0,-9 -5,-14 -9,-14l-51 0c-5,0 -14,9 -19,14l-61 112zm243 -112c0,-9 -5,-14 -10,-14l-37 0c-9,0 -14,5 -14,14l0 168c0,9 5,9 14,9l37 0c5,0 10,0 10,-9l0 -66 79 0 0 66c0,9 5,9 9,9l38 0c9,0 14,0 14,-9l0 -168c0,-9 -5,-14 -14,-14l-38 0c-4,0 -9,5 -9,14l0 60 -79 0 0 -60z"/>
  <path class="fil1" d="M384 878c-7,20 0,33 19,33l70 0c20,0 39,-13 45,-33l19 -83 250 0 0 83c0,20 13,33 32,33l71 0c13,0 32,-13 32,-33l0 -435c0,-19 -13,-32 -32,-32l-186 0c-102,0 -205,25 -237,134l-83 333 0 0zm211 -301c13,-38 51,-70 96,-70l96 0 0 186 -224 0 32 -116 0 0zm461 -166c-19,0 -38,13 -38,32l0 435c0,20 19,33 38,33l193 0c205,0 294,-77 294,-250 0,-173 -89,-250 -294,-250l-193 0zm193 96c128,0 160,45 160,154 0,109 -32,153 -160,153l-96 0 0 -307 96 0zm583 224c45,0 70,26 89,58l58 89c13,20 32,33 51,33l84 0c19,0 25,-13 12,-33l-64 -96c-25,-51 -51,-70 -77,-83 71,-13 129,-51 129,-128 0,-103 -77,-160 -180,-160l-288 0c-19,0 -32,13 -32,32l0 435c0,20 13,33 32,33l64 0c19,0 32,-13 32,-33l0 -147 90 0zm64 -224c38,0 89,19 89,64 0,45 -51,58 -89,58l-154 0 0 -122 154 0zm730 -96l-403 0c-13,0 -33,13 -33,32l0 435c0,20 13,33 33,33l403 0c19,0 32,-13 32,-33l0 -32c0,-19 -13,-32 -32,-32l-301 0 0 -102 263 0c19,0 32,-13 32,-32l0 -32c0,-19 -13,-39 -32,-39l-263 0 0 -102 301 0c19,0 39,-13 39,-32l0 -32c0,-19 -20,-32 -39,-32l0 0zm77 141c0,192 378,141 378,224 0,26 -19,38 -64,38l-122 0c-32,0 -64,-6 -70,-32 -13,-25 -32,-32 -51,-32l-39 0c-13,0 -38,7 -38,39 0,77 96,128 185,128l109 0c173,0 225,-58 225,-147 0,-186 -385,-141 -385,-225 0,-25 19,-38 64,-38l109 0c32,0 58,13 71,38 12,20 25,32 51,32l38 0c13,0 39,-6 39,-38 0,-77 -96,-128 -192,-128l-84 0c-173,0 -224,57 -224,141l0 0z"/>
  <path class="fil1" d="M747 1639c0,51 28,65 84,65l47 0 0 51c0,5 4,9 9,9l37 0c10,0 14,-4 14,-9l0 -168c0,-9 -4,-14 -14,-14l-37 0c-5,0 -9,5 -9,14l0 75 -47 0c-14,0 -23,-5 -23,-23l0 -52c0,-9 -5,-14 -9,-14l-42 0c-5,0 -10,5 -10,14l0 52zm327 93c-28,0 -42,-19 -42,-61 0,-42 14,-60 42,-60 32,0 46,18 46,60 0,42 -14,61 -46,61zm0 -159c-66,0 -103,33 -103,98 0,65 37,98 103,98 69,0 107,-33 107,-98 0,-65 -38,-98 -107,-98zm209 70c5,-18 14,-28 33,-28l33 0 0 140c0,5 4,9 9,9l37 0c10,0 14,-4 14,-9l0 -168c0,-9 -4,-14 -14,-14l-79 0c-42,0 -79,14 -89,56l-32 126c0,5 4,9 9,9l37 0c5,0 14,-4 14,-9l28 -112 0 0zm261 89c-28,0 -42,-19 -42,-61 0,-42 14,-60 42,-60 33,0 47,18 47,60 0,42 -14,61 -47,61zm0 -159c-65,0 -102,33 -102,98 0,65 37,98 102,98 70,0 108,-33 108,-98 0,-65 -38,-98 -108,-98zm261 191c47,0 80,-9 80,-51 0,-23 -14,-37 -33,-46 14,-10 23,-24 23,-38 0,-37 -37,-56 -74,-56l-107 0c-5,0 -10,5 -10,14l0 168c0,5 5,9 10,9l111 0 0 0zm-4 -74c14,0 23,4 23,18 0,10 -9,19 -23,19l-56 0 0 -37 56 0zm-56 -42l0 -33 51 0c9,0 19,5 19,19 0,9 -10,14 -19,14l-51 0zm219 116c5,0 9,-4 9,-9l0 -163c0,-9 -4,-14 -9,-14l-37 0c-10,0 -14,5 -14,14l0 163c0,5 4,9 14,9l37 0zm-51 -223c0,9 9,18 18,18l24 0c14,0 18,-9 18,-18l0 -10c0,-9 -4,-18 -18,-18l-24 0c-9,0 -18,9 -18,18l0 10zm93 98c0,51 28,65 84,65l46 0 0 51c0,5 5,9 10,9l42 0c4,0 9,-4 9,-9l0 -168c0,-9 -5,-14 -9,-14l-42 0c-5,0 -10,5 -10,14l0 75 -46 0c-10,0 -23,-5 -23,-23l0 -52c0,-9 -5,-14 -10,-14l-37 0c-9,0 -14,5 -14,14l0 52zm331 93c-33,0 -47,-19 -47,-61 0,-42 14,-60 47,-60 28,0 42,18 42,60 0,42 -14,61 -42,61zm0 -159c-70,0 -107,33 -107,98 0,65 37,98 107,98 65,0 102,-33 102,-98 0,-65 -37,-98 -102,-98zm275 42c9,0 14,-4 14,-9l0 -19c0,-9 -5,-14 -14,-14l-131 0c-4,0 -9,5 -9,14l0 168c0,5 5,9 9,9l42 0c5,0 10,-4 10,-9l0 -140 79 0zm130 117c-28,0 -42,-19 -42,-61 0,-42 14,-60 42,-60 33,0 47,18 47,60 0,42 -14,61 -47,61zm0 -159c-65,0 -102,33 -102,98 0,65 37,98 102,98 70,0 108,-33 108,-98 0,-65 -38,-98 -108,-98z"/>
  <path class="fil1" d="M1351 2088c-33,0 -46,-19 -46,-62 0,-43 13,-62 46,-62 29,0 46,19 46,62 0,43 -17,62 -46,62zm0 -164c-69,0 -109,33 -109,102 0,69 40,102 109,102 68,0 108,-33 108,-102 0,-69 -40,-102 -108,-102zm327 200c7,0 13,-3 13,-9l0 -177c0,-4 -6,-10 -13,-10l-82 0c-39,0 -78,10 -88,55l-23 99 -16 0c-7,0 -10,3 -10,10l0 23c0,6 3,9 10,9l209 0zm-137 -42l23 -85c3,-20 16,-27 32,-27l33 0 0 112 -88 0zm321 -26l0 59c0,6 3,9 10,9l39 0c7,0 10,-3 10,-9l0 -177c0,-4 -3,-10 -10,-10l-105 0c-49,0 -82,16 -82,62 0,33 17,49 40,59l-36 59c-4,10 -4,16 6,16l33 0c13,0 23,-6 29,-16l30 -52 36 0zm-49 -43c-17,0 -26,-7 -26,-23 0,-13 9,-20 26,-20l49 0 0 43 -49 0zm298 -43c7,0 13,-3 13,-9l0 -23c0,-4 -6,-10 -13,-10l-134 0c-7,0 -10,6 -10,10l0 177c0,6 3,9 10,9l39 0c7,0 13,-3 13,-9l0 -145 82 0 0 0zm98 177c-6,0 -16,-3 -23,-3l-6 0c-7,0 -10,3 -10,10l0 20c0,6 3,9 10,13 13,0 33,3 46,3 42,0 65,-26 82,-85l46 -167c3,-4 -4,-10 -7,-10l-39 0c-7,0 -13,6 -17,13l-32 124c-17,0 -30,-9 -40,-49l-26 -75c0,-7 -7,-13 -13,-13l-39 0c-7,0 -10,6 -7,10l26 88c20,66 46,82 85,82 -6,26 -19,39 -36,39l0 0z"/>
  <path class="fil2" d="M899 2822c0,9 9,18 18,18l31 0c9,0 14,-9 14,-18l0 -211c0,-9 -5,-13 -14,-13l-31 0c-9,0 -18,4 -18,13l0 76 -112 0 0 -76c0,-9 -9,-13 -18,-13l-32 0c-9,0 -18,4 -18,13l0 211c0,9 9,18 18,18l32 0c9,0 18,-9 18,-18l0 -85 112 0 0 85zm202 -18c-32,0 -45,-18 -45,-58 0,-41 13,-59 45,-59 27,0 40,18 40,59 0,40 -13,58 -40,58zm0 -152c-68,0 -103,31 -103,94 0,63 35,94 103,94 63,0 98,-31 98,-94 0,-63 -35,-94 -98,-94zm251 188c45,0 72,-14 72,-54 0,-22 -14,-36 -27,-45 13,-9 18,-22 18,-36 0,-36 -32,-49 -72,-49l-99 0c-9,0 -13,4 -13,9l0 161c0,9 4,14 13,14l108 0 0 0zm-4 -76c13,0 17,4 17,18 0,13 -4,18 -17,18l-59 0 0 -36 59 0zm-59 -36l0 -36 50 0c13,0 18,4 18,18 0,9 -5,18 -18,18l-50 0zm256 76c-31,0 -45,-18 -45,-58 0,-41 14,-59 45,-59 27,0 45,18 45,59 0,40 -18,58 -45,58zm0 -152c-67,0 -103,31 -103,94 0,63 36,94 103,94 63,0 103,-31 103,-94 0,-63 -40,-94 -103,-94zm229 40c31,0 40,18 40,54 0,40 -9,54 -40,54 -9,0 -23,0 -36,-5l0 -90c9,-9 27,-13 36,-13l0 0zm13 -40c-22,0 -40,8 -58,17l0 -4c0,-5 -5,-9 -9,-9l-31 0c-5,0 -9,4 -9,9l0 220c0,4 4,9 9,9l35 0c9,0 14,-5 14,-9l0 -54c13,4 27,9 45,9 54,0 89,-31 89,-94 0,-63 -35,-94 -85,-94zm166 188c5,0 9,-5 9,-14l0 -157c0,-9 -4,-13 -9,-13l-36 0c-4,0 -9,4 -9,13l0 157c0,9 5,14 9,14l36 0zm-49 -220c0,9 9,18 22,18l18 0c14,0 23,-9 23,-18l0 -9c0,-9 -9,-18 -23,-18l-18 0c-13,0 -22,9 -22,18l0 9zm94 94c0,50 27,63 81,63l40 0 0 49c0,9 5,14 14,14l36 0c4,0 9,-5 9,-14l0 -161c0,-5 -5,-9 -9,-9l-36 0c-9,0 -14,4 -14,9l0 72 -40 0c-14,0 -23,-5 -23,-23l0 -49c0,-5 -4,-9 -13,-9l-36 0c-4,0 -9,4 -9,9l0 49zm278 -49c0,-5 -4,-9 -9,-9l-36 0c-9,0 -13,4 -13,9l0 161c0,9 4,14 13,14l36 0c5,0 9,-5 9,-14l0 -62 77 0 0 62c0,9 4,14 9,14l40 0c4,0 9,-5 9,-14l0 -161c0,-5 -5,-9 -9,-9l-40 0c-5,0 -9,4 -9,9l0 58 -77 0 0 -58zm234 108l0 -108c0,-5 -5,-9 -14,-9l-36 0c-4,0 -9,4 -9,9l0 161c0,9 5,14 9,14l50 0c4,0 13,-9 18,-14l58 -107 0 107c0,9 4,14 13,14l32 0c9,0 13,-5 13,-14l0 -161c0,-5 -4,-9 -13,-9l-45 0c-9,0 -14,4 -18,9l-58 108 0 0zm224 -193c-5,0 -9,4 -9,9 0,27 22,45 54,45 36,0 58,-18 58,-45 0,-5 -4,-9 -9,-9l-13 0c-5,0 -9,4 -14,9 0,9 -9,13 -22,13 -9,0 -18,-4 -23,-13 0,-5 -4,-9 -9,-9l-13 0 0 0zm4 193l0 -108c0,-5 -4,-9 -9,-9l-35 0c-5,0 -9,4 -9,9l0 161c0,9 4,14 9,14l49 0c4,0 13,-9 18,-14l58 -107 0 107c0,9 5,14 14,14l31 0c9,0 14,-5 14,-14l0 -161c0,-5 -5,-9 -14,-9l-45 0c-9,0 -18,4 -18,9l-63 108 0 0z"/>
  <path class="fil3" d="M1074 3460c31,0 49,9 49,36 0,23 -18,32 -49,32l-50 0c-9,0 -18,9 -18,18l0 18c0,9 9,18 23,18l54 0c27,0 45,9 45,36 0,22 -18,31 -45,31l-68 0c-18,0 -36,-9 -44,-27 -9,-18 -18,-22 -32,-22l-22 0c-9,0 -23,4 -23,22 0,54 63,85 112,85l81 0c72,0 121,-22 121,-89 0,-27 -9,-50 -36,-63 23,-14 32,-36 32,-59 0,-71 -58,-94 -126,-94l-63 0c-53,0 -116,32 -116,81 0,22 18,27 22,27l27 0c14,0 23,-9 27,-23 9,-18 27,-27 49,-27l50 0zm242 27c0,-4 -4,-13 -9,-13l-49 0c-9,0 -14,9 -14,13l0 207c0,4 5,13 14,13l49 0c5,0 9,-9 9,-13l0 -81 94 0 0 81c0,4 5,13 14,13l45 0c9,0 13,-9 13,-13l0 -207c0,-4 -4,-13 -13,-13l-45 0c-9,0 -14,9 -14,13l0 77 -94 0 0 -77zm287 139l0 -139c0,-4 -4,-13 -13,-13l-41 0c-9,0 -13,9 -13,13l0 207c0,4 4,13 13,13l59 0c9,0 18,-9 22,-18l76 -134 0 139c0,4 5,13 9,13l45 0c9,0 14,-9 14,-13l0 -207c0,-4 -5,-13 -14,-13l-58 0c-9,0 -18,9 -22,18l-77 134 0 0zm409 81c9,0 13,-9 13,-13l0 -81c18,0 31,9 40,31l23 41c9,13 18,22 31,22l41 0c13,0 13,-9 9,-22l-32 -59c-13,-17 -22,-31 -45,-35 23,-5 36,-23 45,-41l23 -54c4,-13 4,-22 -9,-22l-41 0c-13,0 -22,9 -27,22l-18 41c-9,18 -22,31 -40,31l0 -81c0,-4 -4,-13 -13,-13l-50 0c-4,0 -9,9 -9,13l0 81c-22,0 -36,-13 -45,-31l-13 -41c-5,-13 -18,-22 -31,-22l-41 0c-9,0 -9,9 -4,22l22 54c5,18 23,36 45,41 -22,4 -36,18 -45,35l-31 59c-9,13 -5,22 4,22l41 0c13,0 26,-9 31,-22l22 -41c9,-22 27,-31 45,-31l0 81c0,4 5,13 9,13l50 0 0 0zm408 -211c4,-13 4,-22 -5,-22l-40 0c-13,0 -27,9 -31,22l-18 41c-9,18 -27,31 -54,31l0 -81c0,-4 -5,-13 -9,-13l-49 0c-5,0 -14,9 -14,13l0 207c0,4 9,13 14,13l49 0c4,0 9,-9 9,-13l0 -81c22,0 40,9 54,31l27 41c4,13 18,22 31,22l40 0c9,0 14,-9 5,-22l-36 -59c-13,-17 -27,-31 -45,-35 18,-5 36,-18 45,-41l27 -54zm112 130l0 -139c0,-4 -4,-13 -13,-13l-41 0c-9,0 -13,9 -13,13l0 207c0,4 4,13 13,13l59 0c9,0 18,-9 22,-18l76 -134 0 139c0,4 5,13 14,13l40 0c9,0 14,-9 14,-13l0 -207c0,-4 -5,-13 -14,-13l-58 0c-9,0 -18,9 -23,18l-76 134z"/>
  <path class="fil2" d="M590 4578c0,6 5,11 11,11l16 0c5,0 10,-5 10,-11l11 -21 64 0 0 21c0,6 6,11 11,11l16 0c5,0 11,-5 11,-11l0 -117c0,-5 -6,-11 -6,-11l-53 0c-27,0 -59,11 -64,38l-27 90zm59 -80c5,-10 16,-21 27,-21l26 0 0 53 -59 0 6 -32 0 0zm219 -5c0,-5 0,-11 -6,-11l-16 0c-5,0 -10,6 -16,11l-10 21c0,6 -11,11 -22,11l0 -37c0,0 0,-6 -5,-6l-21 0c-6,0 -6,6 -6,6l0 96c0,5 0,5 6,5l21 0c5,0 5,0 5,-5l0 -38c11,0 16,6 22,16l16 16c0,6 5,11 16,11l16 0c5,0 5,-5 5,-11l-16 -26c-11,-6 -16,-11 -21,-16 5,0 16,-6 21,-16l11 -27 0 0zm128 -5c0,0 -6,-6 -6,-6l-21 0c-5,0 -11,6 -11,6l0 80 -37 0 0 -80c0,0 -5,-6 -5,-6l-22 0c-5,0 -10,6 -10,6l0 96c0,5 5,5 10,5l107 0c5,0 11,0 11,-5l0 -11c0,-5 -6,-5 -11,-5l-5 0 0 -80 0 0zm53 101c5,0 5,0 5,-5l0 -91c0,-5 0,-5 -5,-5l-21 0c0,0 -6,0 -6,5l0 91c0,5 6,5 6,5l21 0zm-27 -123c0,6 6,11 11,11l11 0c10,0 16,-5 16,-11l0 -5c0,-5 -6,-11 -16,-11l-11 0c-5,0 -11,6 -11,11l0 5zm128 86l0 32c0,5 0,5 6,5l21 0c0,0 5,0 5,-5l0 -96c0,0 -5,-6 -5,-6l-59 0c-26,0 -42,11 -42,38 0,16 5,26 21,26l-21 38c0,0 0,5 5,5l16 0c11,0 11,-5 16,-5l16 -32 21 0 0 0zm-26 -22c-11,0 -16,-5 -16,-10 0,-11 5,-16 16,-16l26 0 0 26 -26 0zm261 59c0,0 5,0 5,-5l0 -96c0,0 -5,-6 -5,-6l-48 0c-21,0 -43,6 -48,32l-11 54 -10 0c0,0 -6,0 -6,5l0 11c0,5 6,5 6,5l117 0 0 0zm-75 -21l11 -48c0,-11 11,-11 16,-11l16 0 0 59 -43 0 0 0zm128 21c6,0 6,0 6,-5l0 -91c0,-5 0,-5 -6,-5l-21 0c0,0 -5,0 -5,5l0 91c0,5 5,5 5,5l21 0zm-26 -123c0,6 5,11 10,11l11 0c11,0 16,-5 16,-11l0 -5c0,-5 -5,-11 -16,-11l-11 0c-5,0 -10,6 -10,11l0 5zm112 16c-38,0 -59,16 -59,54 0,37 21,53 59,53 32,0 53,-11 53,-27 0,-5 -5,-10 -5,-10l-16 0c-6,0 -6,5 -11,10 -5,0 -11,6 -21,6 -16,0 -22,-6 -27,-22l37 0c0,0 6,0 6,-5l0 -11c0,0 -6,-5 -6,-5l-37 0c5,-11 11,-21 27,-21 10,0 16,5 21,10 0,0 5,6 11,6l16 0c0,0 5,-6 5,-6 0,-21 -21,-32 -53,-32l0 0zm245 107c5,0 5,0 5,-5l0 -96c0,0 0,-6 -5,-6l-43 0c-21,0 -42,6 -48,32l-10 54 -11 0c-5,0 -5,0 -5,5l0 11c0,5 0,5 5,5l112 0 0 0zm-75 -21l16 -48c0,-11 6,-11 16,-11l16 0 0 59 -48 0 0 0zm160 0c-21,0 -26,-6 -26,-32 0,-22 5,-32 26,-32 16,0 22,10 22,32 0,26 -6,32 -22,32zm0 -86c-37,0 -58,16 -58,54 0,37 21,53 58,53 38,0 54,-16 54,-53 0,-38 -16,-54 -54,-54zm203 -5c22,0 27,5 27,16 0,11 -5,16 -27,16l-10 0c-6,0 -11,5 -11,5l0 11c0,5 5,11 11,11l16 0c16,0 21,0 21,10 0,11 -5,16 -21,16l-16 0c-11,0 -16,-5 -22,-10 -5,-6 -10,-11 -16,-11l-10 0c0,0 -11,0 -11,11 0,26 32,37 59,37l21 0c32,0 53,-11 53,-43 0,-10 -5,-21 -16,-26 11,-6 16,-16 16,-27 0,-32 -26,-43 -58,-43l-16 0c-27,0 -54,16 -54,38 0,10 6,10 11,10l11 0c5,0 10,0 10,-10 6,-6 16,-11 27,-11l5 0 0 0zm112 -27c-5,0 -10,0 -16,6l-21 21c-5,0 -5,5 -5,11l10 5c0,5 6,5 6,0l10 -5 0 90c0,6 6,11 11,11l16 0c5,0 11,-5 11,-11l0 -117c0,-5 -6,-11 -11,-11l-11 0zm43 128c0,6 5,11 16,11l11 0c5,0 10,-5 10,-11l0 -5c0,-11 -5,-16 -10,-16l-11 0c-11,0 -16,5 -16,16l0 5zm123 -101c21,0 37,11 37,43 0,32 -16,42 -37,42 -16,0 -32,-10 -32,-42 0,-32 16,-43 32,-43zm0 -27c-38,0 -70,16 -70,70 0,53 32,69 70,69l5 0c37,0 69,-16 69,-69 0,-54 -32,-70 -69,-70l-5 0zm117 0c0,0 -5,0 -11,6l-26 21c0,0 0,5 0,11l5 5c5,5 11,5 11,0l10 -5 0 90c0,6 6,11 11,11l16 0c5,0 11,-5 11,-11l0 -117c0,-5 -6,-11 -11,-11l-16 0zm48 128c0,6 5,11 11,11l16 0c5,0 10,-5 10,-11l0 -5c0,-11 -5,-16 -10,-16l-16 0c-6,0 -11,5 -11,16l0 5zm53 -10l0 10c0,6 0,11 6,11l106 0c6,0 11,-5 11,-11l0 -5c0,-5 -5,-11 -11,-11l-80 0c0,-21 91,-10 91,-64 0,-37 -27,-48 -59,-48l-10 0c-27,0 -54,16 -54,38 0,10 6,10 11,10l11 0c5,0 5,0 10,-10 6,-6 11,-11 27,-11l5 0c16,0 27,5 27,21 0,27 -91,11 -91,70l0 0zm171 -118c-5,0 -11,0 -16,6l-21 21c-6,0 -6,5 -6,11l11 5c0,5 5,5 5,0l11 -5 0 90c0,6 5,11 11,11l21 0c0,0 5,-5 5,-11l0 -117c0,-5 -5,-11 -5,-11l-16 0 0 0zm176 54c11,0 21,10 21,32 0,21 -10,32 -26,32 -6,0 -11,0 -22,-6l0 -48c11,-5 16,-10 27,-10l0 0zm5 -22c-16,0 -26,6 -32,11l0 -5c0,0 -5,-6 -5,-6l-21 0c-6,0 -6,6 -6,6l0 128c0,5 0,5 6,5l21 0c5,0 5,0 5,-5l0 -27c11,0 16,0 27,0 32,0 53,-16 53,-53 0,-38 -21,-54 -48,-54zm64 96c0,6 6,11 11,11l11 0c10,0 16,-5 16,-11l0 -5c0,-11 -6,-16 -16,-16l-11 0c-5,0 -11,5 -11,16l0 5z"/>
  <path class="fil2" d="M859 3055c27,0 41,14 41,54 0,36 -14,54 -45,54 -9,0 -23,-4 -36,-9l0 -85c13,-9 27,-14 40,-14l0 0zm14 -45c-23,0 -45,9 -59,23l0 -5c0,-9 -4,-13 -9,-13l-35 0c-5,0 -9,4 -9,13l0 220c0,5 4,9 9,9l40 0c4,0 9,-4 9,-9l0 -54c13,5 27,9 49,9 54,0 90,-31 90,-94 0,-63 -36,-99 -85,-99l0 0zm206 157c-27,0 -40,-17 -40,-58 0,-40 13,-58 40,-58 32,0 45,18 45,58 0,41 -13,58 -45,58zm0 -157c-63,0 -99,36 -99,99 0,63 36,94 99,94 67,0 103,-31 103,-94 0,-63 -36,-99 -103,-99zm198 157c-9,0 -18,-4 -23,-13 -4,-4 -9,-13 -18,-13l-27 0c-4,0 -9,4 -9,13 0,31 36,49 77,49l40 0c49,0 76,-13 76,-53 0,-23 -13,-36 -27,-45 18,-9 23,-23 23,-41 0,-36 -32,-54 -77,-54l-35 0c-41,0 -77,23 -77,54 0,5 5,9 14,9l22 0c9,0 18,-4 18,-9 5,-9 18,-13 23,-13l31 0c18,0 22,9 22,18 0,9 -4,18 -22,18l-40 0c-5,0 -9,4 -9,9l0 18c0,9 4,13 9,13l44 0c14,0 23,5 23,18 0,14 -9,22 -23,22l-35 0 0 0zm336 -139c0,-9 -4,-13 -9,-13l-170 0c-5,0 -9,4 -9,13l0 162c0,4 4,9 9,9l35 0c9,0 14,-5 14,-9l0 -135 72 0 0 135c0,4 4,9 9,9l40 0c5,0 9,-5 9,-9l0 -162 0 0zm139 27c27,0 40,14 40,54 0,36 -13,54 -44,54 -5,0 -23,-4 -36,-9l0 -85c13,-9 27,-14 40,-14l0 0zm14 -45c-23,0 -41,9 -59,23l0 -5c0,-9 -4,-13 -9,-13l-31 0c-9,0 -14,4 -14,13l0 220c0,5 5,9 14,9l36 0c4,0 9,-4 9,-9l0 -54c13,5 31,9 49,9 54,0 90,-31 90,-94 0,-63 -36,-99 -85,-99zm210 157c-31,0 -44,-17 -44,-58 0,-40 13,-58 44,-58 27,0 41,18 41,58 0,41 -14,58 -41,58zm0 -157c-67,0 -103,36 -103,99 0,63 36,94 103,94 63,0 99,-31 99,-94 0,-63 -36,-99 -99,-99zm306 189c9,0 13,-5 13,-9l0 -162c0,-9 -4,-13 -13,-13l-77 0c-36,0 -72,9 -80,54l-27 90 -14 0c-4,0 -9,4 -9,13l0 18c0,4 5,9 9,9l198 0 0 0zm-126 -40l18 -77c4,-18 18,-27 31,-27l32 0 0 104 -81 0zm256 8c-18,0 -27,-8 -27,-22 0,-13 9,-22 22,-22l54 0 0 27c-13,9 -31,18 -49,18l0 -1zm13 -116c23,0 36,9 36,36l-58 0c-45,0 -77,18 -77,58 0,40 32,58 77,58 27,0 45,-9 63,-18l0 5c0,4 4,9 8,9l32 0c9,0 13,-5 13,-9l0 -103c0,-54 -40,-77 -89,-77 -54,0 -90,14 -90,50 0,9 4,13 9,13l27 0c4,0 13,-4 18,-9 4,-9 18,-13 31,-13l0 0zm283 148c4,0 9,-5 9,-9l0 -63c13,0 27,9 36,23l18 35c4,9 13,14 22,14l36 0c9,0 9,-5 4,-14l-27 -49c-8,-13 -17,-22 -35,-27 18,-4 31,-18 35,-31l18 -45c5,-9 5,-18 -4,-18l-31 0c-9,0 -23,9 -23,18l-13 31c-9,18 -18,23 -36,23l0 -59c0,-9 -5,-13 -9,-13l-36 0c-9,0 -14,4 -14,13l0 59c-13,0 -26,-5 -31,-23l-13 -31c-5,-9 -14,-18 -23,-18l-31 0c-9,0 -9,9 -9,18l18 45c9,13 22,27 36,31 -14,5 -27,14 -36,27l-23 49c-4,9 -4,14 5,14l31 0c14,0 23,-5 27,-14l18 -35c9,-14 18,-23 31,-23l0 63c0,4 5,9 14,9l36 0 0 0z"/>
  <path class="fil3" d="M579 4230l0 43c0,16 16,27 32,27l321 0c16,0 32,-11 32,-27l0 -27c0,-16 -16,-26 -32,-26l-240 0c0,-70 272,-32 272,-203 0,-107 -75,-139 -176,-139l-38 0c-80,0 -171,43 -171,112 0,27 27,32 33,32l37 0c16,0 27,-5 37,-27 11,-26 38,-32 75,-32l21 0c48,0 75,11 75,54 0,80 -277,32 -277,213l-1 0zm641 -267c64,0 112,27 112,128 0,97 -48,129 -112,129 -59,0 -107,-32 -107,-129 0,-101 48,-128 107,-128zm-11 -85c-112,0 -208,53 -208,213 0,161 96,209 208,209l21 0c118,0 208,-48 208,-209 0,-160 -90,-213 -208,-213l-21 0zm277 203c-10,0 -16,5 -16,16l0 37c0,11 6,16 16,16l224 0c6,0 16,-5 16,-16l0 -37c0,-11 -10,-16 -16,-16l-224 0zm294 192c-6,16 0,27 16,27l58 0c16,0 32,-11 38,-27l155 -283c5,-16 16,-37 16,-53l0 -27c0,-16 -11,-32 -27,-32l-310 0c-16,0 -32,16 -32,32l0 27c0,16 16,26 32,26l219 0 -165 310 0 0zm517 -310c59,0 107,27 107,128 0,97 -48,129 -107,129 -64,0 -112,-32 -112,-129 0,-101 48,-128 112,-128zm-10 -85c-118,0 -208,53 -208,213 0,161 90,209 208,209l21 0c112,0 208,-48 208,-209 0,-160 -96,-213 -208,-213l-21 0zm640 5c-22,0 -38,11 -54,27l-288 363c-10,11 -5,27 11,27l48 0c21,0 37,-11 48,-27l293 -363c11,-16 6,-27 -10,-27l-48 0zm21 326c0,27 -11,43 -32,43 -21,0 -37,-16 -37,-43 0,-27 16,-43 37,-43 21,0 32,16 32,43l0 0zm69 0c0,-64 -48,-96 -101,-96 -59,0 -101,32 -101,96 0,64 42,96 101,96 53,0 101,-32 101,-96zm-330 -235c0,27 -11,43 -32,43 -22,0 -32,-16 -32,-43 0,-27 10,-43 32,-43 21,0 32,16 32,43zm69 0c0,-64 -48,-101 -101,-101 -59,0 -102,37 -102,101 0,59 43,96 102,96 53,0 101,-37 101,-96z"/>
 </g>
</svg>
