<?xml version="1.0" encoding="UTF-8"?>
<!DOCTYPE svg PUBLIC "-//W3C//DTD SVG 1.1//EN" "http://www.w3.org/Graphics/SVG/1.1/DTD/svg11.dtd">
<!-- Creator: CorelDRAW X7 -->
<svg xmlns="http://www.w3.org/2000/svg" xml:space="preserve" width="37.076mm" height="72.3986mm" version="1.1" style="shape-rendering:geometricPrecision; text-rendering:geometricPrecision; image-rendering:optimizeQuality; fill-rule:evenodd; clip-rule:evenodd"
viewBox="0 0 695 1357"
 xmlns:xlink="http://www.w3.org/1999/xlink">
 <defs>
  <style type="text/css">
   <![CDATA[
    .str0 {stroke:#2B2A29;stroke-width:3.74966}
    .fil0 {fill:black}
    .fil1 {fill:#FEFEFE;fill-rule:nonzero}
    .fil2 {fill:#E31E24;fill-rule:nonzero}
   ]]>
  </style>
 </defs>
 <g id="Слой_x0020_1">
  <metadata id="CorelCorpID_0Corel-Layer"/>
  <rect class="fil0 str0" x="2" y="2" width="691" height="1354"/>
  <path class="fil1" d="M147 390c0,2 2,4 4,4l7 0c2,0 3,-2 3,-4l0 -47c0,-2 -1,-3 -3,-3l-7 0c-2,0 -4,1 -4,3l0 17 -25 0 0 -17c0,-2 -2,-3 -4,-3l-7 0c-2,0 -4,1 -4,3l0 47c0,2 2,4 4,4l7 0c2,0 4,-2 4,-4l0 -19 25 0 0 19zm45 -4c-7,0 -10,-4 -10,-13 0,-9 3,-13 10,-13 6,0 9,4 9,13 0,9 -3,13 -9,13zm0 -34c-15,0 -23,7 -23,21 0,14 8,21 23,21 14,0 22,-7 22,-21 0,-14 -8,-21 -22,-21zm56 42c10,0 16,-3 16,-12 0,-5 -3,-8 -6,-10 3,-2 4,-5 4,-8 0,-8 -7,-11 -16,-11l-22 0c-2,0 -3,1 -3,2l0 36c0,2 1,3 3,3l24 0zm-1 -17c3,0 4,1 4,4 0,3 -1,4 -4,4l-13 0 0 -8 13 0zm-13 -8l0 -8 11 0c3,0 4,1 4,4 0,2 -1,4 -4,4l-11 0zm57 17c-7,0 -10,-4 -10,-13 0,-9 3,-13 10,-13 6,0 10,4 10,13 0,9 -4,13 -10,13zm0 -34c-15,0 -23,7 -23,21 0,14 8,21 23,21 14,0 23,-7 23,-21 0,-14 -9,-21 -23,-21zm51 9c7,0 9,4 9,12 0,9 -2,12 -9,12 -2,0 -5,0 -8,-1l0 -20c2,-2 6,-3 8,-3zm3 -9c-5,0 -9,2 -13,4l0 -1c0,-1 -1,-2 -2,-2l-7 0c-1,0 -2,1 -2,2l0 49c0,1 1,2 2,2l8 0c2,0 3,-1 3,-2l0 -12c3,1 6,2 10,2 12,0 20,-7 20,-21 0,-14 -8,-21 -19,-21zm37 42c1,0 2,-1 2,-3l0 -35c0,-2 -1,-3 -2,-3l-8 0c-1,0 -2,1 -2,3l0 35c0,2 1,3 2,3l8 0zm-11 -49c0,2 2,4 5,4l4 0c3,0 5,-2 5,-4l0 -2c0,-2 -2,-4 -5,-4l-4 0c-3,0 -5,2 -5,4l0 2zm21 21c0,11 6,14 18,14l9 0 0 11c0,2 1,3 3,3l8 0c1,0 2,-1 2,-3l0 -36c0,-1 -1,-2 -2,-2l-8 0c-2,0 -3,1 -3,2l0 16 -9 0c-3,0 -5,-1 -5,-5l0 -11c0,-1 -1,-2 -3,-2l-8 0c-1,0 -2,1 -2,2l0 11zm62 -11c0,-1 -1,-2 -2,-2l-8 0c-2,0 -3,1 -3,2l0 36c0,2 1,3 3,3l8 0c1,0 2,-1 2,-3l0 -14 17 0 0 14c0,2 1,3 2,3l9 0c1,0 2,-1 2,-3l0 -36c0,-1 -1,-2 -2,-2l-9 0c-1,0 -2,1 -2,2l0 13 -17 0 0 -13zm52 24l0 -24c0,-1 -1,-2 -3,-2l-8 0c-1,0 -2,1 -2,2l0 36c0,2 1,3 2,3l11 0c1,0 3,-2 4,-3l13 -24 0 24c0,2 1,3 3,3l7 0c2,0 3,-1 3,-3l0 -36c0,-1 -1,-2 -3,-2l-10 0c-2,0 -3,1 -4,2l-13 24zm50 -43c-1,0 -2,1 -2,2 0,6 5,10 12,10 8,0 13,-4 13,-10 0,-1 -1,-2 -2,-2l-3 0c-1,0 -2,1 -3,2 0,2 -2,3 -5,3 -2,0 -4,-1 -5,-3 0,-1 -1,-2 -2,-2l-3 0zm1 43l0 -24c0,-1 -1,-2 -2,-2l-8 0c-1,0 -2,1 -2,2l0 36c0,2 1,3 2,3l11 0c1,0 3,-2 4,-3l13 -24 0 24c0,2 1,3 3,3l7 0c2,0 3,-1 3,-3l0 -36c0,-1 -1,-2 -3,-2l-10 0c-2,0 -4,1 -4,2l-14 24z"/>
  <path class="fil2" d="M186 536c7,0 11,2 11,8 0,5 -4,7 -11,7l-11 0c-2,0 -4,2 -4,4l0 4c0,2 2,4 5,4l12 0c6,0 10,2 10,8 0,5 -4,7 -10,7l-15 0c-4,0 -8,-2 -10,-6 -2,-4 -4,-5 -7,-5l-5 0c-2,0 -5,1 -5,5 0,12 14,19 25,19l18 0c16,0 27,-5 27,-20 0,-6 -2,-11 -8,-14 5,-3 7,-8 7,-13 0,-16 -13,-21 -28,-21l-14 0c-12,0 -26,7 -26,18 0,5 4,6 5,6l6 0c3,0 5,-2 6,-5 2,-4 6,-6 11,-6l11 0zm54 6c0,-1 -1,-3 -2,-3l-11 0c-2,0 -3,2 -3,3l0 46c0,1 1,3 3,3l11 0c1,0 2,-2 2,-3l0 -18 21 0 0 18c0,1 1,3 3,3l10 0c2,0 3,-2 3,-3l0 -46c0,-1 -1,-3 -3,-3l-10 0c-2,0 -3,2 -3,3l0 17 -21 0 0 -17zm64 31l0 -31c0,-1 -1,-3 -3,-3l-9 0c-2,0 -3,2 -3,3l0 46c0,1 1,3 3,3l13 0c2,0 4,-2 5,-4l17 -30 0 31c0,1 1,3 2,3l10 0c2,0 3,-2 3,-3l0 -46c0,-1 -1,-3 -3,-3l-13 0c-2,0 -4,2 -5,4l-17 30zm91 18c2,0 3,-2 3,-3l0 -18c4,0 7,2 9,7l5 9c2,3 4,5 7,5l9 0c3,0 3,-2 2,-5l-7 -13c-3,-4 -5,-7 -10,-8 5,-1 8,-5 10,-9l5 -12c1,-3 1,-5 -2,-5l-9 0c-3,0 -5,2 -6,5l-4 9c-2,4 -5,7 -9,7l0 -18c0,-1 -1,-3 -3,-3l-11 0c-1,0 -2,2 -2,3l0 18c-5,0 -8,-3 -10,-7l-3 -9c-1,-3 -4,-5 -7,-5l-9 0c-2,0 -2,2 -1,5l5 12c1,4 5,8 10,9 -5,1 -8,4 -10,8l-7 13c-2,3 -1,5 1,5l9 0c3,0 6,-2 7,-5l5 -9c2,-5 6,-7 10,-7l0 18c0,1 1,3 2,3l11 0zm91 -47c1,-3 1,-5 -1,-5l-9 0c-3,0 -6,2 -7,5l-4 9c-2,4 -6,7 -12,7l0 -18c0,-1 -1,-3 -2,-3l-11 0c-1,0 -3,2 -3,3l0 46c0,1 2,3 3,3l11 0c1,0 2,-2 2,-3l0 -18c5,0 9,2 12,7l6 9c1,3 4,5 7,5l9 0c2,0 3,-2 1,-5l-8 -13c-3,-4 -6,-7 -10,-8 4,-1 8,-4 10,-9l6 -12zm25 29l0 -31c0,-1 -1,-3 -3,-3l-9 0c-2,0 -3,2 -3,3l0 46c0,1 1,3 3,3l13 0c2,0 4,-2 5,-4l17 -30 0 31c0,1 1,3 3,3l9 0c2,0 3,-2 3,-3l0 -46c0,-1 -1,-3 -3,-3l-13 0c-2,0 -4,2 -5,4l-17 30z"/>
  <path class="fil1" d="M121 762c0,1 1,2 2,2l3 0c1,0 2,-1 2,-2l2 -4 12 0 0 4c0,1 1,2 2,2l3 0c1,0 2,-1 2,-2l0 -22c0,-1 -1,-2 -1,-2l-10 0c-5,0 -11,2 -12,7l-5 17zm11 -15c1,-2 3,-4 5,-4l5 0 0 10 -11 0 1 -6zm41 -1c0,-1 0,-2 -1,-2l-3 0c-1,0 -2,1 -3,2l-2 4c0,1 -2,2 -4,2l0 -7c0,0 0,-1 -1,-1l-4 0c-1,0 -1,1 -1,1l0 18c0,1 0,1 1,1l4 0c1,0 1,0 1,-1l0 -7c2,0 3,1 4,3l3 3c0,1 1,2 3,2l3 0c1,0 1,-1 1,-2l-3 -5c-2,-1 -3,-2 -4,-3 1,0 3,-1 4,-3l2 -5zm24 -1c0,0 -1,-1 -1,-1l-4 0c-1,0 -2,1 -2,1l0 15 -7 0 0 -15c0,0 -1,-1 -1,-1l-4 0c-1,0 -2,1 -2,1l0 18c0,1 1,1 2,1l20 0c1,0 2,0 2,-1l0 -2c0,-1 -1,-1 -2,-1l-1 0 0 -15zm10 19c1,0 1,0 1,-1l0 -17c0,-1 0,-1 -1,-1l-4 0c0,0 -1,0 -1,1l0 17c0,1 1,1 1,1l4 0zm-5 -23c0,1 1,2 2,2l2 0c2,0 3,-1 3,-2l0 -1c0,-1 -1,-2 -3,-2l-2 0c-1,0 -2,1 -2,2l0 1zm24 16l0 6c0,1 0,1 1,1l4 0c0,0 1,0 1,-1l0 -18c0,0 -1,-1 -1,-1l-11 0c-5,0 -8,2 -8,7 0,3 1,5 4,5l-4 7c0,0 0,1 1,1l3 0c2,0 2,-1 3,-1l3 -6 4 0zm-5 -4c-2,0 -3,-1 -3,-2 0,-2 1,-3 3,-3l5 0 0 5 -5 0zm49 11c0,0 1,0 1,-1l0 -18c0,0 -1,-1 -1,-1l-9 0c-4,0 -8,1 -9,6l-2 10 -2 0c0,0 -1,0 -1,1l0 2c0,1 1,1 1,1l22 0zm-14 -4l2 -9c0,-2 2,-2 3,-2l3 0 0 11 -8 0zm24 4c1,0 1,0 1,-1l0 -17c0,-1 0,-1 -1,-1l-4 0c0,0 -1,0 -1,1l0 17c0,1 1,1 1,1l4 0zm-5 -23c0,1 1,2 2,2l2 0c2,0 3,-1 3,-2l0 -1c0,-1 -1,-2 -3,-2l-2 0c-1,0 -2,1 -2,2l0 1zm21 3c-7,0 -11,3 -11,10 0,7 4,10 11,10 6,0 10,-2 10,-5 0,-1 -1,-2 -1,-2l-3 0c-1,0 -1,1 -2,2 -1,0 -2,1 -4,1 -3,0 -4,-1 -5,-4l7 0c0,0 1,0 1,-1l0 -2c0,0 -1,-1 -1,-1l-7 0c1,-2 2,-4 5,-4 2,0 3,1 4,2 0,0 1,1 2,1l3 0c0,0 1,-1 1,-1 0,-4 -4,-6 -10,-6zm46 20c1,0 1,0 1,-1l0 -18c0,0 0,-1 -1,-1l-8 0c-4,0 -8,1 -9,6l-2 10 -2 0c-1,0 -1,0 -1,1l0 2c0,1 0,1 1,1l21 0zm-14 -4l3 -9c0,-2 1,-2 3,-2l3 0 0 11 -9 0zm30 0c-4,0 -5,-1 -5,-6 0,-4 1,-6 5,-6 3,0 4,2 4,6 0,5 -1,6 -4,6zm0 -16c-7,0 -11,3 -11,10 0,7 4,10 11,10 7,0 10,-3 10,-10 0,-7 -3,-10 -10,-10zm38 -1c4,0 5,1 5,3 0,2 -1,3 -5,3l-2 0c-1,0 -2,1 -2,1l0 2c0,1 1,2 2,2l3 0c3,0 4,0 4,2 0,2 -1,3 -4,3l-3 0c-2,0 -3,-1 -4,-2 -1,-1 -2,-2 -3,-2l-2 0c0,0 -2,0 -2,2 0,5 6,7 11,7l4 0c6,0 10,-2 10,-8 0,-2 -1,-4 -3,-5 2,-1 3,-3 3,-5 0,-6 -5,-8 -11,-8l-3 0c-5,0 -10,3 -10,7 0,2 1,2 2,2l2 0c1,0 2,0 2,-2 1,-1 3,-2 5,-2l1 0zm21 -5c-1,0 -2,0 -3,1l-4 4c-1,0 -1,1 -1,2l2 1c0,1 1,1 1,0l2 -1 0 17c0,1 1,2 2,2l3 0c1,0 2,-1 2,-2l0 -22c0,-1 -1,-2 -2,-2l-2 0zm8 24c0,1 1,2 3,2l2 0c1,0 2,-1 2,-2l0 -1c0,-2 -1,-3 -2,-3l-2 0c-2,0 -3,1 -3,3l0 1zm23 -19c4,0 7,2 7,8 0,6 -3,8 -7,8 -3,0 -6,-2 -6,-8 0,-6 3,-8 6,-8zm0 -5c-7,0 -13,3 -13,13 0,10 6,13 13,13l1 0c7,0 13,-3 13,-13 0,-10 -6,-13 -13,-13l-1 0zm22 0c0,0 -1,0 -2,1l-5 4c0,0 0,1 0,2l1 1c1,1 2,1 2,0l2 -1 0 17c0,1 1,2 2,2l3 0c1,0 2,-1 2,-2l0 -22c0,-1 -1,-2 -2,-2l-3 0zm9 24c0,1 1,2 2,2l3 0c1,0 2,-1 2,-2l0 -1c0,-2 -1,-3 -2,-3l-3 0c-1,0 -2,1 -2,3l0 1zm10 -2l0 2c0,1 0,2 1,2l20 0c1,0 2,-1 2,-2l0 -1c0,-1 -1,-2 -2,-2l-15 0c0,-4 17,-2 17,-12 0,-7 -5,-9 -11,-9l-2 0c-5,0 -10,3 -10,7 0,2 1,2 2,2l2 0c1,0 1,0 2,-2 1,-1 2,-2 5,-2l1 0c3,0 5,1 5,4 0,5 -17,2 -17,13zm32 -22c-1,0 -2,0 -3,1l-4 4c-1,0 -1,1 -1,2l2 1c0,1 1,1 1,0l2 -1 0 17c0,1 1,2 2,2l4 0c0,0 1,-1 1,-2l0 -22c0,-1 -1,-2 -1,-2l-3 0zm33 10c2,0 4,2 4,6 0,4 -2,6 -5,6 -1,0 -2,0 -4,-1l0 -9c2,-1 3,-2 5,-2zm1 -4c-3,0 -5,1 -6,2l0 -1c0,0 -1,-1 -1,-1l-4 0c-1,0 -1,1 -1,1l0 24c0,1 0,1 1,1l4 0c1,0 1,0 1,-1l0 -5c2,0 3,0 5,0 6,0 10,-3 10,-10 0,-7 -4,-10 -9,-10zm12 18c0,1 1,2 2,2l2 0c2,0 3,-1 3,-2l0 -1c0,-2 -1,-3 -3,-3l-2 0c-1,0 -2,1 -2,3l0 1z"/>
  <path class="fil1" d="M129 442c6,0 9,3 9,12 0,8 -3,12 -10,12 -2,0 -5,-1 -8,-2l0 -19c3,-2 6,-3 9,-3zm3 -10c-5,0 -10,2 -13,5l0 -1c0,-2 -1,-3 -2,-3l-8 0c-1,0 -2,1 -2,3l0 49c0,1 1,2 2,2l9 0c1,0 2,-1 2,-2l0 -12c3,1 6,2 11,2 12,0 20,-7 20,-21 0,-14 -8,-22 -19,-22zm46 35c-6,0 -9,-4 -9,-13 0,-9 3,-13 9,-13 7,0 10,4 10,13 0,9 -3,13 -10,13zm0 -35c-14,0 -22,8 -22,22 0,14 8,21 22,21 15,0 23,-7 23,-21 0,-14 -8,-22 -23,-22zm44 35c-2,0 -4,-1 -5,-3 -1,-1 -2,-3 -4,-3l-6 0c-1,0 -2,1 -2,3 0,7 8,11 17,11l9 0c11,0 17,-3 17,-12 0,-5 -3,-8 -6,-10 4,-2 5,-5 5,-9 0,-8 -7,-12 -17,-12l-8 0c-9,0 -17,5 -17,12 0,1 1,2 3,2l5 0c2,0 4,-1 4,-2 1,-2 4,-3 5,-3l7 0c4,0 5,2 5,4 0,2 -1,4 -5,4l-9 0c-1,0 -2,1 -2,2l0 4c0,2 1,3 2,3l10 0c3,0 5,1 5,4 0,3 -2,5 -5,5l-8 0zm75 -31c0,-2 -1,-3 -2,-3l-38 0c-1,0 -2,1 -2,3l0 36c0,1 1,2 2,2l8 0c2,0 3,-1 3,-2l0 -30 16 0 0 30c0,1 1,2 2,2l9 0c1,0 2,-1 2,-2l0 -36zm31 6c6,0 9,3 9,12 0,8 -3,12 -10,12 -1,0 -5,-1 -8,-2l0 -19c3,-2 6,-3 9,-3zm3 -10c-5,0 -9,2 -13,5l0 -1c0,-2 -1,-3 -2,-3l-7 0c-2,0 -3,1 -3,3l0 49c0,1 1,2 3,2l8 0c1,0 2,-1 2,-2l0 -12c3,1 7,2 11,2 12,0 20,-7 20,-21 0,-14 -8,-22 -19,-22zm47 35c-7,0 -10,-4 -10,-13 0,-9 3,-13 10,-13 6,0 9,4 9,13 0,9 -3,13 -9,13zm0 -35c-15,0 -23,8 -23,22 0,14 8,21 23,21 14,0 22,-7 22,-21 0,-14 -8,-22 -22,-22zm68 42c2,0 3,-1 3,-2l0 -36c0,-2 -1,-3 -3,-3l-17 0c-8,0 -16,2 -18,12l-6 20 -3 0c-1,0 -2,1 -2,3l0 4c0,1 1,2 2,2l44 0zm-28 -9l4 -17c1,-4 4,-6 7,-6l7 0 0 23 -18 0zm57 2c-4,0 -6,-2 -6,-5 0,-3 2,-5 5,-5l12 0 0 6c-3,2 -7,4 -11,4zm3 -26c5,0 8,2 8,8l-13 0c-10,0 -17,4 -17,13 0,9 7,13 17,13 6,0 10,-2 14,-4l0 1c0,1 1,2 2,2l7 0c2,0 3,-1 3,-2l0 -23c0,-12 -9,-17 -20,-17 -12,0 -20,3 -20,11 0,2 1,3 2,3l6 0c1,0 3,-1 4,-2 1,-2 4,-3 7,-3zm63 33c1,0 2,-1 2,-2l0 -14c3,0 6,2 8,5l4 8c1,2 3,3 5,3l8 0c2,0 2,-1 1,-3l-6 -11c-2,-3 -4,-5 -8,-6 4,-1 7,-4 8,-7l4 -10c1,-2 1,-4 -1,-4l-7 0c-2,0 -5,2 -5,4l-3 7c-2,4 -4,5 -8,5l0 -13c0,-2 -1,-3 -2,-3l-8 0c-2,0 -3,1 -3,3l0 13c-3,0 -6,-1 -7,-5l-3 -7c-1,-2 -3,-4 -5,-4l-7 0c-2,0 -2,2 -2,4l4 10c2,3 5,6 8,7 -3,1 -6,3 -8,6l-5 11c-1,2 -1,3 1,3l7 0c3,0 5,-1 6,-3l4 -8c2,-3 4,-5 7,-5l0 14c0,1 1,2 3,2l8 0zm32 -4c0,3 2,5 5,5l5 0c3,0 5,-2 5,-5l0 -3c0,-3 -2,-5 -5,-5l-5 0c-3,0 -5,2 -5,5l0 3z"/>
  <path class="fil2" d="M119 693l0 8c0,3 3,5 6,5l60 0c3,0 6,-2 6,-5l0 -5c0,-3 -3,-5 -6,-5l-45 0c0,-13 51,-6 51,-38 0,-20 -14,-26 -33,-26l-7 0c-15,0 -32,8 -32,21 0,5 5,6 6,6l7 0c3,0 5,-1 7,-5 2,-5 7,-6 14,-6l4 0c9,0 14,2 14,10 0,15 -52,6 -52,40zm120 -50c12,0 21,5 21,24 0,18 -9,24 -21,24 -11,0 -20,-6 -20,-24 0,-19 9,-24 20,-24zm-2 -16c-21,0 -39,10 -39,40 0,30 18,39 39,39l4 0c22,0 39,-9 39,-39 0,-30 -17,-40 -39,-40l-4 0zm52 38c-2,0 -3,1 -3,3l0 7c0,2 1,3 3,3l42 0c1,0 3,-1 3,-3l0 -7c0,-2 -2,-3 -3,-3l-42 0zm55 36c-1,3 0,5 3,5l11 0c3,0 6,-2 7,-5l29 -53c1,-3 3,-7 3,-10l0 -5c0,-3 -2,-6 -5,-6l-58 0c-3,0 -6,3 -6,6l0 5c0,3 3,5 6,5l41 0 -31 58zm97 -58c11,0 20,5 20,24 0,18 -9,24 -20,24 -12,0 -21,-6 -21,-24 0,-19 9,-24 21,-24zm-2 -16c-22,0 -39,10 -39,40 0,30 17,39 39,39l4 0c21,0 39,-9 39,-39 0,-30 -18,-40 -39,-40l-4 0zm120 1c-4,0 -7,2 -10,5l-54 68c-2,2 -1,5 2,5l9 0c4,0 7,-2 9,-5l55 -68c2,-3 1,-5 -2,-5l-9 0zm4 61c0,5 -2,8 -6,8 -4,0 -7,-3 -7,-8 0,-5 3,-8 7,-8 4,0 6,3 6,8l0 0zm13 0c0,-12 -9,-18 -19,-18 -11,0 -19,6 -19,18 0,12 8,18 19,18 10,0 19,-6 19,-18zm-62 -44c0,5 -2,8 -6,8 -4,0 -6,-3 -6,-8 0,-5 2,-8 6,-8 4,0 6,3 6,8zm13 0c0,-12 -9,-19 -19,-19 -11,0 -19,7 -19,19 0,11 8,18 19,18 10,0 19,-7 19,-18z"/>
 </g>
</svg>
