<?xml version="1.0" encoding="UTF-8"?>
<!DOCTYPE svg PUBLIC "-//W3C//DTD SVG 1.1//EN" "http://www.w3.org/Graphics/SVG/1.1/DTD/svg11.dtd">
<!-- Creator: CorelDRAW X7 -->
<svg xmlns="http://www.w3.org/2000/svg" xml:space="preserve" width="37.0626mm" height="72.4315mm" version="1.1" style="shape-rendering:geometricPrecision; text-rendering:geometricPrecision; image-rendering:optimizeQuality; fill-rule:evenodd; clip-rule:evenodd"
viewBox="0 0 3706 7243"
 xmlns:xlink="http://www.w3.org/1999/xlink">
 <defs>
  <style type="text/css">
   <![CDATA[
    .str0 {stroke:#2B2A29;stroke-width:20}
    .fil0 {fill:black}
    .fil1 {fill:#FEFEFE;fill-rule:nonzero}
   ]]>
  </style>
 </defs>
 <g id="Слой_x0020_1">
  <metadata id="CorelCorpID_0Corel-Layer"/>
  <rect class="fil0 str0" x="10" y="10" width="3686" height="7223"/>
  <path class="fil1" d="M466 1589c0,5 5,10 5,16l43 59c6,5 11,5 17,5l26 0c11,0 11,-5 6,-16l-43 -70 43 -70c5,-10 5,-21 -6,-21l-26 0c-6,0 -11,5 -17,11l-43 53c0,6 -5,16 -5,22l0 11 0 0zm91 0c0,5 6,10 11,16l43 59c6,5 11,5 16,5l27 0c6,0 11,-5 0,-16l-43 -70 43 -70c11,-10 6,-21 0,-21l-27 0c-5,0 -10,5 -16,11l-43 53c-5,6 -11,16 -11,22l0 11 0 0zm146 53l-16 0c-11,0 -17,6 -17,16l0 22c0,11 6,22 17,22l306 0c11,0 22,-11 22,-22l0 -264c0,-5 -11,-16 -22,-16l-113 0c-59,0 -118,16 -134,81l-43 161zm118 -139c5,-27 22,-44 48,-44l65 0 0 183 -151 0 38 -139zm360 155c-37,0 -53,-21 -53,-75 0,-48 16,-70 53,-70 38,0 54,22 54,70 0,54 -16,75 -54,75zm0 -193c-80,0 -129,43 -129,118 0,81 49,119 129,119 81,0 124,-38 124,-119 0,-75 -43,-118 -124,-118zm275 193c-33,0 -54,-21 -54,-59 0,-32 21,-53 54,-53 37,0 53,21 53,53 0,38 -16,59 -53,59zm-65 -123c0,-49 22,-70 75,-76l92 -5c5,0 16,-11 16,-21l0 -27c0,-6 -11,-11 -16,-11l-113 11c-86,10 -113,59 -113,150l0 33c0,75 43,113 124,113 86,0 129,-38 129,-103 0,-64 -49,-102 -113,-102 -38,0 -65,11 -81,38l0 0zm350 -16c37,0 48,21 48,64 0,49 -11,70 -54,70 -10,0 -27,-5 -43,-11l0 -107c16,-11 33,-16 49,-16l0 0zm16 -54c-27,0 -54,11 -70,27l0 -11c0,-5 -5,-11 -16,-11l-38 0c-5,0 -11,6 -11,11l0 274c0,11 6,16 11,16l49 0c5,0 10,-5 10,-16l0 -64c16,5 33,11 60,11 69,0 112,-38 112,-119 0,-75 -43,-118 -107,-118zm258 193c-38,0 -54,-21 -54,-75 0,-48 16,-70 54,-70 38,0 54,22 54,70 0,54 -16,75 -54,75zm0 -193c-81,0 -124,43 -124,118 0,81 43,119 124,119 81,0 129,-38 129,-119 0,-75 -48,-118 -129,-118zm280 193c-38,0 -54,-21 -54,-59 0,-32 16,-53 54,-53 32,0 54,21 54,53 0,38 -22,59 -54,59zm-70 -123c0,-49 21,-70 81,-76l86 -5c10,0 16,-11 16,-21l0 -27c0,-6 -6,-11 -16,-11l-113 11c-86,10 -113,59 -113,150l0 33c0,75 43,113 129,113 80,0 123,-38 123,-103 0,-64 -48,-102 -112,-102 -38,0 -65,11 -81,38l0 0zm296 188c-11,0 -22,0 -33,0l-5 0c-5,0 -11,5 -11,11l0 21c0,11 6,11 11,16 16,0 38,0 54,0 48,0 75,-26 97,-91l53 -199c0,-5 -5,-11 -10,-11l-43 0c-11,0 -16,6 -16,16l-44 146c-21,0 -32,-11 -48,-60l-27 -86c0,-10 -11,-16 -16,-16l-43 0c-11,0 -16,6 -11,11l33 102c21,75 53,97 96,97 -5,32 -21,43 -37,43l0 0zm188 -253c-11,0 -16,6 -16,11l0 27c0,5 5,11 16,11l64 0 0 166c0,11 6,17 17,17l43 0c10,0 16,-6 16,-17l0 -166 64 0c6,0 11,-6 11,-11l0 -27c0,-5 -5,-11 -11,-11l-204 0 0 0zm425 108c0,-6 -6,-16 -6,-22l-43 -53c-5,-6 -10,-11 -16,-11l-27 0c-10,0 -10,11 -5,21l43 70 -43 70c-5,11 -5,16 5,16l27 0c6,0 11,0 16,-5l43 -59c0,-6 6,-11 6,-16l0 -11 0 0zm-92 0c0,-6 -5,-16 -10,-22l-43 -53c-6,-6 -11,-11 -16,-11l-27 0c-6,0 -11,11 0,21l43 70 -43 70c-11,11 -6,16 0,16l27 0c5,0 10,0 16,-5l43 -59c5,-6 10,-11 10,-16l0 -11 0 0zm194 86c11,-22 0,-32 -21,-32l-17 0c-16,0 -32,10 -32,21l-11 70c-5,16 0,27 17,27l10 0c16,0 27,-11 33,-22l21 -64 0 0z"/>
  <path class="fil1" d="M927 1976c16,0 27,5 32,16 6,5 11,11 16,11l22 0c5,0 11,-6 11,-11 0,-32 -33,-48 -81,-48 -54,0 -86,26 -86,80 0,54 32,81 86,81 48,0 81,-16 81,-48 0,-6 -6,-11 -11,-11l-22 0c-5,0 -10,5 -16,11 -5,10 -16,16 -27,16 -32,0 -43,-16 -43,-49 0,-32 11,-48 38,-48zm253 64c5,0 11,-5 11,-10l0 -6c0,-54 -33,-80 -87,-80 -48,0 -80,26 -80,80 0,54 32,81 80,81 49,0 81,-11 81,-43 0,0 -5,-5 -11,-5l-21 0c-6,0 -11,0 -16,5 -6,5 -16,11 -27,11 -27,0 -32,-11 -38,-33l108 0zm-76 -64c22,0 33,11 33,32l-65 0c0,-21 11,-32 32,-32l0 0zm264 -16c0,-11 0,-16 -5,-16l-27 0c-11,0 -16,5 -22,16l-16 27c-5,16 -16,21 -32,21l0 -54c0,-5 -6,-10 -11,-10l-32 0c-6,0 -6,5 -6,10l0 140c0,6 0,11 6,11l32 0c5,0 11,-5 11,-11l0 -54c11,0 27,6 32,22l22 27c5,5 10,16 21,16l27 0c5,0 11,-11 5,-16l-26 -38c-11,-16 -17,-21 -33,-27 16,-5 27,-11 33,-27l21 -37 0 0zm22 123c0,11 5,22 16,22l21 0c11,0 16,-11 16,-22l0 -5c0,-16 -5,-21 -16,-21l-21 0c-11,0 -16,5 -16,21l0 5zm279 -145c27,0 38,6 38,22 0,16 -11,21 -38,21l-21 0c-6,0 -11,6 -11,11l0 16c0,6 5,11 11,11l27 0c21,0 32,5 32,21 0,17 -11,22 -32,22l-22 0c-16,0 -27,-5 -32,-16 -6,-11 -16,-16 -22,-16l-16 0c-5,0 -16,5 -16,16 0,37 43,59 81,59l32 0c54,0 81,-16 81,-65 0,-16 -6,-32 -22,-43 16,-5 22,-21 22,-37 0,-49 -38,-65 -86,-65l-22 0c-38,0 -81,22 -81,59 0,11 11,11 17,11l16 0c5,0 10,0 16,-11 5,-10 21,-16 37,-16l11 0 0 0zm167 140c5,-11 0,-21 -16,-21l-11 0c-11,0 -21,5 -21,16l-11 48c0,11 0,16 16,16l5 0c11,0 16,-5 22,-16l16 -43zm215 -102c27,0 38,16 38,48 0,33 -11,49 -38,49 -5,0 -21,-6 -32,-6l0 -75c11,-11 21,-16 32,-16zm16 -32c-21,0 -37,5 -54,16l0 -6c0,-5 0,-10 -5,-10l-27 0c-5,0 -11,5 -11,10l0 189c0,5 6,10 11,10l27 0c5,0 11,-5 11,-10l0 -43c11,0 27,5 43,5 43,0 75,-27 75,-81 0,-54 -32,-80 -70,-80l0 0zm199 102l0 48c0,6 0,11 6,11l32 0c5,0 11,-5 11,-11l0 -140c0,-5 -6,-10 -11,-10l-81 0c-37,0 -64,16 -64,53 0,22 10,38 27,43l-27 49c-6,5 0,16 5,16l27 0c11,0 16,-5 21,-16l22 -43 32 0zm-43 -33c-11,0 -16,-5 -16,-16 0,-10 5,-21 16,-21l43 0 0 37 -43 0 0 0zm285 92c6,0 11,-5 11,-11l0 -140c0,-5 -5,-10 -11,-10l-64 0c-32,0 -59,10 -70,43l-22 80 -10 0c-6,0 -6,6 -6,11l0 16c0,6 0,11 6,11l166 0 0 0zm-107 -38l16 -64c5,-16 16,-22 27,-22l27 0 0 86 -70 0 0 0zm285 22c-6,5 0,16 5,16l32 0c6,0 11,-11 17,-16l75 -140c5,-5 11,-16 11,-27l0 -11c0,-10 -11,-16 -16,-16l-151 0c-11,0 -16,6 -16,16l0 11c0,11 5,16 16,16l108 0 -81 151 0 0zm177 -11c6,-11 0,-21 -16,-21l-11 0c-10,0 -21,5 -21,16l-11 48c-5,11 0,16 11,16l5 0c11,0 22,-5 27,-16l16 -43 0 0z"/>
  <path class="fil1" d="M1294 948c43,0 75,6 75,60 0,48 -32,53 -75,53l-76 0 0 -112 76 0 0 -1zm-135 -59c-11,0 -16,6 -16,22l0 258c0,11 5,22 16,22l43 0c11,0 16,-11 16,-22l0 -48 102 0c81,0 124,-38 124,-113 0,-81 -43,-119 -124,-119l-161 0 0 0zm387 221l0 -140c0,-5 -5,-11 -10,-11l-43 0c-6,0 -11,6 -11,11l0 204c0,11 5,17 11,17l59 0c5,0 16,-11 21,-17l76 -134 0 134c0,11 5,17 10,17l43 0c11,0 16,-6 16,-17l0 -204c0,-5 -5,-11 -16,-11l-59 0c-5,0 -16,6 -21,16l-76 135zm296 -140c0,-5 -5,-11 -16,-11l-43 0c-11,0 -16,6 -16,11l0 204c0,11 5,17 16,17l43 0c11,0 16,-6 16,-17l0 -75 92 0 0 75c0,11 5,17 10,17l49 0c5,0 11,-6 11,-17l0 -204c0,-5 -6,-11 -11,-11l-49 0c-5,0 -10,6 -10,11l0 75 -92 0 0 -75zm328 178c-37,0 -54,-22 -54,-76 0,-48 17,-70 54,-70 33,0 54,22 54,70 0,54 -21,76 -54,76zm0 -194c-80,0 -129,43 -129,118 0,81 49,119 129,119 81,0 124,-38 124,-119 0,-75 -43,-118 -124,-118zm382 27c6,-11 6,-22 -5,-22l-43 0c-11,0 -22,6 -27,22l-22 43c-10,16 -27,27 -48,27l0 -81c0,-5 -5,-11 -16,-11l-43 0c-11,0 -16,6 -16,11l0 204c0,11 5,17 16,17l43 0c11,0 16,-6 16,-17l0 -75c16,0 38,5 48,27l27 43c6,11 16,22 32,22l38 0c11,0 16,-11 6,-22l-33 -59c-16,-22 -27,-32 -43,-38 16,0 32,-16 43,-37l27 -54 0 0z"/>
  <path class="fil1" d="M570 2959c-11,0 -21,5 -21,21l0 16c0,11 10,22 21,22l96 0 0 218c0,11 5,22 16,22l43 0c11,0 16,-11 16,-22l0 -218 96 0c11,0 16,-11 16,-22l0 -16c0,-16 -5,-21 -16,-21l-267 0 0 0zm475 59c43,0 69,10 69,58 0,48 -26,54 -69,54l-75 0 0 -112 75 0zm-139 -59c-10,0 -16,5 -16,21l0 256c0,11 11,22 22,22l37 0c11,0 21,-11 21,-22l0 -42 96 0c80,0 128,-38 128,-118 0,-80 -48,-117 -128,-117l-160 0zm646 299c10,0 21,-11 21,-22l0 -16c0,-10 -11,-21 -21,-21l-22 0 0 -219c0,-16 -10,-21 -21,-21l-37 0c-11,0 -22,5 -22,16l0 224 -138 0 0 -219c0,-16 -11,-21 -22,-21l-37 0c-11,0 -21,5 -21,16l0 261c0,11 10,22 21,22l299 0zm208 -59l-16 0c-11,0 -22,11 -22,21l0 16c0,11 11,22 22,22l299 0c10,0 21,-11 21,-22l0 -261c0,-11 -11,-16 -21,-16l-113 0c-58,0 -117,16 -133,80l-37 160zm112 -139c5,-26 26,-42 53,-42l59 0 0 181 -144 0 32 -139zm464 107c11,0 16,-5 16,-16l0 -11c0,-74 -48,-117 -123,-117 -74,0 -122,43 -122,123 0,74 48,117 122,117 70,0 112,-16 112,-59 0,-10 -5,-16 -10,-16l-32 0c-11,0 -16,6 -22,11 -10,11 -26,16 -42,16 -38,0 -48,-16 -54,-48l155 0 0 0zm-107 -96c32,0 48,16 48,48l-96 0c0,-32 16,-48 48,-48zm395 -27c0,-10 -5,-16 -11,-16l-213 0c-5,0 -11,6 -11,16l0 203c0,5 6,11 11,11l48 0c11,0 16,-6 16,-11l0 -165 91 0 0 165c0,5 5,11 10,11l48 0c6,0 11,-6 11,-11l0 -203 0 0zm165 171c-37,0 -53,-21 -53,-69 0,-54 16,-75 53,-75 38,0 54,21 54,75 0,48 -16,69 -54,69zm0 -192c-80,0 -128,43 -128,123 0,74 48,117 128,117 80,0 128,-43 128,-117 0,-80 -48,-123 -128,-123zm150 5c-11,0 -16,6 -16,16l0 22c0,10 5,16 16,16l64 0 0 165c0,5 5,11 16,11l42 0c11,0 16,-6 16,-11l0 -165 64 0c11,0 16,-6 16,-16l0 -22c0,-10 -5,-16 -16,-16l-202 0z"/>
  <path class="fil1" d="M793 3535c0,-32 6,-64 38,-96 0,-5 5,-11 0,-16l-6 -11c-5,-5 -10,-5 -10,-5 -48,32 -64,80 -64,128 0,48 16,96 64,128 0,0 5,0 10,-5l6 -11c5,-5 0,-11 0,-16 -32,-32 -38,-64 -38,-96l0 0zm160 91c38,0 64,-11 64,-43 0,-21 -10,-32 -26,-43 10,-5 16,-16 16,-32 0,-26 -27,-42 -59,-42l-85 0c-6,0 -11,5 -11,10l0 139c0,5 5,11 11,11l90 0 0 0zm-5 -64c11,0 21,5 21,16 0,10 -10,16 -21,16l-43 0 0 -32 43 0 0 0zm-43 -32l0 -32 38 0c10,0 16,10 16,16 0,10 -6,16 -16,16l-38 0 0 0zm182 112c-11,0 -16,0 -22,0l-5 0c-5,0 -11,0 -11,5l0 16c0,5 6,11 11,11 11,0 27,0 37,0 32,0 54,-16 64,-64l38 -134c0,-5 0,-10 -6,-10l-32 0c-5,0 -10,5 -10,10l-27 102c-16,0 -21,-11 -32,-38l-21 -64c0,-5 -6,-10 -11,-10l-32 0c-5,0 -5,5 -5,10l21 70c16,53 37,64 69,64 -5,21 -16,32 -26,32l0 0zm186 -118c6,-16 16,-21 27,-21l27 0 0 112c0,5 5,11 10,11l32 0c6,0 11,-6 11,-11l0 -139c0,-5 -5,-10 -11,-10l-69 0c-32,0 -64,10 -69,48l-27 101c0,5 0,11 5,11l32 0c6,0 11,-6 11,-11l21 -91zm134 80c0,16 5,22 21,22l16 0c11,0 21,-6 21,-22l0 -5c0,-16 -10,-21 -21,-21l-16 0c-16,0 -21,5 -21,21l0 5zm192 6c0,10 5,16 10,16l27 0c11,0 16,-6 16,-16l0 -150 96 0c11,0 16,-5 16,-16l0 -10c0,-11 -5,-16 -16,-16l-139 0c-5,0 -10,5 -10,16l0 176 0 0zm234 -16c-26,0 -37,-11 -37,-48 0,-32 11,-48 37,-48 22,0 38,16 38,48 0,37 -16,48 -38,48zm0 -128c-58,0 -85,26 -85,80 0,53 27,80 85,80 54,0 86,-27 86,-80 0,-54 -32,-80 -86,-80zm171 58c0,-16 11,-21 22,-21l32 0 0 112c0,5 0,11 5,11l32 0c5,0 11,-6 11,-11l0 -139c0,-5 -6,-10 -11,-10l-69 0c-32,0 -59,10 -70,48l-27 101c0,5 6,11 11,11l27 0c5,0 11,-6 16,-11l21 -91zm214 70c-27,0 -38,-11 -38,-48 0,-32 11,-48 38,-48 26,0 37,16 37,48 0,37 -11,48 -37,48zm0 -128c-54,0 -86,26 -86,80 0,53 32,80 86,80 53,0 85,-27 85,-80 0,-54 -32,-80 -85,-80zm213 160c37,0 64,-11 64,-43 0,-21 -11,-32 -27,-43 11,-5 16,-16 16,-32 0,-26 -26,-42 -58,-42l-86 0c-5,0 -10,5 -10,10l0 139c0,5 5,11 10,11l91 0 0 0zm-5 -64c10,0 16,5 16,16 0,10 -6,16 -16,16l-48 0 0 -32 48 0 0 0zm-48 -32l0 -32 42 0c11,0 16,10 16,16 0,10 -5,16 -16,16l-42 0 0 0zm192 -54c0,-5 -6,-10 -11,-10l-32 0c-5,0 -11,5 -11,10l0 139c0,5 6,11 11,11l32 0c5,0 11,-6 11,-11l0 -53 58 0 0 53c0,5 6,11 11,11l32 0c5,0 11,-6 11,-11l0 -139c0,-5 -6,-10 -11,-10l-32 0c-5,0 -11,5 -11,10l0 54 -58 0 0 -54zm208 118c-16,0 -22,-6 -22,-16 0,-11 6,-16 22,-16l42 0 0 21c-10,5 -26,11 -42,11l0 0zm16 -96c16,0 26,5 26,32l-48 0c-37,0 -64,16 -64,48 0,32 27,48 64,48 22,0 43,-6 54,-16l0 5c0,5 5,11 10,11l27 0c5,0 5,-6 5,-11l0 -85c0,-48 -32,-64 -74,-64 -48,0 -75,10 -75,42 0,0 0,6 5,6l22 0c10,0 16,0 16,-6 5,-5 16,-10 32,-10l0 0zm160 101c5,-11 0,-21 -16,-21l-11 0c-11,0 -21,5 -21,16l-11 48c0,10 0,16 11,16l10 0c11,0 16,-6 22,-16l16 -43 0 0z"/>
  <path class="fil1" d="M874 4004l0 22c0,5 6,16 16,16l155 0c11,0 16,-11 16,-16l0 -16c0,-6 -5,-11 -16,-11l-117 0c0,-32 133,-16 133,-96 0,-59 -37,-69 -85,-69l-16 0c-43,0 -86,21 -86,53 0,16 11,16 16,16l16 0c11,0 16,0 22,-11 5,-16 16,-21 32,-21l10 0c27,0 38,11 38,32 0,37 -134,11 -134,101l0 0zm262 -90l0 -6c0,-26 10,-37 37,-37l21 0c16,0 27,5 32,16 6,5 11,11 22,11l16 0c5,0 16,0 16,-16 0,-27 -38,-48 -80,-48l-32 0c-54,0 -86,16 -86,74l0 64c0,54 32,70 86,70l32 0c48,0 80,-16 80,-64 0,-48 -32,-64 -80,-64l-64 0 0 0zm58 37c22,0 32,5 32,27 0,16 -10,21 -32,21l-21 0c-27,0 -37,-5 -37,-27l0 -21 58 0zm214 91c53,0 85,-16 85,-64 0,-48 -32,-70 -85,-70l-48 0 0 -32 112 0c5,0 10,-10 10,-16l0 -10c0,-11 -5,-16 -10,-16l-150 0c-10,0 -16,5 -16,16l0 85c0,11 11,16 16,16l80 0c27,0 38,5 38,27 0,16 -11,21 -38,21l-21 0c-11,0 -27,-5 -27,-11 -5,-10 -16,-16 -21,-16l-16 0c-5,0 -16,6 -16,16 0,32 32,54 75,54l32 0 0 0zm176 -32c-16,0 -22,-6 -22,-16 0,-11 6,-22 22,-22l42 0 0 27c-10,5 -26,11 -42,11zm10 -96c22,0 32,5 32,26l-48 0c-37,0 -69,16 -69,54 0,32 32,48 69,48 22,0 38,-6 54,-16l0 5c0,5 0,11 5,11l27 0c5,0 10,-6 10,-11l0 -91c0,-42 -32,-58 -74,-58 -48,0 -80,10 -80,37 0,5 5,11 10,11l22 0c5,0 10,-6 16,-11 5,-5 16,-5 26,-5l0 0zm166 101c5,-16 -6,-21 -16,-21l-16 0c-6,0 -16,5 -22,16l-5 48c-5,10 0,16 11,16l5 0c11,0 21,-6 21,-16l22 -43 0 0zm170 -181c-5,0 -10,0 -16,5l-37 32c-5,5 -5,5 -5,11l10 16c6,5 11,5 16,0l16 -11 0 139c0,5 6,16 11,16l27 0c10,0 16,-11 16,-16l0 -176c0,-11 -6,-16 -16,-16l-22 0zm342 58c0,-5 -5,-10 -11,-10l-144 0c-5,0 -10,5 -10,10l0 139c0,5 5,11 10,11l32 0c6,0 11,-6 11,-11l0 -112 59 0 0 112c0,5 5,11 10,11l32 0c6,0 11,-6 11,-11l0 -139zm112 118c-27,0 -37,-16 -37,-48 0,-38 10,-48 37,-48 27,0 37,10 37,48 0,32 -10,48 -37,48zm0 -128c-59,0 -85,26 -85,80 0,53 26,80 85,80 53,0 85,-27 85,-80 0,-54 -32,-80 -85,-80zm213 160c38,0 64,-16 64,-48 0,-16 -10,-32 -26,-38 10,-5 16,-16 16,-32 0,-32 -27,-42 -59,-42l-85 0c-6,0 -11,5 -11,10l0 139c0,5 5,11 11,11l90 0 0 0zm-5 -70c11,0 16,11 16,22 0,5 -5,16 -16,16l-48 0 0 -38 48 0zm-48 -26l0 -32 43 0c10,0 16,5 16,16 0,5 -6,16 -16,16l-43 0 0 0zm245 5c0,32 -10,64 -37,96 0,5 -5,11 0,11l5 16c6,5 11,5 11,0 43,-27 64,-75 64,-123 0,-48 -21,-101 -64,-128 0,0 -5,0 -11,5l-5 11c-5,5 0,11 0,11 27,37 37,69 37,101l0 0zm-112 69c0,11 6,22 22,22l16 0c10,0 21,-11 21,-22l0 -10c0,-11 -11,-16 -21,-16l-16 0c-16,0 -22,5 -22,16l0 10z"/>
  <path class="fil1" d="M1485 2438c5,0 10,-5 10,-11l38 -91 0 91c0,6 5,11 11,11l27 0c5,0 11,-5 11,-11l0 -139c0,-6 -6,-11 -11,-11l-49 0c-5,0 -10,5 -10,11l-38 86 -32 -86c-6,-6 -6,-11 -16,-11l-49 0c-5,0 -5,5 -5,11l0 139c0,6 0,11 5,11l32 0c6,0 11,-5 11,-11l0 -91 38 91c0,6 5,11 11,11l16 0zm129 -107c-6,0 -11,0 -11,5l0 16c0,5 5,11 11,11l107 0c6,0 11,-6 11,-11l0 -16c0,-5 -5,-5 -11,-5l-107 0zm188 -43c0,-6 -5,-11 -5,-11l-33 0c-5,0 -10,5 -10,11l0 139c0,6 5,11 10,11l33 0c0,0 5,-5 5,-11l0 -53 65 0 0 53c0,6 5,11 5,11l32 0c6,0 11,-5 11,-11l0 -139c0,-6 -5,-11 -11,-11l-32 0c0,0 -5,5 -5,11l0 53 -65 0 0 -53zm290 -60c-5,0 -16,6 -21,11l-32 27c-6,5 -6,11 -6,16l11 11c5,5 11,5 16,5l16 -16 0 140c0,5 6,16 11,16l27 0c11,0 16,-11 16,-16l0 -178c0,-10 -5,-16 -16,-16l-22 0zm103 194c-6,5 0,16 5,16l32 0c6,0 11,-11 16,-16l76 -140c5,-5 11,-16 11,-27l0 -11c0,-10 -6,-16 -17,-16l-150 0c-11,0 -16,6 -16,16l0 11c0,11 5,16 16,16l107 0 -80 151 0 0z"/>
 </g>
</svg>
