<?xml version="1.0" encoding="UTF-8"?>
<!DOCTYPE svg PUBLIC "-//W3C//DTD SVG 1.1//EN" "http://www.w3.org/Graphics/SVG/1.1/DTD/svg11.dtd">
<!-- Creator: CorelDRAW X7 -->
<svg xmlns="http://www.w3.org/2000/svg" xml:space="preserve" width="37.076mm" height="72.3986mm" version="1.1" style="shape-rendering:geometricPrecision; text-rendering:geometricPrecision; image-rendering:optimizeQuality; fill-rule:evenodd; clip-rule:evenodd"
viewBox="0 0 695 1357"
 xmlns:xlink="http://www.w3.org/1999/xlink">
 <defs>
  <style type="text/css">
   <![CDATA[
    .str0 {stroke:#2B2A29;stroke-width:3.74966}
    .fil0 {fill:black}
    .fil2 {fill:#FEFEFE;fill-rule:nonzero}
    .fil1 {fill:#FFED00;fill-rule:nonzero}
   ]]>
  </style>
 </defs>
 <g id="Слой_x0020_1">
  <metadata id="CorelCorpID_0Corel-Layer"/>
  <rect class="fil0 str0" x="2" y="2" width="691" height="1354"/>
  <path class="fil1" d="M107 409c-2,0 -4,1 -4,4l0 3c0,2 2,4 4,4l18 0 0 41c0,2 1,4 3,4l8 0c2,0 3,-2 3,-4l0 -41 18 0c2,0 3,-2 3,-4l0 -3c0,-3 -1,-4 -3,-4l-50 0zm89 11c8,0 13,2 13,11 0,9 -5,10 -13,10l-14 0 0 -21 14 0zm-26 -11c-2,0 -3,1 -3,4l0 48c0,2 2,4 4,4l7 0c2,0 4,-2 4,-4l0 -8 18 0c15,0 24,-7 24,-22 0,-15 -9,-22 -24,-22l-30 0zm121 56c2,0 4,-2 4,-4l0 -3c0,-2 -2,-4 -4,-4l-4 0 0 -41c0,-3 -2,-4 -4,-4l-7 0c-2,0 -4,1 -4,3l0 42 -26 0 0 -41c0,-3 -2,-4 -4,-4l-7 0c-2,0 -4,1 -4,3l0 49c0,2 2,4 4,4l56 0zm39 -11l-3 0c-2,0 -4,2 -4,4l0 3c0,2 2,4 4,4l56 0c2,0 4,-2 4,-4l0 -49c0,-2 -2,-3 -4,-3l-21 0c-11,0 -22,3 -25,15l-7 30zm21 -26c1,-5 5,-8 10,-8l11 0 0 34 -27 0 6 -26zm87 20c2,0 3,-1 3,-3l0 -2c0,-14 -9,-22 -23,-22 -14,0 -23,8 -23,23 0,14 9,22 23,22 13,0 21,-3 21,-11 0,-2 -1,-3 -2,-3l-6 0c-2,0 -3,1 -4,2 -2,2 -5,3 -8,3 -7,0 -9,-3 -10,-9l29 0zm-20 -18c6,0 9,3 9,9l-18 0c0,-6 3,-9 9,-9zm74 -5c0,-2 -1,-3 -2,-3l-40 0c-1,0 -2,1 -2,3l0 38c0,1 1,2 2,2l9 0c2,0 3,-1 3,-2l0 -31 17 0 0 31c0,1 1,2 2,2l9 0c1,0 2,-1 2,-2l0 -38zm31 32c-7,0 -10,-4 -10,-13 0,-10 3,-14 10,-14 7,0 10,4 10,14 0,9 -3,13 -10,13zm0 -36c-15,0 -24,8 -24,23 0,14 9,22 24,22 15,0 24,-8 24,-22 0,-15 -9,-23 -24,-23zm28 1c-2,0 -3,1 -3,3l0 4c0,2 1,3 3,3l12 0 0 31c0,1 1,2 3,2l8 0c2,0 3,-1 3,-2l0 -31 12 0c2,0 3,-1 3,-3l0 -4c0,-2 -1,-3 -3,-3l-38 0z"/>
  <path class="fil2" d="M149 517c0,-6 1,-12 7,-18 0,-1 1,-2 0,-3l-1 -2c-1,-1 -2,-1 -2,-1 -9,6 -12,15 -12,24 0,9 3,18 12,24 0,0 1,0 2,-1l1 -2c1,-1 0,-2 0,-3 -6,-6 -7,-12 -7,-18zm30 17c7,0 12,-2 12,-8 0,-4 -2,-6 -5,-8 2,-1 3,-3 3,-6 0,-5 -5,-8 -11,-8l-16 0c-1,0 -2,1 -2,2l0 26c0,1 1,2 2,2l17 0zm-1 -12c2,0 4,1 4,3 0,2 -2,3 -4,3l-8 0 0 -6 8 0zm-8 -6l0 -6 7 0c2,0 3,2 3,3 0,2 -1,3 -3,3l-7 0zm34 21c-2,0 -3,0 -4,0l-1 0c-1,0 -2,0 -2,1l0 3c0,1 1,2 2,2 2,0 5,0 7,0 6,0 10,-3 12,-12l7 -25c0,-1 0,-2 -1,-2l-6 0c-1,0 -2,1 -2,2l-5 19c-3,0 -4,-2 -6,-7l-4 -12c0,-1 -1,-2 -2,-2l-6 0c-1,0 -1,1 -1,2l4 13c3,10 7,12 13,12 -1,4 -3,6 -5,6zm35 -22c1,-3 3,-4 5,-4l5 0 0 21c0,1 1,2 2,2l6 0c1,0 2,-1 2,-2l0 -26c0,-1 -1,-2 -2,-2l-13 0c-6,0 -12,2 -13,9l-5 19c0,1 0,2 1,2l6 0c1,0 2,-1 2,-2l4 -17zm25 15c0,3 1,4 4,4l3 0c2,0 4,-1 4,-4l0 -1c0,-3 -2,-4 -4,-4l-3 0c-3,0 -4,1 -4,4l0 1zm36 1c0,2 1,3 2,3l5 0c2,0 3,-1 3,-3l0 -28 18 0c2,0 3,-1 3,-3l0 -2c0,-2 -1,-3 -3,-3l-26 0c-1,0 -2,1 -2,3l0 33zm44 -3c-5,0 -7,-2 -7,-9 0,-6 2,-9 7,-9 4,0 7,3 7,9 0,7 -3,9 -7,9zm0 -24c-11,0 -16,5 -16,15 0,10 5,15 16,15 10,0 16,-5 16,-15 0,-10 -6,-15 -16,-15zm32 11c0,-3 2,-4 4,-4l6 0 0 21c0,1 0,2 1,2l6 0c1,0 2,-1 2,-2l0 -26c0,-1 -1,-2 -2,-2l-13 0c-6,0 -11,2 -13,9l-5 19c0,1 1,2 2,2l5 0c1,0 2,-1 3,-2l4 -17zm40 13c-5,0 -7,-2 -7,-9 0,-6 2,-9 7,-9 5,0 7,3 7,9 0,7 -2,9 -7,9zm0 -24c-10,0 -16,5 -16,15 0,10 6,15 16,15 10,0 16,-5 16,-15 0,-10 -6,-15 -16,-15zm40 30c7,0 12,-2 12,-8 0,-4 -2,-6 -5,-8 2,-1 3,-3 3,-6 0,-5 -5,-8 -11,-8l-16 0c-1,0 -2,1 -2,2l0 26c0,1 1,2 2,2l17 0zm-1 -12c2,0 3,1 3,3 0,2 -1,3 -3,3l-9 0 0 -6 9 0zm-9 -6l0 -6 8 0c2,0 3,2 3,3 0,2 -1,3 -3,3l-8 0zm36 -10c0,-1 -1,-2 -2,-2l-6 0c-1,0 -2,1 -2,2l0 26c0,1 1,2 2,2l6 0c1,0 2,-1 2,-2l0 -10 11 0 0 10c0,1 1,2 2,2l6 0c1,0 2,-1 2,-2l0 -26c0,-1 -1,-2 -2,-2l-6 0c-1,0 -2,1 -2,2l0 10 -11 0 0 -10zm39 22c-3,0 -4,-1 -4,-3 0,-2 1,-3 4,-3l8 0 0 4c-2,1 -5,2 -8,2zm3 -18c3,0 5,1 5,6l-9 0c-7,0 -12,3 -12,9 0,6 5,9 12,9 4,0 8,-1 10,-3l0 1c0,1 1,2 2,2l5 0c1,0 1,-1 1,-2l0 -16c0,-9 -6,-12 -14,-12 -9,0 -14,2 -14,8 0,0 0,1 1,1l4 0c2,0 3,0 3,-1 1,-1 3,-2 6,-2zm30 19c1,-2 0,-4 -3,-4l-2 0c-2,0 -4,1 -4,3l-2 9c0,2 0,3 2,3l2 0c2,0 3,-1 4,-3l3 -8z"/>
  <path class="fil2" d="M164 605l0 4c0,1 1,3 3,3l29 0c2,0 3,-2 3,-3l0 -3c0,-1 -1,-2 -3,-2l-22 0c0,-6 25,-3 25,-18 0,-11 -7,-13 -16,-13l-3 0c-8,0 -16,4 -16,10 0,3 2,3 3,3l3 0c2,0 3,0 4,-2 1,-3 3,-4 6,-4l2 0c5,0 7,2 7,6 0,7 -25,2 -25,19zm49 -17l0 -1c0,-5 2,-7 7,-7l4 0c3,0 5,1 6,3 1,1 2,2 4,2l3 0c1,0 3,0 3,-3 0,-5 -7,-9 -15,-9l-6 0c-10,0 -16,3 -16,14l0 12c0,10 6,13 16,13l6 0c9,0 15,-3 15,-12 0,-9 -6,-12 -15,-12l-12 0zm11 7c4,0 6,1 6,5 0,3 -2,4 -6,4l-4 0c-5,0 -7,-1 -7,-5l0 -4 11 0zm40 17c10,0 16,-3 16,-12 0,-9 -6,-13 -16,-13l-9 0 0 -6 21 0c1,0 2,-2 2,-3l0 -2c0,-2 -1,-3 -2,-3l-28 0c-2,0 -3,1 -3,3l0 16c0,2 2,3 3,3l15 0c5,0 7,1 7,5 0,3 -2,4 -7,4l-4 0c-2,0 -5,-1 -5,-2 -1,-2 -3,-3 -4,-3l-3 0c-1,0 -3,1 -3,3 0,6 6,10 14,10l6 0zm33 -6c-3,0 -4,-1 -4,-3 0,-2 1,-4 4,-4l8 0 0 5c-2,1 -5,2 -8,2zm2 -18c4,0 6,1 6,5l-9 0c-7,0 -13,3 -13,10 0,6 6,9 13,9 4,0 7,-1 10,-3l0 1c0,1 0,2 1,2l5 0c1,0 2,-1 2,-2l0 -17c0,-8 -6,-11 -14,-11 -9,0 -15,2 -15,7 0,1 1,2 2,2l4 0c1,0 2,-1 3,-2 1,-1 3,-1 5,-1zm31 19c1,-3 -1,-4 -3,-4l-3 0c-1,0 -3,1 -4,3l-1 9c-1,2 0,3 2,3l1 0c2,0 4,-1 4,-3l4 -8zm32 -34c-1,0 -2,0 -3,1l-7 6c-1,1 -1,1 -1,2l2 3c1,1 2,1 3,0l3 -2 0 26c0,1 1,3 2,3l5 0c2,0 3,-2 3,-3l0 -33c0,-2 -1,-3 -3,-3l-4 0zm64 11c0,-1 -1,-2 -2,-2l-27 0c-1,0 -2,1 -2,2l0 26c0,1 1,2 2,2l6 0c1,0 2,-1 2,-2l0 -21 11 0 0 21c0,1 1,2 2,2l6 0c1,0 2,-1 2,-2l0 -26zm21 22c-5,0 -7,-3 -7,-9 0,-7 2,-9 7,-9 5,0 7,2 7,9 0,6 -2,9 -7,9zm0 -24c-11,0 -16,5 -16,15 0,10 5,15 16,15 10,0 16,-5 16,-15 0,-10 -6,-15 -16,-15zm40 30c7,0 12,-3 12,-9 0,-3 -2,-6 -5,-7 2,-1 3,-3 3,-6 0,-6 -5,-8 -11,-8l-16 0c-1,0 -2,1 -2,2l0 26c0,1 1,2 2,2l17 0zm-1 -13c2,0 3,2 3,4 0,1 -1,3 -3,3l-9 0 0 -7 9 0zm-9 -5l0 -6 8 0c2,0 3,1 3,3 0,1 -1,3 -3,3l-8 0zm46 1c0,6 -2,12 -7,18 0,1 -1,2 0,2l1 3c1,1 2,1 2,0 8,-5 12,-14 12,-23 0,-9 -4,-19 -12,-24 0,0 -1,0 -2,1l-1 2c-1,1 0,2 0,2 5,7 7,13 7,19zm-21 13c0,2 1,4 4,4l3 0c2,0 4,-2 4,-4l0 -2c0,-2 -2,-3 -4,-3l-3 0c-3,0 -4,1 -4,3l0 2z"/>
 </g>
</svg>
