<?xml version="1.0" encoding="UTF-8"?>
<!DOCTYPE svg PUBLIC "-//W3C//DTD SVG 1.1//EN" "http://www.w3.org/Graphics/SVG/1.1/DTD/svg11.dtd">
<!-- Creator: CorelDRAW X7 -->
<svg xmlns="http://www.w3.org/2000/svg" xml:space="preserve" width="37.0448mm" height="72.3834mm" version="1.1" style="shape-rendering:geometricPrecision; text-rendering:geometricPrecision; image-rendering:optimizeQuality; fill-rule:evenodd; clip-rule:evenodd"
viewBox="0 0 3704 7238"
 xmlns:xlink="http://www.w3.org/1999/xlink">
 <defs>
  <style type="text/css">
   <![CDATA[
    .str0 {stroke:#2B2A29;stroke-width:20}
    .fil0 {fill:black}
    .fil2 {fill:#FEFEFE;fill-rule:nonzero}
    .fil1 {fill:#FEFEFE;fill-rule:nonzero}
   ]]>
  </style>
 </defs>
 <g id="Слой_x0020_1">
  <metadata id="CorelCorpID_0Corel-Layer"/>
  <rect class="fil0 str0" x="10" y="10" width="3684" height="7218"/>
  <path class="fil1" d="M775 1548c0,43 -16,48 -64,48l-96 0c-48,0 -64,-10 -64,-64l0 -85c0,-53 11,-64 64,-64l96 0c48,0 64,16 64,53l80 0c0,-101 -48,-122 -128,-122l-128 0c-96,0 -128,26 -128,128l0 101c0,96 32,123 118,123l149 0c96,0 117,-27 117,-118l-80 0zm128 118l278 0 0 -70 -198 0 0 -282 -80 0 0 352zm422 -352l-80 0 0 352 80 0 0 -352zm69 0l0 352 75 0 0 -278 11 0 112 278 112 0 112 -278 10 0 0 278 75 0 0 -352 -144 0 -107 282 -5 0 -107 -282 -144 0 0 0zm640 69l160 0c22,0 32,11 32,32 0,27 -10,43 -32,43l-160 0 0 -75zm-74 283l250 0c75,0 107,-27 107,-102 0,-53 -21,-69 -53,-80 26,-10 42,-21 42,-80 0,-64 -42,-90 -112,-90l-234 0 0 352 0 0zm74 -144l160 0c43,0 48,10 48,37 0,32 -5,43 -48,43l-160 0 0 -80zm342 144l336 0 0 -64 -256 0 0 -80 245 0 0 -64 -245 0 0 -75 256 0 0 -69 -336 0 0 352 0 0zm464 -278l165 0c32,0 43,16 43,54 0,37 -11,53 -43,53l-165 0 0 -107 0 0zm293 278l0 -70c0,-37 -21,-53 -53,-64 21,-16 48,-37 48,-90 0,-102 -48,-128 -117,-128l-246 0 0 352 75 0 0 -102 155 0c42,0 58,16 58,48l0 54 80 0zm-1589 208l90 0c11,0 16,5 16,21 0,11 -5,21 -16,21l-90 0 0 -42zm-43 160l139 0c42,0 64,-16 64,-59 0,-32 -11,-37 -32,-48 16,-5 21,-11 21,-43 0,-37 -21,-48 -59,-48l-133 0 0 198zm43 -86l90 0c22,0 27,11 27,27 0,16 -5,21 -27,21l-90 0 0 -48zm192 86l42 0 0 -48 -42 0 0 48zm245 -70c0,22 -11,27 -37,27l-54 0c-26,0 -37,-5 -37,-32l0 -48c0,-32 5,-37 37,-37l54 0c26,0 37,10 37,26l43 0c0,-53 -27,-64 -70,-64l-74 0c-54,0 -70,16 -70,70l0 58c0,54 16,70 70,70l80 0c53,0 64,-16 64,-70l-43 0 0 0zm75 70l42 0 0 -48 -42 0 0 48z"/>
  <path class="fil2" d="M472 3237c39,0 68,26 68,112 0,92 -29,119 -68,119 -40,0 -69,-27 -69,-119 0,-86 29,-112 69,-112zm-5 -76c-74,0 -128,43 -128,188 0,146 54,194 128,194l9 0c74,0 128,-48 128,-194 0,-145 -54,-188 -128,-188l-9 0zm230 145l0 -10c0,-49 14,-59 44,-59l29 0c20,0 34,5 39,21 5,16 15,22 25,22l19 0c5,0 20,-6 20,-27 0,-54 -39,-92 -93,-92l-49 0c-64,0 -98,32 -98,135l0 118c0,97 34,129 103,129l39 0c63,0 103,-32 103,-118 0,-92 -40,-119 -103,-119l-78 0 0 0zm68 76c29,0 44,5 44,43 0,32 -15,43 -44,43l-24 0c-30,0 -44,-11 -44,-54l0 -32 68 0zm206 -76l0 -10c0,-49 9,-59 39,-59l34 0c15,0 29,5 34,21 10,16 15,22 25,22l19 0c5,0 20,-6 20,-27 0,-54 -39,-92 -93,-92l-44 0c-64,0 -103,32 -103,135l0 118c0,97 39,129 103,129l39 0c64,0 103,-32 103,-118 0,-92 -39,-119 -103,-119l-73 0 0 0zm68 76c25,0 39,5 39,43 0,32 -14,43 -39,43l-29 0c-30,0 -39,-11 -39,-54l0 -32 68 0zm391 -145c35,0 64,26 64,112 0,92 -29,119 -64,119 -39,0 -68,-27 -68,-119 0,-86 29,-112 68,-112zm-4 -76c-74,0 -133,43 -133,188 0,146 59,194 133,194l9 0c69,0 128,-48 128,-194 0,-145 -59,-188 -128,-188l-9 0zm229 145l0 -10c0,-49 15,-59 45,-59l29 0c19,0 34,5 39,21 5,16 10,22 24,22l20 0c5,0 20,-6 20,-27 0,-54 -44,-92 -98,-92l-44 0c-64,0 -103,32 -103,135l0 118c0,97 39,129 103,129l39 0c68,0 103,-32 103,-118 0,-92 -35,-119 -103,-119l-74 0 0 0zm69 76c29,0 44,5 44,43 0,32 -15,43 -44,43l-24 0c-30,0 -45,-11 -45,-54l0 -32 69 0zm323 -221c-10,0 -20,6 -30,11l-44 59c-4,6 -4,11 0,22l10 27c5,5 15,5 20,0l19 -22 0 258c0,11 5,22 15,22l34 0c10,0 15,-11 15,-22l0 -328c0,-16 -5,-27 -15,-27l-24 0 0 0zm78 312l0 43c0,11 5,22 15,22l200 0c10,0 15,-11 15,-22l0 -27c0,-16 -5,-27 -15,-27l-146 0c0,-59 166,-26 166,-177 0,-97 -49,-124 -108,-124l-24 0c-49,0 -103,38 -103,102 0,22 15,27 20,27l19 0c10,0 20,-5 25,-21 10,-27 24,-32 44,-32l14 0c30,0 44,10 44,48 0,75 -166,27 -166,188l0 0zm455 -167l0 -10c0,-49 15,-59 39,-59l34 0c15,0 30,5 35,21 10,16 14,22 24,22l20 0c5,0 19,-6 19,-27 0,-54 -39,-92 -93,-92l-44 0c-63,0 -102,32 -102,135l0 118c0,97 39,129 102,129l39 0c64,0 103,-32 103,-118 0,-92 -39,-119 -103,-119l-73 0 0 0zm69 76c24,0 39,5 39,43 0,32 -15,43 -39,43l-30 0c-24,0 -39,-11 -39,-54l0 -32 69 0zm166 134c-5,11 0,22 10,22l34 0c10,0 20,-11 24,-22l93 -258c5,-11 10,-32 10,-48l0 -22c0,-16 -5,-27 -15,-27l-190 0c-10,0 -20,11 -20,27l0 22c0,16 10,27 20,27l137 0 -103 279 0 0zm313 -279c39,0 69,26 69,112 0,92 -30,119 -69,119 -34,0 -64,-27 -64,-119 0,-86 30,-112 64,-112zm-5 -76c-68,0 -127,43 -127,188 0,146 59,194 127,194l10 0c73,0 132,-48 132,-194 0,-145 -59,-188 -132,-188l-10 0z"/>
  <path class="fil1" d="M1029 2299c10,0 16,5 21,5 11,0 11,11 11,16 0,32 -11,123 -11,149 -5,16 -5,22 -16,27 -5,0 -11,0 -16,0 0,5 0,11 0,11 5,0 21,0 43,0 16,0 32,0 37,0 0,0 0,-6 0,-11 -11,0 -16,0 -21,0 -11,-5 -11,-11 -11,-27 0,-26 5,-106 5,-138 0,0 0,0 6,0 10,32 58,149 64,176 5,0 10,0 10,0 11,-32 64,-155 75,-176 0,0 0,0 0,0 0,32 5,122 5,149 0,5 -5,11 -10,16 -6,0 -11,0 -16,0 -6,5 -6,11 0,11 5,0 21,0 42,0 16,0 32,0 43,0 0,0 0,-6 0,-11 -11,0 -16,0 -21,0 -6,-5 -11,-11 -11,-21 0,-27 -5,-139 -5,-160 0,-6 5,-11 10,-11 6,-5 11,-5 22,-5 0,0 0,-11 0,-11 -16,0 -27,0 -59,0 0,5 0,11 -5,21 -11,32 -59,134 -64,144 0,0 0,0 0,0 -6,-10 -43,-96 -59,-144 -5,-5 -5,-10 -11,-21 -32,0 -48,0 -58,0 0,0 0,11 0,11l0 0zm341 0c11,0 16,0 21,5 6,0 11,5 11,16 0,16 0,37 0,69 0,43 0,80 0,91 -5,5 -5,11 -16,16 0,0 -5,0 -16,0 0,5 0,11 0,11 11,0 27,0 48,0 16,0 32,0 43,0 0,0 0,-6 0,-11 -11,0 -16,0 -22,0 -10,-5 -10,-11 -10,-21 0,-11 0,-48 0,-80 0,-32 0,-59 0,-75 0,-11 5,-16 10,-16 6,-5 11,-5 16,-5 0,0 0,-11 0,-11 -10,0 -21,0 -42,0 -16,0 -32,0 -43,0 0,0 0,11 0,11l0 0zm176 0c6,0 11,0 16,5 11,0 11,5 11,16 0,11 0,32 0,69 0,48 0,80 0,91 0,11 0,11 -11,16 -5,0 -10,0 -21,0 0,5 0,11 0,11 5,0 32,0 48,0 16,0 75,0 91,0 10,0 16,0 16,0 5,-11 16,-48 16,-64 0,0 -6,0 -11,0 -5,16 -11,26 -16,37 -11,11 -16,11 -21,11 -16,5 -48,5 -54,0 -5,0 -5,-6 -5,-11 -5,-16 -5,-43 -5,-85 5,-38 5,-64 5,-80 0,-6 0,-11 5,-11 6,-5 11,-5 16,-5 6,0 6,-11 0,-11 -5,0 -16,0 -37,0 -22,0 -32,0 -43,0 0,0 0,11 0,11l0 0zm230 197c0,5 0,11 0,11 5,0 16,0 37,0 16,0 32,0 37,0 6,0 6,-6 6,-11 -11,0 -16,0 -16,0 -11,-5 -11,-5 -11,-16 0,-5 11,-37 16,-53 0,-6 0,-6 5,-6l54 0c5,0 5,0 5,6 5,16 16,42 21,58 0,6 0,6 -5,11 -5,0 -11,0 -16,0 -5,5 -5,11 0,11 5,0 27,0 43,0 10,0 32,0 37,0 0,0 5,-6 0,-11 -21,0 -27,-5 -32,-27 -11,-32 -48,-138 -53,-160 -6,-5 -6,-16 -6,-21 -5,0 -5,0 -10,0 -11,0 -11,0 -16,0 0,5 0,16 -6,21 -5,22 -37,112 -53,155 -11,27 -16,32 -37,32l0 0zm101 -171c5,16 21,54 27,75 0,5 0,5 0,5 -6,0 -16,0 -27,0 -11,0 -21,0 -21,0 -6,0 -6,0 -6,0 6,-21 22,-58 27,-80 0,0 0,0 0,0zm181 -26c11,0 16,5 27,5 5,5 5,16 5,21 0,75 0,128 0,150 -5,10 -5,16 -16,21 -5,0 -10,0 -16,0 0,5 0,11 0,11 6,0 22,0 38,0 21,0 37,0 42,0 0,0 0,-6 0,-11 -5,0 -16,0 -21,0 -5,-5 -11,-11 -11,-21 0,-22 0,-102 0,-139 0,0 0,0 0,0 22,27 112,144 128,171 6,0 16,0 22,0 0,-11 0,-32 0,-48 0,-64 0,-112 0,-139 5,-11 5,-16 16,-16 0,-5 5,-5 10,-5 0,0 0,-11 0,-11 -5,0 -21,0 -32,0 -21,0 -37,0 -42,0 -6,0 -6,11 0,11 5,0 16,0 21,5 11,0 11,5 11,16 0,27 0,91 0,144 0,0 0,0 0,0 -16,-21 -80,-112 -118,-155 -5,-10 -10,-16 -10,-21 0,0 -6,0 -16,0 -16,0 -32,0 -38,0 -5,0 -5,11 0,11zm422 213c32,0 64,-16 85,-43 11,-21 21,-42 21,-74 0,-59 -37,-112 -101,-112 -32,0 -69,21 -85,48 -16,16 -22,37 -22,64 0,32 6,64 27,85 16,21 43,32 75,32l0 0zm10 -16c-16,0 -26,0 -42,-11 -27,-21 -38,-58 -38,-96 0,-37 11,-69 32,-85 11,-5 22,-5 32,-5 16,0 32,5 43,10 27,22 37,59 37,96 0,32 -10,64 -26,80 -11,6 -22,11 -38,11l0 0z"/>
 </g>
</svg>
