<?xml version="1.0" encoding="UTF-8"?>
<!DOCTYPE svg PUBLIC "-//W3C//DTD SVG 1.1//EN" "http://www.w3.org/Graphics/SVG/1.1/DTD/svg11.dtd">
<!-- Creator: CorelDRAW X7 -->
<svg xmlns="http://www.w3.org/2000/svg" xml:space="preserve" width="37.076mm" height="72.3986mm" version="1.1" style="shape-rendering:geometricPrecision; text-rendering:geometricPrecision; image-rendering:optimizeQuality; fill-rule:evenodd; clip-rule:evenodd"
viewBox="0 0 689 1346"
 xmlns:xlink="http://www.w3.org/1999/xlink">
 <defs>
  <style type="text/css">
   <![CDATA[
    .str0 {stroke:#2B2A29;stroke-width:3.71782}
    .fil0 {fill:black}
    .fil2 {fill:#FEFEFE;fill-rule:nonzero}
    .fil1 {fill:#E31E24;fill-rule:nonzero}
   ]]>
  </style>
 </defs>
 <g id="Слой_x0020_1">
  <metadata id="CorelCorpID_0Corel-Layer"/>
  <rect class="fil0 str0" x="2" y="2" width="685" height="1342"/>
  <path class="fil1" d="M73 428c8,0 14,5 14,21 0,17 -6,22 -14,22 -8,0 -14,-5 -14,-22 0,-16 6,-21 14,-21zm-1 -14c-15,0 -26,8 -26,35 0,27 11,36 26,36l2 0c15,0 26,-9 26,-36 0,-27 -11,-35 -26,-35l-2 0zm47 27l0 -2c0,-9 3,-11 9,-11l6 0c4,0 7,1 8,4 1,3 3,4 5,4l4 0c1,0 4,-1 4,-5 0,-10 -8,-17 -19,-17l-10 0c-13,0 -20,6 -20,25l0 22c0,18 7,24 21,24l8 0c13,0 21,-6 21,-22 0,-17 -8,-22 -21,-22l-16 0zm14 14c6,0 9,1 9,8 0,6 -3,8 -9,8l-5 0c-6,0 -9,-2 -9,-10l0 -6 14 0zm42 -14l0 -2c0,-9 2,-11 8,-11l7 0c3,0 6,1 7,4 2,3 3,4 5,4l4 0c1,0 4,-1 4,-5 0,-10 -8,-17 -19,-17l-9 0c-13,0 -21,6 -21,25l0 22c0,18 8,24 21,24l8 0c13,0 21,-6 21,-22 0,-17 -8,-22 -21,-22l-15 0zm14 14c5,0 8,1 8,8 0,6 -3,8 -8,8l-6 0c-6,0 -8,-2 -8,-10l0 -6 14 0zm80 -27c7,0 13,5 13,21 0,17 -6,22 -13,22 -8,0 -14,-5 -14,-22 0,-16 6,-21 14,-21zm-1 -14c-15,0 -27,8 -27,35 0,27 12,36 27,36l2 0c14,0 26,-9 26,-36 0,-27 -12,-35 -26,-35l-2 0zm47 27l0 -2c0,-9 3,-11 9,-11l6 0c4,0 7,1 8,4 1,3 2,4 5,4l4 0c1,0 4,-1 4,-5 0,-10 -9,-17 -20,-17l-9 0c-13,0 -21,6 -21,25l0 22c0,18 8,24 21,24l8 0c14,0 21,-6 21,-22 0,-17 -7,-22 -21,-22l-15 0zm14 14c6,0 9,1 9,8 0,6 -3,8 -9,8l-5 0c-6,0 -9,-2 -9,-10l0 -6 14 0zm66 -41c-2,0 -4,1 -6,2l-9 11c-1,1 -1,2 0,4l2 5c1,1 3,1 4,0l4 -4 0 48c0,2 1,4 3,4l7 0c2,0 3,-2 3,-4l0 -61c0,-3 -1,-5 -3,-5l-5 0zm16 58l0 8c0,2 1,4 3,4l41 0c2,0 3,-2 3,-4l0 -5c0,-3 -1,-5 -3,-5l-30 0c0,-11 34,-5 34,-33 0,-18 -10,-23 -22,-23l-5 0c-10,0 -21,7 -21,19 0,4 3,5 4,5l4 0c2,0 4,-1 5,-4 2,-5 5,-6 9,-6l3 0c6,0 9,2 9,9 0,14 -34,5 -34,35zm93 -31l0 -2c0,-9 3,-11 8,-11l7 0c3,0 6,1 7,4 2,3 3,4 5,4l4 0c1,0 4,-1 4,-5 0,-10 -8,-17 -19,-17l-9 0c-13,0 -21,6 -21,25l0 22c0,18 8,24 21,24l8 0c13,0 21,-6 21,-22 0,-17 -8,-22 -21,-22l-15 0zm14 14c5,0 8,1 8,8 0,6 -3,8 -8,8l-6 0c-5,0 -8,-2 -8,-10l0 -6 14 0zm34 25c-1,2 0,4 2,4l7 0c2,0 4,-2 5,-4l19 -48c1,-2 2,-6 2,-9l0 -4c0,-3 -1,-5 -3,-5l-39 0c-2,0 -4,2 -4,5l0 4c0,3 2,5 4,5l28 0 -21 52zm64 -52c8,0 14,5 14,21 0,17 -6,22 -14,22 -7,0 -13,-5 -13,-22 0,-16 6,-21 13,-21zm-1 -14c-14,0 -26,8 -26,35 0,27 12,36 26,36l2 0c15,0 27,-9 27,-36 0,-27 -12,-35 -27,-35l-2 0z"/>
  <path class="fil2" d="M149 598c0,1 1,2 2,2l5 0c2,0 3,-1 4,-2l1 -7 19 0 0 7c0,1 1,2 3,2l5 0c1,0 2,-1 2,-2l0 -34c0,-1 -1,-2 -2,-2l-14 0c-8,0 -16,2 -18,10l-7 26zm17 -23c1,-4 3,-6 7,-6l7 0 0 14 -17 0 3 -8zm45 19c-4,0 -6,-2 -6,-8 0,-7 2,-9 7,-9 1,0 3,0 6,1l0 14c-2,1 -5,2 -7,2zm-2 7c4,0 7,-2 9,-3l0 0c0,1 1,2 2,2l5 0c1,0 2,-1 2,-2l0 -34c0,-1 -1,-2 -2,-2l-6 0c-1,0 -1,1 -1,2l0 8c-3,-1 -5,-2 -8,-2 -9,0 -14,5 -14,16 0,9 5,15 13,15zm47 -29c0,-1 -1,-2 -2,-2 -6,0 -8,2 -11,4l0 -1c0,-1 -1,-2 -2,-2l-6 0c-1,0 -2,1 -2,2l0 25c0,1 1,2 2,2l6 0c1,0 2,-1 2,-2l0 -17c2,-2 4,-3 6,-3 2,0 3,0 5,0l0 0c1,0 2,-1 2,-2l0 -4zm31 16c1,0 2,0 2,-1l0 -2c0,-9 -6,-15 -16,-15 -9,0 -15,6 -15,16 0,9 6,15 15,15 9,0 15,-2 15,-8 0,-1 -1,-2 -2,-2l-4 0c-1,0 -2,1 -3,2 -1,1 -3,2 -5,2 -5,0 -7,-2 -7,-7l20 0zm-14 -12c4,0 6,3 6,7l-12 0c0,-4 2,-7 6,-7zm48 16c0,-11 -20,-8 -20,-13 0,-2 2,-3 5,-3 3,0 5,1 6,2 0,1 1,2 3,2l4 0c1,0 1,-1 1,-2 0,-6 -5,-8 -14,-8 -8,0 -14,3 -14,9 0,11 20,8 20,13 0,2 -1,3 -6,3 -2,0 -4,-1 -5,-2 -1,-1 -2,-2 -3,-2l-4 0c-1,0 -2,1 -2,2 0,6 6,8 15,8 8,0 14,-3 14,-9l0 0zm14 -19c0,-1 0,-2 -1,-2l-6 0c-1,0 -2,1 -2,2l0 15c0,9 5,13 12,13 4,0 7,-2 10,-4l0 1c0,1 0,2 1,2l6 0c1,0 2,-1 2,-2l0 -25c0,-1 -1,-2 -2,-2l-6 0c-1,0 -1,1 -1,2l0 17c-2,2 -5,4 -8,4 -3,0 -5,-2 -5,-6l0 -15zm38 -9c0,-1 -1,-2 -2,-2l-6 0c-1,0 -2,1 -2,2l0 34c0,1 1,2 2,2l6 0c1,0 2,-1 2,-2l0 -9c2,0 4,1 6,3l3 6c1,1 3,2 4,2l5 0c2,0 2,-1 1,-2l-4 -8c-2,-2 -4,-4 -6,-5 2,0 5,-2 6,-4l3 -8c1,-1 1,-2 -1,-2l-5 0c-1,0 -3,1 -4,2l-2 6c-1,2 -3,3 -6,3l0 -18zm46 8c0,-1 0,-2 -1,-2 -6,0 -9,2 -12,4l0 -1c0,-1 -1,-2 -2,-2l-6 0c-1,0 -1,1 -1,2l0 25c0,1 0,2 1,2l6 0c1,0 2,-1 2,-2l0 -17c2,-2 4,-3 7,-3 1,0 2,0 4,0l1 0c1,0 1,-1 1,-2l0 -4zm15 23c-3,0 -4,-2 -4,-4 0,-2 1,-3 4,-3l8 0 0 4c-2,1 -5,3 -8,3zm2 -19c4,0 6,2 6,6l-9 0c-7,0 -13,3 -13,9 0,6 6,10 13,10 4,0 7,-2 10,-3l0 0c0,1 0,2 1,2l5 0c1,0 2,-1 2,-2l0 -16c0,-8 -6,-12 -14,-12 -9,0 -15,2 -15,8 0,1 1,2 2,2l4 0c1,0 2,-1 3,-2 1,-1 3,-2 5,-2zm29 24c1,0 2,-1 2,-2l0 -25c0,-1 -1,-1 -2,-1l-6 0c-1,0 -1,0 -1,1l0 25c0,1 0,2 1,2l6 0zm-8 -35c0,2 2,3 4,3l3 0c2,0 3,-1 3,-3l0 -1c0,-1 -1,-3 -3,-3l-3 0c-2,0 -4,2 -4,3l0 1zm38 33c0,1 1,2 1,2l6 0c1,0 2,-1 2,-2l0 -15c0,-9 -5,-13 -12,-13 -4,0 -7,2 -9,4l0 -1c0,-1 -1,-2 -2,-2l-6 0c-1,0 -2,1 -2,2l0 25c0,1 1,2 2,2l6 0c1,0 2,-1 2,-2l0 -17c2,-2 4,-4 7,-4 3,0 5,2 5,6l0 15zm43 -10c1,0 2,0 2,-1l0 -2c0,-9 -6,-15 -16,-15 -9,0 -15,6 -15,16 0,9 6,15 15,15 9,0 15,-2 15,-8 0,-1 -1,-2 -2,-2l-4 0c-1,0 -2,1 -3,2 -1,1 -3,2 -5,2 -4,0 -6,-2 -7,-7l20 0zm-14 -12c4,0 6,3 7,7l-13 0c0,-4 3,-7 6,-7z"/>
  <path class="fil2" d="M178 646c-1,0 -1,1 -1,2l0 3c0,1 0,2 1,2l20 0c1,0 2,-1 2,-2l0 -3c0,-1 -1,-2 -2,-2l-20 0zm53 20c1,0 2,-1 2,-2l0 -25c0,-1 -1,-1 -2,-1l-6 0c-1,0 -2,0 -2,1l0 25c0,1 1,2 2,2l6 0zm-8 -35c0,2 2,3 3,3l4 0c2,0 3,-1 3,-3l0 -1c0,-1 -1,-3 -3,-3l-4 0c-1,0 -3,2 -3,3l0 1zm26 8c0,-1 -1,-2 -2,-2l-6 0c-1,0 -2,1 -2,2l0 25c0,1 1,2 2,2l6 0c1,0 2,-1 2,-2l0 -10 11 0 0 10c0,1 1,2 2,2l6 0c1,0 1,-1 1,-2l0 -25c0,-1 0,-2 -1,-2l-6 0c-1,0 -2,1 -2,2l0 9 -11 0 0 -9zm42 4c3,0 5,1 5,2 1,1 2,2 4,2l3 0c1,0 2,0 2,-1 0,-7 -6,-10 -15,-10 -10,0 -16,5 -16,15 0,10 6,16 16,16 10,0 15,-3 15,-10 0,-1 0,-1 -1,-1l-4 0c-2,0 -3,0 -3,2 -1,1 -3,2 -6,2 -5,0 -7,-3 -7,-9 0,-6 2,-8 7,-8zm18 -6c-1,0 -2,1 -2,2l0 3c0,1 1,1 2,1l8 0 0 21c0,1 1,2 2,2l6 0c1,0 1,-1 1,-2l0 -21 9 0c1,0 1,0 1,-1l0 -3c0,-1 0,-2 -1,-2l-26 0zm42 24c-3,0 -4,-2 -4,-4 0,-2 1,-3 4,-3l8 0 0 4c-2,1 -5,3 -8,3zm3 -19c3,0 5,2 5,6l-9 0c-7,0 -12,3 -12,9 0,6 5,10 12,10 4,0 7,-2 10,-3l0 0c0,1 1,2 1,2l6 0c0,0 1,-1 1,-2l0 -16c0,-8 -6,-12 -14,-12 -9,0 -14,2 -14,8 0,1 0,2 1,2l4 0c2,0 3,-1 3,-2 1,-1 3,-2 6,-2zm42 1c1,0 2,0 2,-1l0 -3c0,-1 -1,-2 -2,-2l-20 0c-1,0 -1,1 -1,2l0 25c0,1 0,2 1,2l6 0c1,0 2,-1 2,-2l0 -21 12 0zm21 0c5,0 6,2 6,8 0,6 -1,9 -6,9 -2,0 -4,0 -6,-1l0 -14c2,-1 4,-2 6,-2zm2 -7c-3,0 -6,2 -9,3l0 0c0,-1 -1,-2 -2,-2l-5 0c-1,0 -1,1 -1,2l0 34c0,1 0,2 1,2l6 0c1,0 2,-1 2,-2l0 -8c2,1 4,2 8,2 8,0 14,-6 14,-16 0,-10 -6,-15 -14,-15zm31 25c-3,0 -5,-2 -5,-4 0,-2 2,-3 4,-3l9 0 0 4c-2,1 -5,3 -8,3zm2 -19c4,0 6,2 6,6l-9 0c-7,0 -13,3 -13,9 0,6 6,10 13,10 4,0 7,-2 9,-3l0 0c0,1 1,2 2,2l5 0c1,0 2,-1 2,-2l0 -16c0,-8 -6,-12 -14,-12 -9,0 -15,2 -15,8 0,1 1,2 2,2l4 0c1,0 2,-1 3,-2 1,-1 3,-2 5,-2zm42 24c1,0 2,-1 3,-2l7 -16 0 16c0,1 0,2 1,2l6 0c1,0 2,-1 2,-2l0 -25c0,-1 -1,-2 -2,-2l-9 0c-1,0 -2,1 -3,2l-6 16 -7 -16c0,-1 -1,-2 -2,-2l-9 0c-1,0 -2,1 -2,2l0 25c0,1 1,2 2,2l6 0c1,0 1,-1 1,-2l0 -16 7 16c1,1 1,2 3,2l2 0z"/>
 </g>
</svg>
